<svg width="23" height="23" viewBox="0 0 23 23" fill="none" xmlns="http://www.w3.org/2000/svg">
<path d="M14.1436 11.5001L22.2061 3.45635C22.5592 3.10328 22.7576 2.62442 22.7576 2.1251C22.7576 1.62579 22.5592 1.14692 22.2061 0.793854C21.8531 0.440784 21.3742 0.242432 20.8749 0.242432C20.3756 0.242432 19.8967 0.440784 19.5436 0.793854L11.4999 8.85635L3.45614 0.793854C3.10307 0.440784 2.6242 0.242432 2.12489 0.242432C1.62557 0.242432 1.1467 0.440784 0.793635 0.793854C0.440566 1.14692 0.242214 1.62579 0.242214 2.1251C0.242214 2.62442 0.440566 3.10328 0.793635 3.45635L8.85614 11.5001L0.793635 19.5439C0.617895 19.7182 0.478406 19.9255 0.383215 20.154C0.288023 20.3825 0.239014 20.6276 0.239014 20.8751C0.239014 21.1226 0.288023 21.3677 0.383215 21.5962C0.478406 21.8247 0.617895 22.032 0.793635 22.2064C0.967941 22.3821 1.17532 22.5216 1.4038 22.6168C1.63229 22.712 1.87736 22.761 2.12489 22.761C2.37241 22.761 2.61748 22.712 2.84597 22.6168C3.07445 22.5216 3.28183 22.3821 3.45614 22.2064L11.4999 14.1439L19.5436 22.2064C19.7179 22.3821 19.9253 22.5216 20.1538 22.6168C20.3823 22.712 20.6274 22.761 20.8749 22.761C21.1224 22.761 21.3675 22.712 21.596 22.6168C21.8245 22.5216 22.0318 22.3821 22.2061 22.2064C22.3819 22.032 22.5214 21.8247 22.6166 21.5962C22.7118 21.3677 22.7608 21.1226 22.7608 20.8751C22.7608 20.6276 22.7118 20.3825 22.6166 20.154C22.5214 19.9255 22.3819 19.7182 22.2061 19.5439L14.1436 11.5001Z" fill="black"/>
</svg>
