<svg width="524" height="391" viewBox="0 0 524 391" fill="none" xmlns="http://www.w3.org/2000/svg">
<path d="M524 343.118H0V343.38H524V343.118Z" fill="#E6E6E6"/>
<path d="M444.467 357.82H433.348V358.082H444.467V357.82Z" fill="#E6E6E6"/>
<path d="M425.655 357.943H380.434V358.205H425.655V357.943Z" fill="#E6E6E6"/>
<path d="M324.534 355.45H248.219V355.712H324.534V355.45Z" fill="#E6E6E6"/>
<path d="M204.318 359.999H180.098V360.261H204.318V359.999Z" fill="#E6E6E6"/>
<path d="M123.612 355.573H90.2642V355.835H123.612V355.573Z" fill="#E6E6E6"/>
<path d="M160.596 355.573H129.428V355.835H160.596V355.573Z" fill="#E6E6E6"/>
<path d="M100.252 350.999H68.4241V351.261H100.252V350.999Z" fill="#E6E6E6"/>
<path d="M248.376 296.374H46.018C44.4328 296.372 42.9134 295.74 41.7934 294.618C40.6735 293.496 40.0444 291.976 40.0444 290.39V5.93168C40.0582 4.35551 40.6933 2.84844 41.8118 1.73781C42.9303 0.627184 44.4418 0.00270005 46.018 0H248.376C249.963 0 251.485 0.630464 252.608 1.7527C253.73 2.87493 254.36 4.397 254.36 5.98408V290.39C254.36 291.977 253.73 293.499 252.608 294.622C251.485 295.744 249.963 296.374 248.376 296.374ZM46.018 0.209601C44.5023 0.212377 43.0495 0.81646 41.9787 1.88926C40.9079 2.96205 40.3064 4.4159 40.3064 5.93168V290.39C40.3064 291.906 40.9079 293.36 41.9787 294.433C43.0495 295.506 44.5023 296.11 46.018 296.112H248.376C249.893 296.11 251.347 295.506 252.419 294.433C253.492 293.361 254.096 291.907 254.098 290.39V5.93168C254.096 4.41494 253.492 2.96112 252.419 1.88862C251.347 0.81612 249.893 0.212371 248.376 0.209601H46.018Z" fill="#E6E6E6"/>
<path d="M475.069 296.374H272.7C271.114 296.372 269.594 295.74 268.472 294.619C267.35 293.497 266.719 291.977 266.716 290.39V5.93168C266.733 4.35456 267.37 2.8475 268.49 1.73716C269.61 0.626818 271.123 0.00267061 272.7 0H475.069C476.643 0.00545431 478.152 0.631157 479.268 1.74149C480.385 2.85182 481.018 4.35732 481.032 5.93168V290.39C481.032 291.974 480.405 293.493 479.287 294.614C478.169 295.736 476.652 296.369 475.069 296.374ZM272.7 0.209601C271.183 0.212371 269.73 0.81612 268.657 1.88862C267.585 2.96112 266.981 4.41494 266.978 5.93168V290.39C266.981 291.907 267.585 293.361 268.657 294.433C269.73 295.506 271.183 296.11 272.7 296.112H475.069C476.586 296.11 478.04 295.506 479.112 294.433C480.185 293.361 480.788 291.907 480.791 290.39V5.93168C480.788 4.41494 480.185 2.96112 479.112 1.88862C478.04 0.81612 476.586 0.212371 475.069 0.209601H272.7Z" fill="#E6E6E6"/>
<path d="M219.912 22.4985H56.6864V164.534H219.912V22.4985Z" fill="#E6E6E6"/>
<path d="M226.599 22.4985H59.8094V164.534H226.599V22.4985Z" fill="#F0F0F0"/>
<path d="M219.912 164.537H56.6864V170.238H219.912V164.537Z" fill="#E6E6E6"/>
<path d="M237.728 164.537H70.939V170.238H237.728V164.537Z" fill="#F0F0F0"/>
<path d="M217.251 155.187V31.8477L69.1683 31.8477V155.187H217.251Z" fill="#FAFAFA"/>
<path d="M93.1461 155.187L121.715 31.8477H160.92L132.352 155.187H93.1461Z" fill="white"/>
<path d="M74.555 134.574C74.3771 134.574 74.2065 134.503 74.0807 134.377C73.9549 134.251 73.8843 134.081 73.8843 133.903V37.9271C73.8843 37.7492 73.9549 37.5786 74.0807 37.4528C74.2065 37.327 74.3771 37.2563 74.555 37.2563C74.7329 37.2563 74.9035 37.327 75.0293 37.4528C75.155 37.5786 75.2257 37.7492 75.2257 37.9271V133.903C75.2257 134.081 75.155 134.251 75.0293 134.377C74.9035 134.503 74.7329 134.574 74.555 134.574Z" fill="#E6E6E6"/>
<path d="M140.39 155.187L168.959 31.8477H182.52L153.951 155.187H140.39Z" fill="white"/>
<path d="M217.24 155.178V31.8394H216.056V155.178H217.24Z" fill="#E6E6E6"/>
<path d="M228.81 32.8664H65.5839L64.7245 30.0264H227.95L228.81 32.8664Z" fill="#E0E0E0"/>
<path d="M228.81 37.552H65.5839L64.7245 34.7119H227.95L228.81 37.552Z" fill="#E0E0E0"/>
<path d="M228.81 42.2327H65.5839L64.7245 39.3926H227.95L228.81 42.2327Z" fill="#E0E0E0"/>
<path d="M228.81 46.9182H65.5839L64.7245 44.0781H227.95L228.81 46.9182Z" fill="#E0E0E0"/>
<path d="M228.81 51.6033H65.5839L64.7245 48.7632H227.95L228.81 51.6033Z" fill="#E0E0E0"/>
<path d="M228.81 56.2888H65.5839L64.7245 53.4487H227.95L228.81 56.2888Z" fill="#E0E0E0"/>
<path d="M422.543 31.7456H353.909V154.1H422.543V31.7456Z" fill="#E6E6E6"/>
<path d="M392.57 38.2083C391.536 38.1979 390.528 37.8818 389.674 37.2998C388.819 36.7178 388.155 35.8958 387.767 34.9375C387.378 33.9791 387.282 32.9272 387.49 31.9142C387.698 30.9013 388.201 29.9725 388.936 29.2449C389.671 28.5173 390.605 28.0234 391.62 27.8254C392.635 27.6275 393.686 27.7343 394.64 28.1323C395.594 28.5304 396.41 29.202 396.983 30.0626C397.557 30.9231 397.863 31.9341 397.863 32.9683C397.849 34.3628 397.285 35.6955 396.294 36.6767C395.303 37.6579 393.965 38.2083 392.57 38.2083ZM392.57 28.6715C391.744 28.6818 390.938 28.9364 390.256 29.4033C389.573 29.8701 389.044 30.5284 388.735 31.2952C388.426 32.0621 388.35 32.9032 388.518 33.7129C388.685 34.5226 389.089 35.2646 389.677 35.8457C390.265 36.4267 391.012 36.8208 391.824 36.9783C392.636 37.1359 393.476 37.0499 394.239 36.7311C395.002 36.4123 395.653 35.8751 396.112 35.1869C396.57 34.4987 396.815 33.6903 396.815 32.8635C396.815 32.3085 396.705 31.7591 396.491 31.2471C396.277 30.735 395.963 30.2705 395.569 29.8806C395.174 29.4906 394.705 29.1829 394.191 28.9754C393.676 28.7678 393.125 28.6645 392.57 28.6715Z" fill="#E0E0E0"/>
<path d="M429.963 31.7456H359.076V154.1H429.963V31.7456Z" fill="#F0F0F0"/>
<path d="M424.031 148.158V37.6777L365.018 37.6777V148.158H424.031Z" fill="#FAFAFA"/>
<path d="M424.031 148.158V37.6777H423.298V148.158H424.031Z" fill="#E0E0E0"/>
<path d="M371.788 197.611C371.788 197.611 372.522 209.946 400.556 209.946C428.59 209.946 429.313 197.611 429.313 197.611H371.788Z" fill="#E6E6E6"/>
<path d="M315.092 219.628H286.46V337.549H315.092V219.628Z" fill="#E6E6E6"/>
<path d="M441.554 337.551H291.963V343.116H441.554V337.551Z" fill="#E6E6E6"/>
<path d="M315.092 337.551H447.045V219.63H315.092V337.551Z" fill="#F5F5F5"/>
<path d="M326.347 292.988H435.79V264.189H326.347V292.988Z" fill="#E6E6E6"/>
<path d="M326.347 327.049H435.79V298.25H326.347V327.049Z" fill="#E6E6E6"/>
<path d="M397.433 267.347H364.704C364.181 267.347 363.68 267.139 363.311 266.77C362.941 266.4 362.734 265.899 362.734 265.377C362.734 264.853 362.941 264.351 363.31 263.98C363.679 263.609 364.18 263.399 364.704 263.396H397.433C397.956 263.399 398.457 263.609 398.827 263.98C399.196 264.351 399.403 264.853 399.403 265.377C399.403 265.899 399.196 266.4 398.826 266.77C398.457 267.139 397.955 267.347 397.433 267.347Z" fill="#F5F5F5"/>
<path d="M326.347 258.928H435.79V230.129H326.347V258.928Z" fill="#E6E6E6"/>
<path d="M397.433 233.295H364.704C364.18 233.292 363.679 233.082 363.31 232.711C362.941 232.34 362.734 231.838 362.734 231.314C362.734 230.791 362.941 230.29 363.311 229.921C363.68 229.551 364.181 229.344 364.704 229.344H397.433C397.955 229.344 398.457 229.551 398.826 229.921C399.196 230.29 399.403 230.791 399.403 231.314C399.403 231.838 399.196 232.34 398.827 232.711C398.457 233.082 397.956 233.292 397.433 233.295Z" fill="#F5F5F5"/>
<path d="M397.433 301.403H364.704C364.18 301.4 363.679 301.19 363.31 300.819C362.941 300.448 362.734 299.946 362.734 299.422C362.734 298.9 362.941 298.399 363.311 298.029C363.68 297.66 364.181 297.452 364.704 297.452H397.433C397.955 297.452 398.457 297.66 398.826 298.029C399.196 298.399 399.403 298.9 399.403 299.422C399.403 299.946 399.196 300.448 398.827 300.819C398.457 301.19 397.956 301.4 397.433 301.403Z" fill="#F5F5F5"/>
<path d="M450.86 209.947H315.092V219.631H450.86V209.947Z" fill="#EBEBEB"/>
<path d="M282.457 219.641H315.092V209.958H282.457V219.641Z" fill="#E0E0E0"/>
<path d="M297.485 209.947H325.938V175.845H297.485V209.947Z" fill="#E6E6E6"/>
<path d="M376.431 175.853H325.938V209.954H376.431V175.853Z" fill="#FAFAFA"/>
<path d="M362.828 193.878C362.828 196.32 357.588 198.29 351.185 198.29C344.782 198.29 339.552 196.288 339.552 193.878C339.552 191.468 344.792 189.466 351.206 189.466C357.62 189.466 362.828 191.415 362.828 193.878Z" fill="white"/>
<g style="mix-blend-mode:multiply" opacity="0.7">
<path d="M297.485 182.551H376.724V180.214H297.485V182.551Z" fill="#E0E0E0"/>
</g>
<path d="M295.903 181.21H325.928V174.44H295.903V181.21Z" fill="#E6E6E6"/>
<path d="M377.992 174.427H325.938V181.197H377.992V174.427Z" fill="#FAFAFA"/>
<path d="M182.184 192.896H73.7162L80.4863 343.116H188.954L182.184 192.896Z" fill="#E6E6E6"/>
<path d="M183.756 192.896H75.2881L82.0582 343.116H190.526L183.756 192.896Z" fill="#FAFAFA"/>
<path d="M99.2037 343.118H127.657V309.016H99.2037V343.118Z" fill="#E0E0E0"/>
<path d="M263.876 309.014H127.667V343.116H263.876V309.014Z" fill="#F0F0F0"/>
<g style="mix-blend-mode:multiply" opacity="0.7">
<path d="M99.2041 315.721H264.17V313.384H99.2041V315.721Z" fill="#E0E0E0"/>
</g>
<path d="M97.6423 314.368H127.667V307.598H97.6423V314.368Z" fill="#E0E0E0"/>
<path d="M265.448 307.602H127.667V314.372H265.448V307.602Z" fill="#F0F0F0"/>
<path d="M122.794 307.602H159.82V245.99H122.794V307.602Z" fill="#E6E6E6"/>
<path d="M252.327 245.987H159.809V307.599H252.327V245.987Z" fill="#EBEBEB"/>
<g style="mix-blend-mode:multiply" opacity="0.7">
<path d="M122.784 254.706L252.715 254.706V251.667L122.784 251.667V254.706Z" fill="#E0E0E0"/>
</g>
<path d="M120.751 252.949H159.82V238.947H120.751V252.949Z" fill="#E6E6E6"/>
<path d="M254.37 238.944H159.809V252.945H254.37V238.944Z" fill="#EBEBEB"/>
<path d="M81.5448 343.117C95.9973 343.117 107.713 331.401 107.713 316.948C107.713 302.496 95.9973 290.78 81.5448 290.78C67.0923 290.78 55.3762 302.496 55.3762 316.948C55.3762 331.401 67.0923 343.117 81.5448 343.117Z" fill="#F0F0F0"/>
<g style="mix-blend-mode:multiply" opacity="0.7">
<path d="M68.7278 301.341C70.2789 299.727 70.9077 297.799 70.1112 297.045C69.3147 296.29 67.4178 296.971 65.8668 298.585C64.3157 300.199 63.6869 302.127 64.4729 302.892C65.2589 303.657 67.1663 302.966 68.7278 301.341Z" fill="#E0E0E0"/>
</g>
<g style="mix-blend-mode:multiply" opacity="0.7">
<path d="M79.6483 296.435C81.8491 296.016 83.4735 294.8 83.2639 293.721C83.0543 292.642 81.1051 292.107 78.8938 292.537C76.6825 292.966 75.0791 294.172 75.2782 295.251C75.4773 296.331 77.3951 296.865 79.6483 296.435Z" fill="#E0E0E0"/>
</g>
<g style="mix-blend-mode:multiply" opacity="0.7">
<path d="M77.3632 305.576C79.4592 304.832 80.832 303.176 80.3709 301.877C79.9098 300.577 77.8243 300.127 75.7073 300.829C73.5903 301.531 72.2489 303.229 72.6996 304.528C73.1502 305.828 75.2462 306.32 77.3632 305.576Z" fill="#E0E0E0"/>
</g>
<path d="M262 390.44C374.222 390.44 465.197 385.129 465.197 378.577C465.197 372.025 374.222 366.713 262 366.713C149.777 366.713 58.8032 372.025 58.8032 378.577C58.8032 385.129 149.777 390.44 262 390.44Z" fill="#F5F5F5"/>
<path d="M321.987 59.147H201.383C192.921 59.147 186.062 66.0068 186.062 74.4687V363.245C186.062 371.707 192.921 378.567 201.383 378.567H321.987C330.449 378.567 337.309 371.707 337.309 363.245V74.4687C337.309 66.0068 330.449 59.147 321.987 59.147Z" fill="#008037"/>
<path opacity="0.7" d="M321.987 59.147H201.383C192.921 59.147 186.062 66.0068 186.062 74.4687V363.245C186.062 371.707 192.921 378.567 201.383 378.567H321.987C330.449 378.567 337.309 371.707 337.309 363.245V74.4687C337.309 66.0068 330.449 59.147 321.987 59.147Z" fill="white"/>
<path d="M326.033 58.6021H205.429C196.967 58.6021 190.107 65.4618 190.107 73.9238V362.7C190.107 371.162 196.967 378.022 205.429 378.022H326.033C334.495 378.022 341.354 371.162 341.354 362.7V73.9238C341.354 65.4618 334.495 58.6021 326.033 58.6021Z" fill="#008037"/>
<path d="M271.631 363.947C271.633 365.298 271.234 366.618 270.485 367.742C269.736 368.865 268.671 369.741 267.424 370.259C266.177 370.777 264.804 370.913 263.48 370.65C262.155 370.387 260.939 369.737 259.984 368.782C259.029 367.827 258.379 366.611 258.116 365.286C257.853 363.962 257.989 362.589 258.507 361.342C259.025 360.095 259.901 359.03 261.024 358.281C262.148 357.532 263.468 357.133 264.819 357.135C266.625 357.135 268.358 357.853 269.636 359.13C270.913 360.408 271.631 362.141 271.631 363.947Z" fill="#008037"/>
<path opacity="0.4" d="M271.631 363.947C271.633 365.298 271.234 366.618 270.485 367.742C269.736 368.865 268.671 369.741 267.424 370.259C266.177 370.777 264.804 370.913 263.48 370.65C262.155 370.387 260.939 369.737 259.984 368.782C259.029 367.827 258.379 366.611 258.116 365.286C257.853 363.962 257.989 362.589 258.507 361.342C259.025 360.095 259.901 359.03 261.024 358.281C262.148 357.532 263.468 357.133 264.819 357.135C266.625 357.135 268.358 357.853 269.636 359.13C270.913 360.408 271.631 362.141 271.631 363.947Z" fill="black"/>
<path d="M340.139 353.959H189.646V79.4668H341.187L340.139 353.959Z" fill="#008037"/>
<path opacity="0.8" d="M341.47 353.816L189.562 353.994V79.4917L341.334 79.3345L341.47 353.816Z" fill="white"/>
<path opacity="0.33" d="M178.191 84.0669H177.143V97.9215H178.191V84.0669Z" fill="#008037"/>
<path opacity="0.33" d="M178.191 101.77H177.143V106.108H178.191V101.77Z" fill="#008037"/>
<path d="M308.636 90.8286H204.244C198.491 90.8286 193.827 95.4925 193.827 101.246V163.56C193.827 169.313 198.491 173.977 204.244 173.977H308.636C314.389 173.977 319.053 169.313 319.053 163.56V101.246C319.053 95.4925 314.389 90.8286 308.636 90.8286Z" fill="white"/>
<path opacity="0.27" d="M218.359 122.83C225.423 119.876 228.756 111.755 225.802 104.69C222.848 97.6252 214.727 94.2925 207.662 97.2464C200.597 100.2 197.264 108.322 200.218 115.387C203.172 122.452 211.294 125.784 218.359 122.83Z" fill="#B0B0B0"/>
<path d="M224.461 110.04C224.469 111.944 223.993 113.82 223.077 115.489C221.748 117.942 219.568 119.824 216.948 120.783C214.328 121.741 211.448 121.709 208.849 120.694C206.251 119.678 204.113 117.748 202.838 115.266C201.563 112.785 201.238 109.923 201.924 107.219C202.611 104.515 204.261 102.155 206.565 100.582C208.87 99.0097 211.669 98.333 214.438 98.6794C217.206 99.0259 219.752 100.372 221.598 102.464C223.444 104.556 224.462 107.25 224.461 110.04Z" fill="white"/>
<path opacity="0.27" d="M223.077 115.475C222.095 117.287 220.642 118.8 218.871 119.854C217.1 120.908 215.078 121.465 213.017 121.465C210.956 121.465 208.933 120.908 207.162 119.854C205.391 118.8 203.938 117.287 202.956 115.475C205.934 113.487 209.435 112.425 213.017 112.425C216.598 112.425 220.099 113.487 223.077 115.475Z" fill="#B0B0B0"/>
<path opacity="0.27" d="M213.016 111.198C215.829 111.198 218.11 108.918 218.11 106.105C218.11 103.292 215.829 101.012 213.016 101.012C210.203 101.012 207.923 103.292 207.923 106.105C207.923 108.918 210.203 111.198 213.016 111.198Z" fill="#B0B0B0"/>
<path d="M311.371 181.657H201.509C197.267 181.657 193.827 185.097 193.827 189.339V203.078C193.827 207.321 197.267 210.76 201.509 210.76H311.371C315.614 210.76 319.053 207.321 319.053 203.078V189.339C319.053 185.097 315.614 181.657 311.371 181.657Z" fill="white"/>
<path opacity="0.6" d="M340.338 213.579L355.146 254.388C355.528 255.455 355.472 256.63 354.991 257.657C354.51 258.684 353.643 259.479 352.579 259.869L274.89 288.05C273.824 288.432 272.65 288.378 271.624 287.899C270.597 287.42 269.802 286.555 269.409 285.492L254.601 244.673C254.217 243.607 254.272 242.432 254.753 241.406C255.234 240.381 256.103 239.588 257.169 239.202L334.857 211.011C335.925 210.629 337.1 210.685 338.126 211.166C339.153 211.647 339.948 212.514 340.338 213.579Z" fill="#008037"/>
<path d="M337.991 211.106L315.783 247.649C313.727 251.038 310.574 253.622 306.848 254.973C303.122 256.325 299.046 256.362 295.295 255.08L254.821 241.267C255.309 240.295 256.148 239.546 257.169 239.171L334.857 210.98C335.88 210.625 336.999 210.67 337.991 211.106Z" fill="#008037"/>
<path opacity="0.5" d="M337.991 211.106L315.783 247.649C313.727 251.038 310.574 253.622 306.848 254.973C303.122 256.325 299.046 256.362 295.295 255.08L254.821 241.267C255.309 240.295 256.148 239.546 257.169 239.171L334.857 210.98C335.88 210.625 336.999 210.67 337.991 211.106Z" fill="white"/>
<path opacity="0.6" d="M315.972 283.721L315.259 320.485C315.237 321.444 314.837 322.355 314.146 323.021C313.455 323.686 312.529 324.052 311.57 324.037L241.574 322.675C241.1 322.666 240.631 322.563 240.196 322.372C239.761 322.181 239.368 321.907 239.039 321.564C238.71 321.222 238.452 320.818 238.279 320.375C238.106 319.933 238.022 319.461 238.032 318.986L238.734 282.222C238.747 281.725 238.86 281.236 239.067 280.784C239.275 280.331 239.571 279.926 239.939 279.592C240.621 278.982 241.509 278.653 242.423 278.67L312.419 280.021C313.38 280.044 314.293 280.445 314.959 281.138C315.625 281.831 315.989 282.76 315.972 283.721Z" fill="#008037"/>
<path d="M314.871 281.049L286.198 303.182C283.539 305.233 280.26 306.315 276.902 306.25C273.545 306.186 270.31 304.978 267.732 302.826L239.992 279.592C240.674 278.982 241.561 278.653 242.475 278.67L312.471 280.021C313.371 280.054 314.226 280.42 314.871 281.049Z" fill="#008037"/>
<path opacity="0.5" d="M314.871 281.049L286.198 303.182C283.539 305.233 280.26 306.315 276.902 306.25C273.545 306.186 270.31 304.978 267.732 302.826L239.992 279.592C240.674 278.982 241.561 278.653 242.475 278.67L312.471 280.021C313.371 280.054 314.226 280.42 314.871 281.049Z" fill="white"/>
<path d="M245.368 67.249C245.37 66.7728 245.514 66.3078 245.78 65.9128C246.046 65.5178 246.423 65.2104 246.864 65.0296C247.304 64.8488 247.789 64.8025 248.255 64.8967C248.722 64.9909 249.151 65.2213 249.487 65.5588C249.823 65.8963 250.051 66.3258 250.144 66.7931C250.236 67.2604 250.187 67.7445 250.005 68.1843C249.822 68.6242 249.513 69 249.117 69.2644C248.721 69.5288 248.255 69.6699 247.779 69.6699C247.461 69.6699 247.147 69.6072 246.854 69.4854C246.561 69.3637 246.295 69.1852 246.071 68.9602C245.847 68.7353 245.669 68.4683 245.549 68.1747C245.428 67.881 245.367 67.5665 245.368 67.249Z" fill="#008037"/>
<path d="M256.11 64.8364H276.137C276.776 64.8392 277.387 65.094 277.838 65.5455C278.29 65.9969 278.545 66.6084 278.548 67.2468C278.548 67.8871 278.294 68.5012 277.842 68.9549C277.39 69.4086 276.777 69.6649 276.137 69.6677H256.11C255.47 69.6649 254.857 69.4086 254.405 68.9549C253.953 68.5012 253.699 67.8871 253.699 67.2468C253.702 66.6084 253.957 65.9969 254.408 65.5455C254.86 65.094 255.471 64.8392 256.11 64.8364Z" fill="#008037"/>
<path opacity="0.4" d="M245.368 67.249C245.37 66.7728 245.514 66.3078 245.78 65.9128C246.046 65.5178 246.423 65.2104 246.864 65.0296C247.304 64.8488 247.789 64.8025 248.255 64.8967C248.722 64.9909 249.151 65.2213 249.487 65.5588C249.823 65.8963 250.051 66.3258 250.144 66.7931C250.236 67.2604 250.187 67.7445 250.005 68.1843C249.822 68.6242 249.513 69 249.117 69.2644C248.721 69.5288 248.255 69.6699 247.779 69.6699C247.461 69.6699 247.147 69.6072 246.854 69.4854C246.561 69.3637 246.295 69.1852 246.071 68.9602C245.847 68.7353 245.669 68.4683 245.549 68.1747C245.428 67.881 245.367 67.5665 245.368 67.249Z" fill="black"/>
<path opacity="0.4" d="M256.11 64.8364H276.137C276.776 64.8392 277.387 65.094 277.838 65.5455C278.29 65.9969 278.545 66.6084 278.548 67.2468C278.548 67.8871 278.294 68.5012 277.842 68.9549C277.39 69.4086 276.777 69.6649 276.137 69.6677H256.11C255.47 69.6649 254.857 69.4086 254.405 68.9549C253.953 68.5012 253.699 67.8871 253.699 67.2468C253.702 66.6084 253.957 65.9969 254.408 65.5455C254.86 65.094 255.471 64.8392 256.11 64.8364Z" fill="black"/>
<path d="M341.564 113.399H331.577C329.256 113.399 327.374 115.281 327.374 117.602V148.025C327.374 150.346 329.256 152.228 331.577 152.228H341.564C343.885 152.228 345.767 150.346 345.767 148.025V117.602C345.767 115.281 343.885 113.399 341.564 113.399Z" fill="#008037"/>
<path opacity="0.8" d="M341.564 113.399H331.577C329.256 113.399 327.374 115.281 327.374 117.602V148.025C327.374 150.346 329.256 152.228 331.577 152.228H341.564C343.885 152.228 345.767 150.346 345.767 148.025V117.602C345.767 115.281 343.885 113.399 341.564 113.399Z" fill="white"/>
<path d="M342.612 163.435H330.529C328.787 163.435 327.374 164.847 327.374 166.59V182.184C327.374 183.926 328.787 185.338 330.529 185.338H342.612C344.354 185.338 345.767 183.926 345.767 182.184V166.59C345.767 164.847 344.354 163.435 342.612 163.435Z" fill="#008037"/>
<path opacity="0.8" d="M342.612 163.435H330.529C328.787 163.435 327.374 164.847 327.374 166.59V182.184C327.374 183.926 328.787 185.338 330.529 185.338H342.612C344.354 185.338 345.767 183.926 345.767 182.184V166.59C345.767 164.847 344.354 163.435 342.612 163.435Z" fill="white"/>
<path d="M208.531 346.282L216.233 347.026L224.251 328.696L216.548 327.942L208.531 346.282Z" fill="#E4897B"/>
<path d="M130.339 290.142L134.73 296.797L151.561 288.759L147.16 282.094L130.339 290.142Z" fill="#E4897B"/>
<path d="M224.251 328.696L220.122 338.149H212.083L216.537 327.942L224.251 328.696Z" fill="#CE6F64"/>
<path d="M147.16 282.103L151.551 288.757L142.884 292.897L138.482 286.242L147.16 282.103Z" fill="#CE6F64"/>
<path d="M295.148 158.681L295.399 159.247L295.724 159.907C295.934 160.347 296.175 160.798 296.416 161.248C296.909 162.139 297.464 163.04 297.988 163.9C299.092 165.659 300.306 167.346 301.625 168.951C302.966 170.54 304.397 172.052 305.911 173.478C306.697 174.17 307.462 174.883 308.279 175.574L309.505 176.539L309.788 176.769C309.655 176.728 309.518 176.7 309.38 176.685C309.076 176.654 308.769 176.701 308.489 176.822C308.318 176.871 308.165 176.97 308.049 177.105C307.975 177.209 308.164 177.042 308.321 176.769C308.736 176.005 309.063 175.196 309.296 174.359C309.871 172.323 310.323 170.255 310.648 168.165C311.004 166.006 311.298 163.795 311.528 161.584C311.759 159.372 312 157.119 312.209 154.918L316.255 154.855C316.506 157.193 316.611 159.467 316.705 161.793C316.8 164.12 316.758 166.425 316.705 168.783C316.613 171.208 316.336 173.622 315.877 176.004C315.612 177.377 315.186 178.713 314.609 179.987C314.191 180.888 313.616 181.707 312.911 182.407C312.366 182.921 311.725 183.323 311.025 183.592C310.209 183.897 309.333 184.005 308.468 183.906C307.766 183.814 307.085 183.601 306.456 183.277C306.204 183.151 305.959 183.011 305.722 182.858L305.324 182.596L303.794 181.548C302.746 180.856 301.824 180.091 300.87 179.326C298.984 177.752 297.216 176.043 295.578 174.212C293.952 172.365 292.457 170.408 291.103 168.354C290.432 167.306 289.814 166.258 289.216 165.21C288.923 164.654 288.64 164.109 288.367 163.533L287.969 162.642C287.833 162.328 287.728 162.076 287.56 161.647L295.148 158.681Z" fill="#E4897B"/>
<path d="M298.69 164.099L291.648 173.814L294.561 176.675L302.054 167.662L298.69 164.099Z" fill="#F5F5F5"/>
<path d="M287.645 151.283C295.578 153.379 301.048 164.509 301.048 164.509L291.889 177.347C291.889 177.347 280.864 163.482 281.147 159.101C281.419 154.511 282.866 149.994 287.645 151.283Z" fill="#008037"/>
<path opacity="0.7" d="M287.645 151.283C295.578 153.379 301.048 164.509 301.048 164.509L291.889 177.347C291.889 177.347 280.864 163.482 281.147 159.101C281.419 154.511 282.866 149.994 287.645 151.283Z" fill="white"/>
<path d="M294.488 155.379C294.488 155.379 297.097 158.46 266.894 195.014L238.944 178.644C246.07 167.546 250.189 160.535 258.416 134C262.81 135.478 267.09 137.275 271.222 139.376C275.607 141.585 279.85 144.066 283.924 146.806C289.08 150.495 294.488 155.379 294.488 155.379Z" fill="#008037"/>
<path opacity="0.7" d="M294.488 155.379C294.488 155.379 297.097 158.46 266.894 195.014L238.944 178.644C246.07 167.546 250.189 160.535 258.416 134C262.81 135.478 267.09 137.275 271.222 139.376C275.607 141.585 279.85 144.066 283.924 146.806C289.08 150.495 294.488 155.379 294.488 155.379Z" fill="white"/>
<path d="M290.861 152.226C288.891 150.591 286.365 148.569 283.924 146.808C279.871 144.034 275.626 141.551 271.222 139.378C268.749 138.089 266.212 136.957 264.054 136.098C263.708 136.674 263.991 138.435 265.049 141.013C269.073 146.2 278.422 153.84 286.219 155.36C289.845 154.836 290.977 153.683 290.861 152.226Z" fill="#F5F5F5"/>
<path d="M265.05 141.013C267.398 146.246 270.525 151.094 274.324 155.391C278.279 155.786 282.264 155.786 286.219 155.391C278.422 153.84 269.074 146.2 265.05 141.013Z" fill="#F5F5F5"/>
<path d="M266.925 195.016C266.925 195.016 267.376 266.825 254.643 287.554C241.396 309.112 224.125 335.406 224.125 335.406L209.17 334.683C209.17 334.683 226.609 295.781 233.19 277.724C242.255 252.834 246.447 183.027 246.447 183.027L266.925 195.016Z" fill="#008037"/>
<path opacity="0.4" d="M266.925 195.016C266.925 195.016 267.376 266.825 254.643 287.554C241.396 309.112 224.125 335.406 224.125 335.406L209.17 334.683C209.17 334.683 226.609 295.781 233.19 277.724C242.255 252.834 246.447 183.027 246.447 183.027L266.925 195.016Z" fill="black"/>
<path opacity="0.2" d="M251.016 197.019C248.595 199.073 246.512 201.495 244.844 204.197C244.372 209.542 243.796 215.547 243.135 221.835C247.694 215.642 251.299 204.774 251.016 197.019Z" fill="black"/>
<path d="M259.537 190.731C259.537 190.731 227.898 235.648 208.185 259.899C192.255 279.444 146.144 293.435 146.144 293.435L140.516 284.003C140.516 284.003 177.196 263.525 188.137 250.299C223.161 207.96 222.721 186.004 238.986 178.763L259.537 190.731Z" fill="#008037"/>
<path opacity="0.4" d="M259.537 190.731C259.537 190.731 227.898 235.648 208.185 259.899C192.255 279.444 146.144 293.435 146.144 293.435L140.516 284.003C140.516 284.003 177.196 263.525 188.137 250.299C223.161 207.96 222.721 186.004 238.986 178.763L259.537 190.731Z" fill="black"/>
<path d="M312.304 155.903L310.208 147.519L318.204 149.846C318.204 149.846 317.984 155.484 315.217 157.318L312.304 155.903Z" fill="#E4897B"/>
<path d="M312.754 140.792L318.372 143.632L318.236 149.888L310.239 147.562L312.754 140.792Z" fill="#E4897B"/>
<path d="M212.304 143.872L204.968 139.366L212.304 135.446C212.304 135.446 216.066 139.638 215.374 142.887L212.304 143.872Z" fill="#E4897B"/>
<path d="M202.064 132.754L208.069 130.868L212.345 135.447L204.978 139.367L202.064 132.754Z" fill="#E4897B"/>
<path d="M136.575 296.098L133.965 287.526C133.92 287.379 133.822 287.253 133.691 287.173C133.56 287.092 133.405 287.061 133.253 287.085L126.179 288.133C126.002 288.167 125.834 288.237 125.686 288.34C125.538 288.443 125.413 288.576 125.32 288.73C125.227 288.884 125.168 289.057 125.146 289.236C125.124 289.415 125.14 289.596 125.194 289.768C126.158 292.734 126.766 294.128 127.919 297.89C128.621 300.217 129.847 305.446 130.821 308.653C131.796 311.86 135.013 311.064 134.898 309.638C134.364 303.267 135.412 300.007 136.491 297.482C136.675 297.043 136.705 296.556 136.575 296.098Z" fill="#813405"/>
<path d="M217.26 344.649H207.828C207.658 344.65 207.493 344.707 207.359 344.811C207.224 344.915 207.128 345.061 207.084 345.225L204.988 352.719C204.937 352.895 204.928 353.081 204.962 353.261C204.996 353.442 205.073 353.611 205.185 353.756C205.298 353.902 205.443 354.018 205.609 354.096C205.775 354.175 205.957 354.212 206.141 354.207C209.453 354.154 211.067 353.966 215.227 353.966C217.784 353.966 224.408 354.228 227.939 354.228C231.471 354.228 232.131 350.727 230.696 350.413C224.271 348.998 220.582 347.038 218.602 345.173C218.237 344.834 217.758 344.647 217.26 344.649Z" fill="#813405"/>
<path d="M239.499 176.759L236.774 178.53C236.565 178.666 236.68 179.002 237.005 179.19L266.349 196.346C266.601 196.493 266.884 196.493 266.988 196.346L268.707 193.988C268.822 193.82 268.707 193.548 268.414 193.391L240.118 176.822C240.031 176.754 239.927 176.713 239.817 176.702C239.708 176.691 239.598 176.71 239.499 176.759Z" fill="#92542E"/>
<path d="M256.12 146.022C254.14 147.605 252.253 148.883 250.252 150.214C248.25 151.545 246.217 152.687 244.121 153.819C239.915 156.121 235.487 157.993 230.906 159.405C230.34 159.604 229.732 159.741 229.155 159.898C228.579 160.055 228.024 160.212 227.332 160.359C225.83 160.696 224.281 160.774 222.752 160.589C221.131 160.397 219.572 159.853 218.183 158.996C216.891 158.18 215.759 157.136 214.84 155.915C213.288 153.753 212.177 151.307 211.57 148.716C211.26 147.521 211.035 146.306 210.899 145.079C210.733 143.856 210.652 142.624 210.658 141.39L214.682 141.044C215.168 143.09 215.823 145.092 216.642 147.028C217.355 148.802 218.389 150.429 219.692 151.828C220.159 152.355 220.73 152.781 221.367 153.081C222.005 153.38 222.698 153.546 223.402 153.568C224.142 153.562 224.876 153.446 225.582 153.222C226.493 152.929 227.562 152.593 228.537 152.237C232.571 150.72 236.472 148.873 240.201 146.714C242.109 145.666 243.932 144.461 245.777 143.297C247.621 142.134 249.434 140.824 251.017 139.629L256.12 146.022Z" fill="#E4897B"/>
<path d="M243.157 143.277L246.783 154.239L250.189 152.195L247.003 141.328L243.157 143.277Z" fill="#F5F5F5"/>
<path d="M137.382 300.592C137.206 300.59 137.033 300.543 136.879 300.456C136.009 299.932 135.768 298.077 135.695 297.018C135.694 296.982 135.704 296.946 135.722 296.914C135.741 296.883 135.768 296.857 135.8 296.84C135.832 296.823 135.868 296.813 135.904 296.813C135.941 296.813 135.977 296.823 136.009 296.84C136.261 297.05 138.462 298.936 138.325 299.921C138.311 300.035 138.266 300.142 138.196 300.232C138.126 300.323 138.033 300.392 137.927 300.435C137.761 300.53 137.574 300.584 137.382 300.592ZM136.114 297.448C136.25 298.863 136.596 299.848 137.068 300.131C137.176 300.188 137.296 300.217 137.419 300.217C137.541 300.217 137.662 300.188 137.77 300.131C137.917 300.057 137.948 299.974 137.948 299.9C138.021 299.366 136.973 298.223 136.114 297.448Z" fill="#010101"/>
<path d="M138.703 298.316C137.627 298.224 136.602 297.816 135.758 297.142C135.741 297.116 135.732 297.085 135.732 297.053C135.732 297.022 135.741 296.991 135.758 296.964C135.765 296.933 135.781 296.903 135.803 296.88C135.825 296.856 135.853 296.838 135.883 296.828C135.978 296.828 138.179 296.136 139.164 296.744C139.288 296.818 139.395 296.918 139.477 297.037C139.558 297.157 139.612 297.293 139.635 297.436C139.678 297.58 139.67 297.735 139.613 297.874C139.556 298.013 139.453 298.128 139.321 298.201C139.127 298.289 138.915 298.329 138.703 298.316ZM136.292 297.09C137.099 297.645 138.598 298.138 139.09 297.866C139.164 297.866 139.258 297.74 139.216 297.499C139.201 297.409 139.166 297.324 139.113 297.249C139.06 297.175 138.992 297.113 138.912 297.069C138.058 296.804 137.142 296.811 136.292 297.09Z" fill="#010101"/>
<path d="M221.452 346.21C220.581 346.193 219.713 346.084 218.864 345.885C218.826 345.875 218.791 345.854 218.765 345.824C218.739 345.794 218.722 345.757 218.717 345.717C218.717 345.678 218.728 345.64 218.748 345.607C218.768 345.573 218.798 345.546 218.832 345.529C219.461 345.225 222.689 343.768 223.548 344.345C223.631 344.403 223.696 344.482 223.736 344.575C223.777 344.667 223.792 344.768 223.779 344.869C223.775 345.045 223.73 345.218 223.648 345.374C223.566 345.53 223.45 345.666 223.307 345.77C222.75 346.105 222.101 346.259 221.452 346.21ZM219.524 345.634C220.572 345.822 222.333 346.032 223.077 345.466C223.178 345.395 223.26 345.301 223.316 345.191C223.373 345.082 223.402 344.96 223.402 344.837C223.408 344.805 223.405 344.771 223.394 344.74C223.383 344.708 223.364 344.681 223.339 344.659C222.867 344.345 220.928 345.015 219.524 345.634Z" fill="#010101"/>
<path d="M218.906 345.884C218.869 345.899 218.828 345.899 218.791 345.884C218.762 345.864 218.74 345.834 218.728 345.8C218.717 345.767 218.717 345.73 218.728 345.696C218.728 345.549 219.545 342.122 221.432 342.363C221.924 342.416 222.05 342.667 222.082 342.856C222.207 343.757 220.048 345.476 218.938 345.916L218.906 345.884ZM221.264 342.688C220.132 342.688 219.451 344.522 219.168 345.35C220.216 344.753 221.746 343.39 221.673 342.866C221.673 342.782 221.558 342.72 221.358 342.699L221.264 342.688Z" fill="#010101"/>
<path d="M241.448 182.155L240.693 181.715C240.547 181.621 240.473 181.474 240.536 181.39L242.8 178.341C242.863 178.257 243.041 178.257 243.188 178.341L243.953 178.791C244.099 178.875 244.173 179.022 244.11 179.106L241.846 182.155C241.783 182.239 241.605 182.239 241.448 182.155Z" fill="#008037"/>
<path d="M264.033 195.373L263.278 194.922C263.131 194.838 263.058 194.692 263.121 194.608L265.385 191.558C265.448 191.474 265.626 191.474 265.772 191.558L266.537 191.998C266.684 192.092 266.758 192.239 266.684 192.323L264.431 195.373C264.368 195.457 264.19 195.457 264.033 195.373Z" fill="#008037"/>
<path d="M252.746 188.761L251.981 188.321C251.834 188.237 251.761 188.09 251.834 187.996L254.087 184.957C254.161 184.863 254.328 184.863 254.486 184.957L255.24 185.397C255.397 185.481 255.46 185.628 255.397 185.722L253.134 188.761C253.071 188.856 252.893 188.856 252.746 188.761Z" fill="#008037"/>
<path opacity="0.4" d="M241.448 182.155L240.693 181.715C240.547 181.621 240.473 181.474 240.536 181.39L242.8 178.341C242.863 178.257 243.041 178.257 243.188 178.341L243.953 178.791C244.099 178.875 244.173 179.022 244.11 179.106L241.846 182.155C241.783 182.239 241.605 182.239 241.448 182.155Z" fill="black"/>
<path opacity="0.4" d="M264.033 195.373L263.278 194.922C263.131 194.838 263.058 194.692 263.121 194.608L265.385 191.558C265.448 191.474 265.626 191.474 265.772 191.558L266.537 191.998C266.684 192.092 266.758 192.239 266.684 192.323L264.431 195.373C264.368 195.457 264.19 195.457 264.033 195.373Z" fill="black"/>
<path opacity="0.4" d="M252.746 188.761L251.981 188.321C251.834 188.237 251.761 188.09 251.834 187.996L254.087 184.957C254.161 184.863 254.328 184.863 254.486 184.957L255.24 185.397C255.397 185.481 255.46 185.628 255.397 185.722L253.134 188.761C253.071 188.856 252.893 188.856 252.746 188.761Z" fill="black"/>
<path d="M273.716 141.472C273.716 135.184 271.62 110.441 281.933 108.345C285.192 104.908 301.342 104.551 303.815 113.292C307.085 124.767 302.243 152.77 302.243 152.77L273.716 141.472Z" fill="#263238"/>
<path d="M304.391 152.833C304.357 152.829 304.323 152.819 304.293 152.802C304.263 152.785 304.236 152.762 304.215 152.735C304.193 152.707 304.177 152.676 304.168 152.643C304.159 152.609 304.156 152.574 304.161 152.54C304.161 152.257 307.567 124.244 303.804 113.156C302.756 110.117 299.843 107.989 295.525 107.151C289.908 106.05 283.829 107.423 282.142 109.373C282.093 109.421 282.027 109.448 281.959 109.448C281.89 109.448 281.824 109.421 281.775 109.373C281.727 109.322 281.7 109.254 281.7 109.184C281.7 109.114 281.727 109.046 281.775 108.995C283.746 106.711 290.359 105.568 295.661 106.606C300.168 107.476 303.249 109.75 304.339 112.957C308.133 124.181 304.748 152.288 304.716 152.571C304.715 152.611 304.706 152.65 304.688 152.686C304.671 152.721 304.646 152.753 304.615 152.778C304.584 152.803 304.548 152.821 304.509 152.83C304.47 152.84 304.43 152.841 304.391 152.833Z" fill="#263238"/>
<path d="M280.864 125.825C279.281 130.373 275.697 138.327 271.243 139.375C271.243 139.375 269.933 144.175 277.531 148.619C285.915 153.502 283.945 146.806 283.945 146.806C280.026 143.054 282.111 139.742 284.762 137.038L280.864 125.825Z" fill="#E4897B"/>
<path d="M282.435 130.395L284.741 137.029C284.117 137.655 283.546 138.332 283.033 139.052C281.44 137.783 279.732 134.692 280.612 132.764C281.073 131.871 281.691 131.069 282.435 130.395Z" fill="#CE6F64"/>
<path d="M280.926 116.76C278.757 124.379 277.677 127.555 280.098 132.7C283.735 140.455 293.555 141.451 297.914 134.639C301.876 128.508 304.747 117.085 298.501 111.583C297.132 110.365 295.474 109.515 293.685 109.115C291.897 108.714 290.035 108.776 288.277 109.294C286.518 109.812 284.921 110.769 283.635 112.075C282.349 113.382 281.417 114.994 280.926 116.76Z" fill="#E4897B"/>
<path d="M278.694 121.558C284.112 123.581 296.845 116.863 300.314 112.745C300.775 106.394 285.883 108.899 285.883 108.899C285.883 108.899 277.94 106.457 278.694 121.558Z" fill="#263238"/>
<path d="M277.405 123.078C277.052 124.567 277.305 126.135 278.107 127.438C279.155 129.156 281.083 128.486 281.922 126.788C282.676 125.237 283.022 122.46 281.398 121.338C281.037 121.1 280.622 120.956 280.191 120.919C279.76 120.882 279.326 120.953 278.93 121.126C278.533 121.299 278.186 121.568 277.92 121.909C277.654 122.249 277.477 122.651 277.405 123.078Z" fill="#E4897B"/>
<path d="M291.501 122.828C291.281 123.436 291.427 124.044 291.826 124.18C292.224 124.316 292.716 123.939 292.936 123.331C293.156 122.723 292.999 122.126 292.601 121.979C292.203 121.833 291.71 122.22 291.501 122.828Z" fill="#263238"/>
<path d="M298.355 125.25C298.145 125.858 298.292 126.455 298.69 126.602C299.089 126.749 299.581 126.361 299.791 125.753C300 125.145 299.854 124.538 299.466 124.401C299.078 124.265 298.575 124.642 298.355 125.25Z" fill="#263238"/>
<path d="M299.277 124.37L300.881 124.464C300.881 124.464 299.728 125.344 299.277 124.37Z" fill="#263238"/>
<path d="M296.175 125.65C296.231 127.223 296.499 128.781 296.971 130.283C296.585 130.396 296.177 130.423 295.779 130.361C295.38 130.3 295 130.151 294.666 129.926L296.175 125.65Z" fill="#DE5753"/>
<path d="M291.752 131.58H291.689C290.867 131.313 290.12 130.853 289.511 130.238C288.902 129.624 288.449 128.873 288.189 128.048C288.179 127.998 288.189 127.946 288.216 127.904C288.244 127.861 288.286 127.83 288.336 127.817C288.36 127.811 288.385 127.81 288.41 127.815C288.434 127.819 288.458 127.828 288.478 127.842C288.499 127.856 288.517 127.874 288.53 127.895C288.543 127.916 288.552 127.94 288.556 127.964C288.81 128.723 289.236 129.412 289.802 129.977C290.367 130.543 291.057 130.97 291.815 131.223C291.857 131.238 291.893 131.267 291.915 131.306C291.938 131.344 291.947 131.389 291.939 131.434C291.931 131.478 291.909 131.517 291.874 131.546C291.84 131.575 291.797 131.59 291.752 131.59V131.58Z" fill="#263238"/>
<path d="M291.197 120.429C291.112 120.43 291.029 120.402 290.961 120.35C290.894 120.299 290.846 120.225 290.825 120.143C290.805 120.06 290.813 119.973 290.848 119.896C290.883 119.818 290.943 119.755 291.019 119.716C291.54 119.422 292.123 119.256 292.721 119.232C293.319 119.208 293.914 119.327 294.456 119.58C294.505 119.6 294.549 119.63 294.586 119.668C294.623 119.706 294.651 119.752 294.669 119.802C294.686 119.852 294.694 119.905 294.69 119.957C294.686 120.01 294.671 120.062 294.645 120.108C294.62 120.155 294.586 120.196 294.544 120.228C294.502 120.26 294.453 120.283 294.402 120.296C294.351 120.308 294.297 120.31 294.245 120.3C294.193 120.29 294.143 120.27 294.1 120.24C293.666 120.048 293.193 119.961 292.72 119.987C292.246 120.012 291.785 120.149 291.375 120.387C291.32 120.416 291.259 120.43 291.197 120.429Z" fill="#263238"/>
<path d="M302.704 123.205C302.621 123.205 302.541 123.177 302.477 123.125C302.412 123.074 302.367 123.002 302.348 122.922C302.242 122.461 302.03 122.031 301.728 121.666C301.426 121.302 301.042 121.014 300.608 120.826C300.513 120.792 300.435 120.723 300.39 120.634C300.345 120.544 300.337 120.44 300.367 120.344C300.382 120.296 300.407 120.252 300.44 120.214C300.473 120.176 300.513 120.146 300.558 120.124C300.603 120.103 300.652 120.091 300.702 120.089C300.752 120.087 300.802 120.095 300.849 120.113C301.403 120.341 301.895 120.699 302.281 121.157C302.668 121.615 302.939 122.159 303.071 122.744C303.083 122.792 303.086 122.842 303.079 122.891C303.072 122.941 303.056 122.988 303.031 123.031C303.005 123.074 302.972 123.111 302.932 123.141C302.892 123.171 302.847 123.193 302.798 123.205H302.704Z" fill="#263238"/>
<path d="M292.391 121.961L293.995 122.055C293.995 122.055 292.873 122.925 292.391 121.961Z" fill="#263238"/>
<path d="M258.437 134C255.135 133.214 244.98 140.949 244.98 140.949L249.288 154.688C249.288 154.688 259.904 148.809 260.889 144.48C261.864 139.995 262.199 134.902 258.437 134Z" fill="#008037"/>
<path opacity="0.7" d="M258.437 134C255.135 133.214 244.98 140.949 244.98 140.949L249.288 154.688C249.288 154.688 259.904 148.809 260.889 144.48C261.864 139.995 262.199 134.902 258.437 134Z" fill="white"/>
<path d="M379.376 46.5732H301.614C298.279 46.5732 295.08 47.8982 292.722 50.2567C290.363 52.6151 289.038 55.8139 289.038 59.1492V83.2532C289.038 86.5886 290.363 89.7874 292.722 92.1458C295.08 94.5043 298.279 95.8292 301.614 95.8292H308.112V108.196L320.478 95.8292H379.376C382.711 95.8292 385.91 94.5043 388.268 92.1458C390.627 89.7874 391.952 86.5886 391.952 83.2532V59.1492C391.952 55.8139 390.627 52.6151 388.268 50.2567C385.91 47.8982 382.711 46.5732 379.376 46.5732Z" fill="white"/>
<path opacity="0.3" d="M379.376 46.5732H301.614C298.279 46.5732 295.08 47.8982 292.722 50.2567C290.363 52.6151 289.038 55.8139 289.038 59.1492V83.2532C289.038 86.5886 290.363 89.7874 292.722 92.1458C295.08 94.5043 298.279 95.8292 301.614 95.8292H308.112V108.196L320.478 95.8292H379.376C382.711 95.8292 385.91 94.5043 388.268 92.1458C390.627 89.7874 391.952 86.5886 391.952 83.2532V59.1492C391.952 55.8139 390.627 52.6151 388.268 50.2567C385.91 47.8982 382.711 46.5732 379.376 46.5732Z" fill="black"/>
<g opacity="0.54">
<path opacity="0.54" d="M377.552 56.5898H303.417C301.825 56.5898 300.535 57.8802 300.535 59.4718C300.535 61.0635 301.825 62.3538 303.417 62.3538H377.552C379.144 62.3538 380.434 61.0635 380.434 59.4718C380.434 57.8802 379.144 56.5898 377.552 56.5898Z" fill="#F5F5F5"/>
</g>
<g opacity="0.54">
<path opacity="0.54" d="M377.542 73.8135H330.026C329.259 73.8108 328.525 73.5052 327.983 72.9633C327.442 72.4215 327.136 71.6873 327.133 70.9211C327.136 70.1557 327.442 69.4227 327.984 68.8825C328.526 68.3424 329.26 68.0391 330.026 68.0391H377.542C378.306 68.0391 379.039 68.3427 379.58 68.8832C380.12 69.4237 380.424 70.1567 380.424 70.9211C380.424 71.6864 380.121 72.4205 379.581 72.9627C379.04 73.5048 378.307 73.8108 377.542 73.8135Z" fill="#F5F5F5"/>
</g>
<g opacity="0.54">
<path opacity="0.54" d="M315.92 73.8135H303.417C302.652 73.8108 301.919 73.5048 301.378 72.9627C300.838 72.4205 300.535 71.6864 300.535 70.9211C300.535 70.1567 300.839 69.4237 301.379 68.8832C301.92 68.3427 302.653 68.0391 303.417 68.0391H315.92C316.684 68.0391 317.417 68.3427 317.957 68.8832C318.498 69.4237 318.802 70.1567 318.802 70.9211C318.802 71.6864 318.498 72.4205 317.958 72.9627C317.418 73.5048 316.685 73.8108 315.92 73.8135Z" fill="#F5F5F5"/>
</g>
<g opacity="0.54">
<path opacity="0.54" d="M359.034 85.254H303.417C302.653 85.254 301.92 84.9503 301.379 84.4099C300.839 83.8694 300.535 83.1363 300.535 82.372C300.535 81.6067 300.838 80.8725 301.378 80.3304C301.919 79.7882 302.652 79.4823 303.417 79.4795H359.034C359.8 79.4823 360.533 79.7882 361.073 80.3304C361.613 80.8725 361.916 81.6067 361.916 82.372C361.916 83.1363 361.613 83.8694 361.072 84.4099C360.532 84.9503 359.799 85.254 359.034 85.254Z" fill="#F5F5F5"/>
</g>
</svg>
