<svg width="14" height="17" viewBox="0 0 14 17" fill="none" xmlns="http://www.w3.org/2000/svg">
<path d="M7 3.643C6.3707 3.643 5.75552 3.82105 5.23228 4.15463C4.70903 4.48821 4.30121 4.96234 4.06038 5.51707C3.81956 6.07179 3.75655 6.6822 3.87932 7.27109C4.00209 7.85999 4.30513 8.40092 4.75011 8.82549C5.1951 9.25006 5.76205 9.53919 6.37926 9.65633C6.99647 9.77347 7.63623 9.71335 8.21763 9.48357C8.79903 9.2538 9.29596 8.86469 9.64559 8.36545C9.99521 7.86621 10.1818 7.27926 10.1818 6.67883C10.1797 5.87429 9.84382 5.10328 9.24757 4.53439C8.65131 3.96549 7.84323 3.645 7 3.643ZM7 8.50033C6.62242 8.50033 6.25331 8.3935 5.93937 8.19335C5.62542 7.9932 5.38072 7.70872 5.23623 7.37589C5.09174 7.04305 5.05393 6.67681 5.12759 6.32347C5.20125 5.97014 5.38308 5.64558 5.65007 5.39084C5.91706 5.13609 6.25723 4.96261 6.62755 4.89233C6.99788 4.82205 7.38174 4.85812 7.73058 4.99598C8.07942 5.13385 8.37758 5.36732 8.58735 5.66686C8.79712 5.9664 8.90909 6.31857 8.90909 6.67883C8.907 7.16131 8.70519 7.62345 8.34762 7.96462C7.99005 8.30578 7.50568 8.49833 7 8.50033ZM7 0C5.14413 0.00200876 3.36488 0.706314 2.05258 1.9584C0.74028 3.21049 0.00210536 4.90811 0 6.67883C0 9.06196 1.15341 11.5893 3.34091 13.98C4.32422 15.0629 5.42848 16.0402 6.63409 16.8944C6.74248 16.9633 6.86979 17 7 17C7.13022 17 7.25752 16.9633 7.36591 16.8944C8.57503 16.0415 9.68208 15.0641 10.667 13.98C12.8466 11.5893 14 9.06196 14 6.67883C13.9979 4.90811 13.2597 3.21049 11.9474 1.9584C10.6351 0.706314 8.85587 0.00200876 7 0ZM7 15.6345C5.6875 14.6479 1.27273 11.0201 1.27273 6.67883C1.27273 5.22956 1.87613 3.83964 2.95021 2.81485C4.02428 1.79006 5.48103 1.21433 7 1.21433C8.51897 1.21433 9.97572 1.79006 11.0498 2.81485C12.1239 3.83964 12.7273 5.22956 12.7273 6.67883C12.7273 11.0201 8.3125 14.6479 7 15.6345Z" fill="black"/>
</svg>
