<svg width="41" height="41" viewBox="0 0 41 41" fill="none" xmlns="http://www.w3.org/2000/svg">
<path d="M5.125 6.8335V1.7085H8.54167V6.8335H13.6667V10.2502H8.54167V15.3752H5.125V10.2502H0V6.8335H5.125ZM10.25 17.0835V11.9585H15.375V6.8335H27.3333L30.4596 10.2502H35.875C37.7542 10.2502 39.2917 11.7877 39.2917 13.6668V34.1668C39.2917 36.046 37.7542 37.5835 35.875 37.5835H8.54167C6.6625 37.5835 5.125 36.046 5.125 34.1668V17.0835H10.25ZM22.2083 32.4585C26.9233 32.4585 30.75 28.6318 30.75 23.9168C30.75 19.2018 26.9233 15.3752 22.2083 15.3752C17.4933 15.3752 13.6667 19.2018 13.6667 23.9168C13.6667 28.6318 17.4933 32.4585 22.2083 32.4585ZM16.7417 23.9168C16.7417 26.9406 19.1846 29.3835 22.2083 29.3835C25.2321 29.3835 27.675 26.9406 27.675 23.9168C27.675 20.8931 25.2321 18.4502 22.2083 18.4502C19.1846 18.4502 16.7417 20.8931 16.7417 23.9168Z" fill="#C4C4C4"/>
</svg>
