<svg width="448" height="352" viewBox="0 0 448 352" fill="none" xmlns="http://www.w3.org/2000/svg">
<path d="M448 309.331H0V309.568H448V309.331Z" fill="#E6E6E6"/>
<path d="M111.839 323.627H82.1631V323.863H111.839V323.627Z" fill="#E6E6E6"/>
<path d="M72.7729 323.627H55.5786V323.863H72.7729V323.627Z" fill="#E6E6E6"/>
<path d="M188.653 327.103H171.459V327.339H188.653V327.103Z" fill="#E6E6E6"/>
<path d="M278.307 332.377H239.608V332.613H278.307V332.377Z" fill="#E6E6E6"/>
<path d="M231.634 332.377H225.962V332.613H231.634V332.377Z" fill="#E6E6E6"/>
<path d="M406.202 327.103H322.265V327.339H406.202V327.103Z" fill="#E6E6E6"/>
<path d="M212.352 267.193H39.343C37.9877 267.191 36.6887 266.621 35.7312 265.61C34.7736 264.598 34.2358 263.227 34.2358 261.798V5.34764C34.2476 3.92667 34.7906 2.56798 35.7469 1.56671C36.7031 0.565431 37.9954 0.0024342 39.343 0H212.352C213.709 0 215.01 0.568388 215.969 1.58012C216.929 2.59186 217.468 3.96407 217.468 5.39488V261.798C217.468 263.229 216.929 264.601 215.969 265.613C215.01 266.625 213.709 267.193 212.352 267.193ZM39.343 0.188963C38.0471 0.191466 36.8051 0.736071 35.8896 1.70324C34.974 2.67041 34.4598 3.98111 34.4598 5.34764V261.798C34.4598 263.165 34.974 264.475 35.8896 265.443C36.8051 266.41 38.0471 266.954 39.343 266.957H212.352C213.648 266.954 214.891 266.41 215.808 265.443C216.725 264.476 217.241 263.166 217.244 261.798V5.34764C217.241 3.98024 216.725 2.66956 215.808 1.70266C214.891 0.735764 213.648 0.191461 212.352 0.188963H39.343Z" fill="#E6E6E6"/>
<path d="M406.165 267.193H233.148C231.792 267.191 230.492 266.621 229.533 265.61C228.574 264.599 228.034 263.228 228.032 261.798V5.34764C228.046 3.9258 228.591 2.56713 229.549 1.56611C230.506 0.565101 231.799 0.00240766 233.148 0H406.165C407.512 0.00491727 408.802 0.569013 409.756 1.57002C410.71 2.57103 411.252 3.9283 411.264 5.34764V261.798C411.264 263.226 410.727 264.595 409.772 265.606C408.816 266.617 407.519 267.188 406.165 267.193ZM233.148 0.188963C231.851 0.191461 230.608 0.735764 229.691 1.70266C228.774 2.66956 228.258 3.98024 228.256 5.34764V261.798C228.258 263.166 228.774 264.476 229.691 265.443C230.608 266.41 231.851 266.954 233.148 266.957H406.165C407.462 266.954 408.705 266.41 409.622 265.443C410.539 264.476 411.055 263.166 411.058 261.798V5.34764C411.055 3.98024 410.539 2.66956 409.622 1.70266C408.705 0.735764 407.462 0.191461 406.165 0.188963H233.148Z" fill="#E6E6E6"/>
<path d="M239.59 228.625H219.887V311.041H239.59V228.625Z" fill="#F6F6F6"/>
<path d="M235.845 311.042H239.591V299.817H231.921L235.845 311.042Z" fill="#FAFAFA"/>
<path d="M153.252 228.625H133.549V311.041H153.252V228.625Z" fill="#F6F6F6"/>
<path d="M239.591 228.625H149.991V304.153H239.591V228.625Z" fill="#FAFAFA"/>
<path d="M236.338 232.34V252.322H153.216V232.34H236.311H236.338ZM236.661 231.971H152.894V252.682H236.687V231.971H236.661Z" fill="#F6F6F6"/>
<path d="M153.727 311.042H149.991V299.817H157.652L153.727 311.042Z" fill="#FAFAFA"/>
<path d="M192.81 242.325C192.81 242.738 192.926 243.142 193.144 243.485C193.361 243.829 193.671 244.096 194.032 244.254C194.394 244.412 194.792 244.454 195.177 244.373C195.561 244.293 195.913 244.094 196.19 243.802C196.467 243.51 196.656 243.138 196.732 242.733C196.809 242.328 196.77 241.908 196.62 241.526C196.47 241.145 196.216 240.819 195.89 240.589C195.565 240.36 195.182 240.237 194.79 240.237C194.265 240.237 193.761 240.457 193.39 240.849C193.019 241.24 192.81 241.772 192.81 242.325Z" fill="#E6E6E6"/>
<path d="M236.338 256.395V276.377H153.216V256.395H236.311H236.338ZM236.661 256.036H152.894V276.746H236.687V256.045L236.661 256.036Z" fill="#F6F6F6"/>
<path d="M192.81 266.439C192.81 266.852 192.926 267.255 193.144 267.599C193.361 267.942 193.671 268.21 194.032 268.368C194.394 268.526 194.792 268.567 195.177 268.487C195.561 268.406 195.913 268.207 196.19 267.915C196.467 267.623 196.656 267.251 196.732 266.846C196.809 266.441 196.77 266.021 196.62 265.64C196.47 265.258 196.216 264.932 195.89 264.702C195.565 264.473 195.182 264.351 194.79 264.351C194.265 264.351 193.761 264.571 193.39 264.962C193.019 265.354 192.81 265.885 192.81 266.439Z" fill="#E6E6E6"/>
<path d="M236.338 280.459V300.451H153.216V280.459H236.311H236.338ZM236.661 280.09H152.894V300.81H236.687V280.09H236.661Z" fill="#F6F6F6"/>
<path d="M192.81 290.454C192.812 290.866 192.929 291.269 193.148 291.611C193.367 291.954 193.677 292.22 194.039 292.376C194.401 292.533 194.798 292.573 195.182 292.491C195.566 292.41 195.918 292.21 196.194 291.918C196.47 291.625 196.657 291.253 196.733 290.848C196.809 290.444 196.769 290.024 196.619 289.643C196.469 289.262 196.215 288.937 195.889 288.708C195.564 288.479 195.181 288.356 194.79 288.356C194.529 288.356 194.271 288.411 194.03 288.516C193.79 288.622 193.571 288.776 193.387 288.971C193.203 289.166 193.057 289.398 192.958 289.652C192.859 289.906 192.809 290.179 192.81 290.454Z" fill="#E6E6E6"/>
<path d="M141.219 180.762H121.516V311.052H141.219V180.762Z" fill="#F6F6F6"/>
<path d="M137.473 311.042H141.218V299.817H133.558L137.473 311.042Z" fill="#FAFAFA"/>
<path d="M67.5854 180.762H47.8823V311.052H67.5854V180.762Z" fill="#F6F6F6"/>
<path d="M141.219 180.762H64.3149V304.164H141.219V180.762Z" fill="#FAFAFA"/>
<path d="M137.904 184.239V212.177H67.6303V184.239H137.904ZM138.316 183.814H67.2002V212.583H138.298V183.823L138.316 183.814Z" fill="#F6F6F6"/>
<path d="M137.904 215.586V289.688H104.429V215.586H137.904ZM138.316 215.152H104.026V290.123H138.316V215.152Z" fill="#F6F6F6"/>
<path d="M101.105 215.586V289.688H67.6303V215.586H101.105ZM101.508 215.152H67.2002V290.123H101.49V215.152H101.508Z" fill="#F6F6F6"/>
<path d="M68.0602 311.042H64.3149V299.817H71.9847L68.0602 311.042Z" fill="#FAFAFA"/>
<path d="M100.782 198.222C100.78 198.637 100.896 199.044 101.113 199.39C101.331 199.736 101.641 200.006 102.004 200.167C102.367 200.327 102.767 200.37 103.154 200.29C103.54 200.21 103.896 200.011 104.175 199.718C104.454 199.425 104.644 199.051 104.722 198.644C104.799 198.237 104.76 197.815 104.61 197.431C104.46 197.047 104.205 196.719 103.877 196.488C103.55 196.257 103.165 196.134 102.771 196.134C102.245 196.134 101.741 196.354 101.368 196.745C100.995 197.136 100.785 197.667 100.782 198.222Z" fill="#E6E6E6"/>
<path d="M107.878 250.876C107.878 251.291 107.995 251.697 108.214 252.042C108.433 252.387 108.744 252.656 109.108 252.815C109.472 252.973 109.873 253.014 110.259 252.933C110.645 252.851 110.999 252.65 111.277 252.356C111.555 252.062 111.744 251.687 111.82 251.279C111.895 250.872 111.855 250.45 111.703 250.067C111.551 249.684 111.294 249.357 110.966 249.127C110.638 248.898 110.252 248.777 109.859 248.779C109.598 248.779 109.34 248.833 109.099 248.938C108.858 249.044 108.639 249.199 108.455 249.393C108.271 249.588 108.126 249.82 108.027 250.074C107.928 250.329 107.877 250.601 107.878 250.876Z" fill="#E6E6E6"/>
<path d="M93.6953 250.876C93.6971 251.289 93.8147 251.691 94.0334 252.034C94.2521 252.376 94.5619 252.642 94.9239 252.798C95.2859 252.955 95.6837 252.995 96.0673 252.913C96.4508 252.832 96.8028 252.632 97.0788 252.34C97.3548 252.047 97.5426 251.675 97.6182 251.27C97.6939 250.866 97.6542 250.446 97.5041 250.065C97.3539 249.684 97.1001 249.359 96.7747 249.13C96.4492 248.901 96.0667 248.779 95.6755 248.779C95.4147 248.779 95.1565 248.833 94.9156 248.938C94.6748 249.044 94.4561 249.199 94.2721 249.393C94.0881 249.588 93.9425 249.82 93.8435 250.074C93.7445 250.329 93.6942 250.601 93.6953 250.876Z" fill="#E6E6E6"/>
<path d="M91.4545 144.434H83.1486C83.914 148.683 84.3961 152.983 84.5912 157.302C84.5912 162.027 78.2654 180.762 87.2792 180.762C96.2929 180.762 89.9672 162.074 89.9672 157.302C90.1771 152.982 90.6741 148.682 91.4545 144.434Z" fill="#F6F6F6"/>
<path d="M59.8525 163.595V169.264C59.862 172.303 61.011 175.214 63.0489 177.363C65.0868 179.512 67.848 180.724 70.73 180.734H76.106C78.9879 180.724 81.7492 179.512 83.787 177.363C85.8249 175.214 86.974 172.303 86.9834 169.264V163.595H59.8525Z" fill="#F5F5F5"/>
<path d="M175.32 216.61C175.32 223.223 182.336 228.628 190.91 228.628H198.652C207.226 228.628 214.242 223.223 214.242 216.61H175.32Z" fill="#F6F6F6"/>
<path d="M345.315 206.057C340.62 210.101 334.133 217.499 328.201 227.911C324.241 234.846 321.858 242.083 320.809 251.701C320.809 240.836 320.872 229.168 320.908 218.151C322.1 215.317 324.823 208.779 326.777 203.62C333.291 186.396 335.737 182.154 341.588 167.301C349.41 147.46 357.42 123.972 355.126 125.852C350.449 129.679 332.529 165.062 330.594 170.126C325.318 183.641 322.057 197.935 320.926 212.501C320.926 202.108 320.998 192.66 321.033 185.328C321.159 161.415 321.544 153.696 321.732 151.315C322.458 150.106 323.309 148.698 323.811 147.942C328.022 141.517 329.644 136.056 333.604 126.476C339.231 112.918 344.07 88.8345 342.654 90.0439C336.758 95.1081 332.117 105.973 326.006 119.834C319.895 133.694 321.643 141.659 320.433 153.488C320.182 155.812 319.985 164.58 319.842 176.721C318.265 163.777 315.29 155.255 309.869 147.507C303.203 137.974 296.752 131.54 292.021 128.177C287.29 124.813 300.192 148.225 306.357 158.411C311.849 167.519 316.912 175.54 319.797 183.448C319.645 199.916 319.573 220.759 319.573 240.137C318.157 231.312 315.846 221.798 312.763 214.438C309.054 205.594 303.355 192.027 298.813 187.426C297.728 186.32 303.561 212.709 307.307 219.719C311.052 226.73 313.803 233.353 316.159 237.331C316.706 238.276 318.534 241.837 319.573 243.897C319.573 267.584 319.698 288.483 319.895 295.597H320.863C320.8 293.764 320.783 281.709 320.809 265.76C323.148 257.106 328.488 247.223 332.896 238.209C337.699 228.449 350.01 202.042 345.315 206.057Z" fill="#11AE55"/>
<path d="M334.41 310.187H306.33L304.206 281.162H336.534L334.41 310.187Z" fill="#C94320"/>
<path d="M338.622 284.544H302.11L301.07 274.746H339.67L338.622 284.544Z" fill="#C94320"/>
<path d="M111.337 19.3694H61.1162V77.5226H111.337V19.3694Z" fill="#F6F6F6"/>
<path d="M116.775 19.3694H64.897V77.5226H116.775V19.3694Z" fill="#F5F5F5"/>
<path d="M112.43 72.94V23.9514L69.243 23.9514V72.94H112.43Z" fill="white"/>
<path d="M101.956 61.0529V35.8169H79.7079V61.0529H101.956Z" fill="#F5F5F5"/>
<path d="M367.405 26.1433H320.75V80.1677H367.405V26.1433Z" fill="#F6F6F6"/>
<path d="M372.458 26.1433H324.271V80.1677H372.458V26.1433Z" fill="#F5F5F5"/>
<path d="M368.427 75.906V30.4038L328.313 30.4038V75.906H368.427Z" fill="white"/>
<path d="M348.365 66.3541C355.278 66.3541 360.882 60.4447 360.882 53.1551C360.882 45.8655 355.278 39.9561 348.365 39.9561C341.452 39.9561 335.848 45.8655 335.848 53.1551C335.848 60.4447 341.452 66.3541 348.365 66.3541Z" fill="#F5F5F5"/>
<path d="M163.511 54.0437H126.255V97.1839H163.511V54.0437Z" fill="#F6F6F6"/>
<path d="M167.543 54.0437H129.06V97.1839H167.543V54.0437Z" fill="#F5F5F5"/>
<path d="M164.317 93.7823V57.4448H132.285V93.7823H164.317Z" fill="white"/>
<path d="M148.306 66.4207L139.543 82.4258H157.069L148.306 66.4207Z" fill="#F5F5F5"/>
<path d="M223.999 352C319.945 352 397.725 347.211 397.725 341.305C397.725 335.398 319.945 330.609 223.999 330.609C128.053 330.609 50.2739 335.398 50.2739 341.305C50.2739 347.211 128.053 352 223.999 352Z" fill="#F5F5F5"/>
<path d="M219.412 14.7122H213.687V15.6853H219.412V14.7122Z" fill="#C7C7C7"/>
<path d="M293.527 53.2299L292.834 69.4453L293.756 69.4891L294.449 53.2737L293.527 53.2299Z" fill="#C7C7C7"/>
<path d="M291.747 19.0779H186.019L176.181 251.237H281.909L291.747 19.0779Z" fill="#C7C7C7"/>
<path opacity="0.56" d="M288.592 22.2708H182.864L173.026 254.43H278.754L288.592 22.2708Z" fill="#FAFAFA"/>
<path d="M273.405 126.71H183.159L182.407 144.473H272.652L273.405 126.71Z" fill="white"/>
<path d="M232.789 113.747H183.707L183.375 121.693H232.458L232.789 113.747Z" fill="#C7C7C7"/>
<path d="M271.372 174.649H181.127L180.374 192.412H270.619L271.372 174.649Z" fill="white"/>
<path opacity="0.47" d="M254.822 216.401H194.136L193.231 237.688H253.918L254.822 216.401Z" fill="#11AE55"/>
<path d="M250.764 240.995H190.078C190.051 241.002 190.023 241.002 189.997 240.995C189.988 240.967 189.988 240.937 189.997 240.91L190.893 219.614C190.893 219.599 190.896 219.585 190.901 219.571C190.907 219.558 190.915 219.546 190.925 219.536C190.935 219.527 190.947 219.519 190.96 219.515C190.973 219.51 190.987 219.508 191 219.51H251.686C251.698 219.504 251.71 219.501 251.722 219.501C251.735 219.501 251.747 219.504 251.758 219.51C251.764 219.521 251.768 219.534 251.768 219.547C251.768 219.561 251.764 219.574 251.758 219.585L250.88 240.929C250.869 240.951 250.852 240.969 250.832 240.981C250.811 240.993 250.787 240.997 250.764 240.995ZM190.185 240.768H250.656L251.552 219.699H191.081L190.185 240.768Z" fill="#008037"/>
<path d="M222.19 161.688H181.673L181.341 169.643H221.849L222.19 161.688Z" fill="#C7C7C7"/>
<path d="M253.666 69.3311C253.435 74.5006 251.691 79.4677 248.675 83.5506C246.443 86.6346 243.57 89.1382 240.277 90.8694C236.985 92.6005 233.36 93.5132 229.68 93.5372C226.707 93.5611 223.761 92.9429 221.023 91.7206C218.285 90.4983 215.813 88.6979 213.76 86.4302C211.706 84.1624 210.115 81.4755 209.084 78.5348C208.053 75.594 207.604 72.4619 207.764 69.3311C208.079 62.8346 210.736 56.7104 215.191 52.211C219.646 47.7115 225.563 45.1768 231.732 45.125C234.708 45.0958 237.657 45.7102 240.398 46.9304C243.14 48.1506 245.615 49.9505 247.671 52.2191C249.726 54.4877 251.319 57.1767 252.35 60.1199C253.381 63.0632 253.829 66.1981 253.666 69.3311Z" fill="white"/>
<path d="M255.826 50.1901C255.767 51.5647 255.304 52.8857 254.5 53.9694C253.905 54.7885 253.14 55.4535 252.264 55.9136C251.388 56.3737 250.425 56.6168 249.446 56.6243C248.498 56.6304 247.563 56.3916 246.723 55.9288C245.883 55.466 245.163 54.7933 244.626 53.9694C243.915 52.8561 243.563 51.5309 243.622 50.1901C243.709 48.4653 244.416 46.8402 245.6 45.6464C246.784 44.4525 248.355 43.7798 249.993 43.7654C250.783 43.7578 251.566 43.9209 252.294 44.2446C253.023 44.5684 253.68 45.0459 254.227 45.6478C254.773 46.2498 255.197 46.9633 255.472 47.7445C255.747 48.5257 255.867 49.358 255.826 50.1901Z" fill="#C7C7C7"/>
<path d="M192.882 135.593C192.838 136.354 192.523 137.07 192 137.596C191.476 138.122 190.782 138.419 190.059 138.427C189.71 138.432 189.364 138.36 189.041 138.218C188.719 138.076 188.428 137.865 188.187 137.6C187.945 137.334 187.757 137.019 187.635 136.674C187.514 136.328 187.46 135.961 187.479 135.593C187.517 134.83 187.831 134.111 188.356 133.585C188.881 133.058 189.577 132.762 190.301 132.758C190.65 132.755 190.996 132.828 191.317 132.97C191.639 133.113 191.929 133.324 192.171 133.589C192.412 133.855 192.6 134.169 192.722 134.514C192.844 134.858 192.899 135.225 192.882 135.593Z" fill="#263238"/>
<path d="M204.959 135.593C204.919 136.355 204.604 137.072 204.08 137.599C203.556 138.125 202.861 138.421 202.137 138.427C201.789 138.43 201.443 138.358 201.122 138.215C200.801 138.072 200.511 137.862 200.27 137.596C200.03 137.331 199.843 137.016 199.721 136.671C199.6 136.327 199.547 135.96 199.566 135.593C199.604 134.832 199.917 134.115 200.44 133.588C200.962 133.061 201.656 132.765 202.379 132.758C202.728 132.754 203.075 132.825 203.397 132.968C203.719 133.11 204.01 133.321 204.252 133.586C204.493 133.852 204.681 134.167 204.803 134.512C204.925 134.857 204.978 135.225 204.959 135.593Z" fill="#263238"/>
<path d="M217.047 135.593C217.006 136.355 216.691 137.072 216.167 137.599C215.643 138.125 214.948 138.421 214.224 138.427C213.875 138.43 213.53 138.358 213.208 138.215C212.887 138.073 212.596 137.862 212.355 137.597C212.113 137.331 211.925 137.017 211.803 136.672C211.681 136.328 211.627 135.96 211.644 135.593C211.685 134.831 211.999 134.114 212.523 133.587C213.048 133.061 213.742 132.764 214.466 132.758C214.815 132.754 215.162 132.825 215.484 132.968C215.806 133.11 216.097 133.321 216.339 133.586C216.581 133.852 216.768 134.167 216.89 134.512C217.012 134.857 217.065 135.225 217.047 135.593Z" fill="#263238"/>
<path d="M190.847 183.532C190.804 184.293 190.489 185.009 189.965 185.535C189.442 186.061 188.748 186.358 188.025 186.366C187.676 186.369 187.33 186.297 187.009 186.154C186.687 186.011 186.397 185.801 186.155 185.536C185.914 185.27 185.726 184.956 185.604 184.611C185.482 184.266 185.427 183.899 185.444 183.532C185.485 182.77 185.8 182.053 186.324 181.526C186.848 181 187.543 180.703 188.267 180.697C188.616 180.694 188.961 180.766 189.283 180.909C189.604 181.052 189.895 181.263 190.136 181.528C190.378 181.793 190.566 182.108 190.688 182.453C190.81 182.797 190.864 183.164 190.847 183.532Z" fill="#263238"/>
<path d="M202.926 183.532C202.885 184.292 202.572 185.008 202.049 185.534C201.527 186.061 200.835 186.358 200.112 186.366C199.763 186.371 199.417 186.299 199.095 186.157C198.773 186.015 198.482 185.804 198.24 185.539C197.998 185.273 197.81 184.958 197.689 184.613C197.567 184.267 197.513 183.9 197.532 183.532C197.573 182.77 197.887 182.053 198.412 181.526C198.936 181 199.63 180.703 200.354 180.697C200.703 180.694 201.048 180.766 201.369 180.909C201.69 181.052 201.98 181.263 202.221 181.529C202.462 181.794 202.649 182.109 202.77 182.453C202.891 182.798 202.944 183.165 202.926 183.532Z" fill="#263238"/>
<path d="M215.04 183.532C214.999 184.294 214.684 185.011 214.16 185.538C213.636 186.064 212.941 186.36 212.217 186.366C211.869 186.368 211.524 186.295 211.203 186.152C210.882 186.008 210.592 185.798 210.351 185.533C210.109 185.268 209.922 184.953 209.799 184.61C209.676 184.266 209.621 183.899 209.637 183.532C209.68 182.771 209.995 182.055 210.519 181.529C211.043 181.003 211.736 180.706 212.459 180.697C212.809 180.693 213.155 180.764 213.477 180.907C213.799 181.049 214.09 181.26 214.332 181.525C214.574 181.791 214.761 182.106 214.883 182.451C215.005 182.796 215.058 183.164 215.04 183.532Z" fill="#263238"/>
<path d="M227.1 183.532C227.057 184.293 226.742 185.009 226.218 185.535C225.694 186.061 225.001 186.358 224.277 186.366C223.929 186.368 223.584 186.295 223.263 186.152C222.942 186.008 222.652 185.798 222.411 185.533C222.169 185.267 221.982 184.953 221.859 184.609C221.736 184.266 221.681 183.899 221.697 183.532C221.74 182.77 222.055 182.055 222.579 181.529C223.103 181.003 223.796 180.706 224.519 180.697C224.868 180.694 225.214 180.766 225.535 180.909C225.857 181.052 226.147 181.263 226.389 181.528C226.631 181.793 226.818 182.108 226.94 182.453C227.063 182.797 227.117 183.164 227.1 183.532Z" fill="#263238"/>
<path d="M239.232 183.532C239.189 184.293 238.873 185.009 238.35 185.535C237.826 186.061 237.132 186.358 236.409 186.366C236.06 186.371 235.714 186.299 235.392 186.157C235.069 186.015 234.779 185.804 234.537 185.538C234.295 185.273 234.107 184.958 233.985 184.613C233.864 184.267 233.81 183.9 233.829 183.532C233.87 182.77 234.184 182.053 234.708 181.526C235.233 181 235.927 180.703 236.651 180.697C237 180.694 237.346 180.766 237.667 180.909C237.989 181.052 238.279 181.263 238.521 181.528C238.762 181.793 238.95 182.108 239.072 182.453C239.194 182.797 239.249 183.164 239.232 183.532Z" fill="#263238"/>
<path d="M237.398 68.071C241.149 64.2039 241.348 58.0052 237.843 54.226C234.338 50.4468 228.457 50.5181 224.706 54.3853C220.956 58.2525 220.757 64.4511 224.262 68.2303C227.767 72.0095 233.648 71.9382 237.398 68.071Z" fill="#C7C7C7"/>
<path d="M248.676 83.5514C246.443 86.6354 243.57 89.1391 240.278 90.8702C236.985 92.6014 233.36 93.514 229.68 93.5381C226.113 93.57 222.592 92.6757 219.43 90.9341C216.267 89.1925 213.559 86.6571 211.545 83.5514C215.9 78.9785 222.79 75.9929 230.424 75.9929C238.058 75.9929 244.706 78.9785 248.676 83.5514Z" fill="#C7C7C7"/>
<path opacity="0.1" d="M237.398 68.071C241.149 64.2039 241.348 58.0052 237.843 54.226C234.338 50.4468 228.457 50.5181 224.706 54.3853C220.956 58.2525 220.757 64.4511 224.262 68.2303C227.767 72.0095 233.648 71.9382 237.398 68.071Z" fill="white"/>
<path opacity="0.1" d="M248.676 83.5514C246.443 86.6354 243.57 89.1391 240.278 90.8702C236.985 92.6014 233.36 93.514 229.68 93.5381C226.113 93.57 222.592 92.6757 219.43 90.9341C216.267 89.1925 213.559 86.6571 211.545 83.5514C215.9 78.9785 222.79 75.9929 230.424 75.9929C238.058 75.9929 244.706 78.9785 248.676 83.5514Z" fill="white"/>
<path d="M116.847 148.752C115.996 150.717 115.1 152.881 114.32 154.979C113.541 157.076 112.743 159.24 112.054 161.394C110.645 165.639 109.572 170 108.846 174.432L108.649 175.821C108.63 176.059 108.651 176.299 108.711 176.53C108.923 177.313 109.256 178.053 109.697 178.722C110.848 180.451 112.182 182.036 113.675 183.446C115.249 184.989 116.9 186.443 118.621 187.801C120.342 189.2 122.151 190.56 123.935 191.845L122.259 195.161C118.001 193.205 113.96 190.762 110.208 187.877C108.206 186.337 106.399 184.534 104.832 182.51C103.903 181.306 103.178 179.941 102.69 178.476C102.407 177.561 102.262 176.604 102.26 175.642C102.26 175.415 102.26 175.084 102.26 174.924V174.461L102.35 173.516C102.864 168.593 103.845 163.738 105.28 159.022C105.979 156.698 106.722 154.383 107.574 152.125C108.425 149.867 109.303 147.656 110.387 145.36L116.847 148.752Z" fill="#E58A7B"/>
<path d="M122.671 191.261L129.006 187.878L127.366 195.21C127.366 195.21 123.02 196.495 121.004 194.265L122.671 191.261Z" fill="#E58A7B"/>
<path d="M134.804 189.078L133.119 195.144L127.367 195.21L129.006 187.878L134.804 189.078Z" fill="#E58A7B"/>
<path d="M143.745 113.379C144.084 114.689 144.555 115.956 145.152 117.159C144.977 117.367 144.753 117.522 144.502 117.607C144.252 117.691 143.984 117.703 143.727 117.64L143.745 113.379Z" fill="#DF5753"/>
<path d="M143.557 113.435C143.928 113.435 144.229 112.949 144.229 112.349C144.229 111.749 143.928 111.262 143.557 111.262C143.186 111.262 142.885 111.749 142.885 112.349C142.885 112.949 143.186 113.435 143.557 113.435Z" fill="#263238"/>
<path d="M143.36 111.299L144.722 110.892C144.722 110.892 144.059 112.007 143.36 111.299Z" fill="#263238"/>
<path d="M126.246 120.313C127.062 124.706 127.877 132.766 124.956 135.704C124.956 135.704 126.103 140.164 133.853 140.164C142.374 140.164 137.921 135.704 137.921 135.704C133.271 134.532 133.387 130.895 134.203 127.475L126.246 120.313Z" fill="#E58A7B"/>
<path d="M123.98 110.299C124.41 117.64 124.445 120.758 127.958 124.528C133.253 130.197 141.711 128.042 143.369 120.749C144.865 114.135 143.916 103.251 137.097 100.331C135.6 99.6809 133.971 99.4441 132.363 99.6431C130.756 99.8421 129.223 100.47 127.909 101.468C126.596 102.466 125.546 103.801 124.858 105.346C124.171 106.891 123.868 108.596 123.98 110.299Z" fill="#E58A7B"/>
<path d="M124.669 102.041C121.175 103.383 116.516 102.381 118.344 113.747C120.279 125.784 117.304 129.743 117.304 129.743C117.304 129.743 130.556 132.719 144.086 129.564C144.086 129.564 139.955 121.948 141.111 116.336C142.589 109.25 141.425 106.633 141.425 106.633C141.425 106.633 129.579 100.151 124.669 102.041Z" fill="#263238"/>
<path d="M139.453 114.124C139.457 115.52 139.836 116.886 140.546 118.064C141.496 119.594 142.616 119.008 142.894 117.383C143.145 115.957 142.956 113.434 141.747 112.451C140.537 111.469 139.471 112.432 139.453 114.124Z" fill="#E58A7B"/>
<path d="M121.632 103.278C120.628 100.302 125.413 95.7198 135.537 97.6094C145.662 99.499 146.101 108.39 146.101 108.39L144.058 105.82L144.148 108.522L133.745 110.629L121.632 103.278Z" fill="#263238"/>
<path d="M122.492 136.204C122.432 135.773 122.535 135.334 122.778 134.981C123.02 134.628 123.384 134.389 123.791 134.315C126.945 133.767 134.113 132.652 137.715 133.181C140.403 133.578 141.102 135.222 141.219 136.573C141.237 136.809 141.207 137.047 141.131 137.271C141.054 137.494 140.934 137.697 140.777 137.868C140.62 138.038 140.43 138.17 140.22 138.257C140.011 138.343 139.786 138.381 139.561 138.368L123.989 137.631C123.621 137.611 123.272 137.459 122.999 137.199C122.727 136.939 122.548 136.587 122.492 136.204Z" fill="#008037"/>
<path opacity="0.6" d="M122.492 136.204C122.432 135.773 122.535 135.334 122.778 134.981C123.02 134.628 123.384 134.389 123.791 134.315C126.945 133.767 134.113 132.652 137.715 133.181C140.403 133.578 141.102 135.222 141.219 136.573C141.237 136.809 141.207 137.047 141.131 137.271C141.054 137.494 140.934 137.697 140.777 137.868C140.62 138.038 140.43 138.17 140.22 138.257C140.011 138.343 139.786 138.381 139.561 138.368L123.989 137.631C123.621 137.611 123.272 137.459 122.999 137.199C122.727 136.939 122.548 136.587 122.492 136.204Z" fill="black"/>
<path d="M131.497 301.264L137.276 305.497L146.944 291.674L141.164 287.451L131.497 301.264Z" fill="#E58A7B"/>
<path d="M118.021 300.991L124.123 304.657L132.68 290.041L126.578 286.375L118.021 300.991Z" fill="#E58A7B"/>
<path d="M146.935 291.674L141.953 298.798L136.174 294.575L141.156 287.451L146.935 291.674Z" fill="#CF6F64"/>
<path d="M126.569 286.375L132.68 290.05L128.271 297.58L122.161 293.905L126.569 286.375Z" fill="#CF6F64"/>
<path d="M136.371 182.35C136.371 182.35 158.932 212.329 154.694 241.004C151.281 264.161 131.479 295.52 131.479 295.52L122.17 290.644C128.731 276.779 134.331 262.431 138.925 247.712C140.341 243.142 140.755 238.293 140.134 233.53C139.513 228.767 137.874 224.215 135.341 220.218C123.908 202.616 105.594 213.094 117.914 182.35H136.371Z" fill="#008037"/>
<path opacity="0.6" d="M136.371 182.35C136.371 182.35 158.932 212.329 154.694 241.004C151.281 264.161 131.479 295.52 131.479 295.52L122.17 290.644C128.731 276.779 134.331 262.431 138.925 247.712C140.341 243.142 140.755 238.293 140.134 233.53C139.513 228.767 137.874 224.215 135.341 220.218C123.908 202.616 105.594 213.094 117.914 182.35H136.371Z" fill="black"/>
<path opacity="0.4" d="M147.437 201.604L144.157 198.165C144.157 198.439 150.51 239.793 152.293 251.414C153.345 248.019 154.151 244.545 154.703 241.021C156.8 226.953 152.418 212.582 147.437 201.604Z" fill="black"/>
<path d="M146.442 182.35C146.442 182.35 173.609 220.029 174.379 242.619C175.016 261.516 144.811 298.127 144.811 298.127L136.031 292.137C136.031 292.137 153.709 266.136 158.162 244.896C156.442 223.846 120.064 182.35 120.064 182.35H146.442Z" fill="#008037"/>
<path opacity="0.6" d="M146.442 182.35C146.442 182.35 173.609 220.029 174.379 242.619C175.016 261.516 144.811 298.127 144.811 298.127L136.031 292.137C136.031 292.137 153.709 266.136 158.162 244.896C156.442 223.846 120.064 182.35 120.064 182.35H146.442Z" fill="black"/>
<path d="M112.833 137.386C109.93 138.113 107.144 149.243 107.144 149.243L118.496 157.236C118.496 157.236 122.277 148.431 120.951 144.576C119.58 140.56 116.48 136.469 112.833 137.386Z" fill="#008037"/>
<path opacity="0.2" d="M115.056 144.558L114.267 154.261L118.487 157.246C119.653 154.48 120.515 151.583 121.059 148.611L115.056 144.558Z" fill="black"/>
<path d="M149.802 137.604C149.802 137.604 153.153 138.842 146.442 182.341H117.895C118.379 170.058 118.388 162.5 112.833 137.387C116.83 136.518 120.882 135.956 124.956 135.705C129.272 135.379 133.605 135.379 137.921 135.705C143.494 136.244 149.802 137.604 149.802 137.604Z" fill="#008037"/>
<path d="M152.705 144.558C153.35 146.448 154.031 148.479 154.748 150.435C155.465 152.391 156.146 154.403 156.872 156.387L159.067 162.321L159.622 163.804L159.909 164.541L160.043 164.909C160.043 164.975 160.043 164.976 160.043 164.966C159.88 164.723 159.665 164.522 159.416 164.38C159.062 164.16 158.662 164.034 158.251 164.012C157.91 164.001 157.571 164.068 157.257 164.21C156.845 164.409 156.845 164.494 156.854 164.484C156.928 164.421 156.995 164.348 157.051 164.267C157.547 163.58 157.976 162.843 158.332 162.065C158.753 161.196 159.156 160.27 159.56 159.335C160.348 157.445 161.074 155.49 161.8 153.515C162.525 151.54 163.215 149.547 163.887 147.534L165.93 141.506L169.38 142.451C168.699 146.76 167.821 150.954 166.763 155.225C166.253 157.351 165.652 159.458 164.971 161.584C164.631 162.651 164.255 163.709 163.825 164.796C163.376 165.975 162.824 167.108 162.176 168.178C161.938 168.539 161.674 168.88 161.387 169.199C160.93 169.72 160.375 170.135 159.757 170.418C159.209 170.666 158.615 170.782 158.019 170.758C157.351 170.732 156.7 170.527 156.128 170.163C155.453 169.718 154.893 169.105 154.497 168.377C154.363 168.131 154.246 167.886 154.166 167.706L153.995 167.347L153.655 166.61L152.974 165.146C152.078 163.18 151.182 161.196 150.403 159.203C149.623 157.209 148.799 155.187 148.028 153.156C147.258 151.125 146.568 149.093 145.914 146.901L152.705 144.558Z" fill="#E58A7B"/>
<path d="M149.802 137.602C153.234 138.461 157.096 149.157 157.096 149.157L146.89 158.312C146.89 158.312 140.287 146.653 141.622 142.808C143.01 138.802 145.322 136.477 149.802 137.602Z" fill="#008037"/>
<path d="M167.552 138.123L171.136 134.967L173.626 139.058L171.79 142.469C171.79 142.469 168.869 145.303 166.288 143.858C165.879 142.887 165.78 141.802 166.008 140.767C166.236 139.732 166.778 138.804 167.552 138.123Z" fill="#E58A7B"/>
<path d="M177.605 134.976L177.336 136.006L171.664 137.008L171.109 134.967L177.605 134.976Z" fill="#E58A7B"/>
<path d="M145.511 298.608L135.278 291.635L137.115 288.272L148.611 295.726L145.511 298.608Z" fill="#008037"/>
<path d="M128.128 304.165C127.23 304.049 126.367 303.727 125.601 303.22C125.569 303.209 125.542 303.187 125.523 303.158C125.503 303.129 125.493 303.095 125.493 303.06C125.493 303.024 125.503 302.99 125.523 302.961C125.542 302.932 125.569 302.911 125.601 302.899C125.879 302.804 128.289 302.02 128.988 302.625C129.066 302.694 129.126 302.784 129.161 302.885C129.195 302.986 129.204 303.095 129.185 303.201C129.172 303.371 129.119 303.535 129.03 303.678C128.94 303.82 128.818 303.935 128.674 304.014C128.506 304.11 128.319 304.162 128.128 304.165ZM126.112 303.126C127.232 303.73 128.128 303.948 128.558 303.721C128.651 303.666 128.73 303.587 128.787 303.491C128.843 303.395 128.875 303.286 128.88 303.173C128.88 303.022 128.88 302.956 128.8 302.918C128.423 302.597 127.079 302.842 126.094 303.126H126.112Z" fill="#263238"/>
<path d="M125.664 303.286C125.617 303.285 125.571 303.265 125.538 303.229C125.525 303.203 125.518 303.174 125.518 303.144C125.518 303.115 125.525 303.085 125.538 303.059C125.538 302.974 126.121 300.924 127.035 300.461C127.151 300.405 127.278 300.376 127.407 300.376C127.535 300.376 127.662 300.405 127.778 300.461C127.904 300.503 128.013 300.588 128.088 300.703C128.163 300.817 128.199 300.955 128.191 301.094C128.128 301.944 126.488 303.116 125.736 303.314L125.664 303.286ZM127.402 300.707C127.315 300.709 127.229 300.732 127.151 300.773C126.596 301.056 126.139 302.162 125.915 302.832C126.703 302.483 127.787 301.557 127.823 301.037C127.823 300.952 127.823 300.848 127.617 300.754C127.55 300.716 127.477 300.69 127.402 300.678V300.707Z" fill="#263238"/>
<path d="M140.913 308.246C139.901 308.246 138.494 306.876 137.724 306.036C137.704 306.007 137.693 305.972 137.693 305.936C137.693 305.901 137.704 305.866 137.724 305.837C137.741 305.807 137.766 305.782 137.796 305.765C137.826 305.749 137.86 305.741 137.894 305.743C138.252 305.743 141.361 306.234 141.8 307.16C141.847 307.243 141.871 307.338 141.871 307.434C141.871 307.53 141.847 307.625 141.8 307.708C141.735 307.852 141.635 307.976 141.511 308.069C141.387 308.161 141.243 308.219 141.093 308.237L140.913 308.246ZM138.315 306.168C139.444 307.321 140.439 307.963 141.003 307.887C141.102 307.874 141.196 307.835 141.277 307.774C141.358 307.713 141.424 307.632 141.469 307.538C141.489 307.506 141.5 307.468 141.5 307.429C141.5 307.391 141.489 307.353 141.469 307.321C141.236 306.81 139.578 306.376 138.315 306.168Z" fill="#263238"/>
<path d="M138.414 306.121C138.213 306.127 138.012 306.111 137.814 306.074C137.786 306.069 137.76 306.057 137.738 306.039C137.716 306.021 137.699 305.997 137.688 305.97C137.675 305.942 137.668 305.911 137.668 305.88C137.668 305.849 137.675 305.818 137.688 305.79C137.742 305.724 138.952 304.184 140.099 304.08C140.423 304.054 140.745 304.162 140.995 304.382C141.344 304.704 141.326 304.987 141.236 305.167C141.012 305.809 139.462 306.121 138.414 306.121ZM138.181 305.771C139.185 305.828 140.788 305.478 140.995 305.015C140.995 305.015 141.066 304.864 140.833 304.656C140.741 304.571 140.632 304.507 140.515 304.468C140.398 304.429 140.275 304.416 140.152 304.43C139.38 304.657 138.692 305.129 138.181 305.781V305.771Z" fill="#263238"/>
<path d="M125.906 302.264L118.308 299.997C118.177 299.955 118.036 299.965 117.912 300.026C117.788 300.087 117.69 300.195 117.636 300.327L115.073 306.402C115.013 306.558 114.985 306.725 114.99 306.893C114.996 307.061 115.035 307.226 115.105 307.377C115.176 307.528 115.275 307.661 115.398 307.768C115.521 307.876 115.663 307.954 115.817 307.999C118.505 308.736 119.795 308.944 123.137 309.955C125.198 310.56 128.137 311.684 130.977 312.534C133.818 313.385 134.767 310.465 133.665 309.842C128.684 307.064 128.289 305.117 126.927 303.039C126.684 302.662 126.322 302.388 125.906 302.264Z" fill="#008037"/>
<path d="M137.93 304.929L131.443 300.205C131.333 300.121 131.197 300.082 131.062 300.096C130.926 300.109 130.801 300.175 130.708 300.281L126.407 305.156C126.303 305.282 126.224 305.43 126.178 305.59C126.132 305.751 126.118 305.92 126.139 306.086C126.159 306.252 126.213 306.412 126.296 306.554C126.379 306.697 126.491 306.819 126.622 306.913C128.907 308.529 130.09 309.181 132.948 311.269C134.74 312.554 138.208 315.407 140.627 317.183C143.046 318.96 144.847 316.522 143.987 315.558C140.134 311.222 139.292 308.501 138.656 306.035C138.545 305.587 138.288 305.196 137.93 304.929Z" fill="#008037"/>
<path d="M132.67 296.143L120.978 290.011L122.187 286.666L134.677 293.129L132.67 296.143Z" fill="#008037"/>
<path d="M117.465 180.573L116.48 183.294C116.381 183.502 116.614 183.719 116.946 183.719H146.585C146.845 183.719 147.06 183.587 147.078 183.417L147.329 180.715C147.329 180.535 147.123 180.375 146.845 180.375H117.931C117.844 180.366 117.757 180.38 117.675 180.414C117.594 180.449 117.522 180.503 117.465 180.573Z" fill="#008037"/>
<path opacity="0.4" d="M117.465 180.573L116.48 183.294C116.381 183.502 116.614 183.719 116.946 183.719H146.585C146.845 183.719 147.06 183.587 147.078 183.417L147.329 180.715C147.329 180.535 147.123 180.375 146.845 180.375H117.931C117.844 180.366 117.757 180.38 117.675 180.414C117.594 180.449 117.522 180.503 117.465 180.573Z" fill="white"/>
<path d="M122.133 183.985H121.354C121.201 183.985 121.085 183.9 121.094 183.796L121.461 180.291C121.461 180.197 121.604 180.112 121.757 180.112H122.536C122.689 180.112 122.805 180.197 122.796 180.291L122.429 183.796C122.42 183.9 122.285 183.985 122.133 183.985Z" fill="#008037"/>
<path d="M140.412 183.985H139.641C139.489 183.985 139.372 183.9 139.381 183.796L139.74 180.291C139.74 180.197 139.892 180.112 140.044 180.112H140.815C140.967 180.112 141.093 180.197 141.075 180.291L140.716 183.796C140.672 183.9 140.573 183.985 140.412 183.985Z" fill="#008037"/>
<g style="mix-blend-mode:multiply">
<path d="M121.453 343.99C134.71 343.99 145.456 343.169 145.456 342.157C145.456 341.144 134.71 340.324 121.453 340.324C108.196 340.324 97.4487 341.144 97.4487 342.157C97.4487 343.169 108.196 343.99 121.453 343.99Z" fill="#F5F5F5"/>
</g>
<path d="M136.076 339.568C131.829 338.265 127.116 336.592 124.267 334.844C124.186 334.788 124.097 334.759 124.016 334.712V314.436H132.609C133.261 314.396 133.874 314.094 134.322 313.592C134.77 313.091 135.02 312.428 135.02 311.739C135.02 311.05 134.77 310.387 134.322 309.886C133.874 309.384 133.261 309.082 132.609 309.041H124.061V216.62H118.9V309.041H110.361C110.012 309.02 109.663 309.073 109.335 309.199C109.006 309.325 108.706 309.52 108.452 309.773C108.198 310.025 107.995 310.33 107.857 310.668C107.718 311.006 107.647 311.371 107.647 311.739C107.647 312.107 107.718 312.472 107.857 312.81C107.995 313.148 108.198 313.453 108.452 313.705C108.706 313.958 109.006 314.153 109.335 314.279C109.663 314.405 110.012 314.458 110.361 314.436H118.9V334.684C118.819 334.684 118.738 334.759 118.658 334.816C115.764 336.592 111.087 338.265 106.84 339.54C106.553 339.632 106.306 339.828 106.145 340.095C105.984 340.361 105.919 340.68 105.961 340.993C106.003 341.305 106.15 341.592 106.375 341.8C106.601 342.009 106.889 342.125 107.189 342.129H135.727C136.013 342.108 136.284 341.985 136.495 341.779C136.705 341.573 136.842 341.297 136.883 340.998C136.924 340.698 136.866 340.393 136.719 340.133C136.572 339.872 136.345 339.673 136.076 339.568Z" fill="#6B6A6A"/>
<path d="M137.393 207.207H105.531C102.968 207.207 100.89 209.398 100.89 212.101V222.088C100.89 224.791 102.968 226.982 105.531 226.982H137.393C139.956 226.982 142.034 224.791 142.034 222.088V212.101C142.034 209.398 139.956 207.207 137.393 207.207Z" fill="#008037"/>
<path d="M105.235 226.993V228.713C105.235 230.13 106.695 231.283 108.487 231.283H134.471C136.263 231.283 137.724 230.13 137.724 228.713V226.993H105.235Z" fill="#008037"/>
<path opacity="0.3" d="M105.235 226.993V228.713C105.235 230.13 106.695 231.283 108.487 231.283H134.471C136.263 231.283 137.724 230.13 137.724 228.713V226.993H105.235Z" fill="white"/>
</svg>
