<svg width="141" height="51" viewBox="0 0 141 51" fill="none" xmlns="http://www.w3.org/2000/svg">
<path d="M44.6164 9.01543L37.3933 22.222L50.5644 27.2014C50.6021 26.6348 50.6209 26.065 50.6209 25.4889C50.6234 19.4533 48.4949 13.6137 44.6164 9.01543ZM26.0877 0C26.0877 11.1617 26.0877 22.3223 26.0877 33.4818V38.189L42.7321 6.95467C38.2232 2.64901 32.2963 0.172509 26.0877 0ZM0.207289 28.7842C0.964233 34.6845 3.74277 40.1328 8.06251 44.1871C12.3822 48.2413 17.9716 50.6467 23.8643 50.9872V47.6539L0.207289 28.7842ZM8.08667 6.82172C5.70121 9.05319 3.76486 11.7273 2.38362 14.6976L15.4385 19.7181L8.08667 6.82172ZM17.3259 23.0324L1.52314 16.7552C0.511783 19.5562 -0.00375082 22.5144 2.05428e-05 25.4952V25.5427L23.8674 44.5359V34.4821L17.3259 23.0324ZM10.1185 5.106L23.8643 29.5756C23.8643 19.7308 23.8643 9.88596 23.8643 0.0411535C18.8872 0.31615 14.1031 2.07451 10.1185 5.09334V5.106Z" fill="#008037"/>
<path d="M0 25.5489L23.8674 44.5421L0 25.5489Z" fill="white"/>
<path d="M23.8643 47.6539L0.207289 28.7842L23.8643 47.6539Z" fill="white"/>
<path d="M50.2944 29.6042C49.3477 35.4515 46.4118 40.7845 41.9905 44.6884C37.5691 48.5924 31.9379 50.8238 26.0627 51V42.9279L36.3665 24.112L50.2944 29.6042Z" fill="#008037"/>
<path d="M17.3258 23.0166L1.52314 16.7552L17.3258 23.0166Z" fill="white"/>
<path d="M64.2204 15.3728V8.37855H66.7141V23.6785H64.2204V17.799C63.1651 18.2798 62.052 18.5202 60.8811 18.5202C59.3488 18.5202 58.1128 18.0977 57.1732 17.2525C56.2335 16.3928 55.7637 15.2562 55.7637 13.8428V8.37855H58.2574V13.5805C58.2574 14.3674 58.4959 14.9867 58.9729 15.4384C59.45 15.8901 60.1005 16.116 60.9245 16.116C62.1388 16.116 63.2374 15.8682 64.2204 15.3728Z" fill="black"/>
<path d="M81.3482 23.6785H78.8545V13.2964L71.6988 23.6785H69.7473V8.37855H72.2409V18.7607L79.3966 8.37855H81.3482V23.6785Z" fill="black"/>
<path d="M91.557 23.9626C89.273 23.9626 87.3793 23.2049 85.8758 21.6895C84.3724 20.1449 83.6207 18.2579 83.6207 16.0285C83.6207 13.7845 84.3724 11.9048 85.8758 10.3894C87.3648 8.8594 89.2585 8.09441 91.557 8.09441C92.9303 8.09441 94.1952 8.42226 95.3517 9.07797C96.5226 9.73369 97.4334 10.6225 98.0839 11.7445L95.9155 13.0122C95.5107 12.2545 94.918 11.6571 94.1374 11.22C93.3712 10.7683 92.5111 10.5424 91.557 10.5424C89.9524 10.5424 88.6369 11.0597 87.6106 12.0943C86.6131 13.1142 86.1144 14.4257 86.1144 16.0285C86.1144 17.6314 86.6131 18.9428 87.6106 19.9628C88.6369 20.9974 89.9524 21.5147 91.557 21.5147C92.5111 21.5147 93.3785 21.2961 94.1591 20.8589C94.9397 20.4072 95.5252 19.8025 95.9155 19.0448L98.0839 20.2907C97.4623 21.3981 96.5588 22.2942 95.3734 22.9791C94.2314 23.6348 92.9592 23.9626 91.557 23.9626Z" fill="black"/>
<path d="M98.857 8.37855H109.916V10.7828H105.644V23.6785H103.15V10.7828H98.857V8.37855Z" fill="black"/>
<path d="M117.354 23.6785H111.76V8.37855H114.253V13.6242H117.354C118.785 13.6242 119.978 14.1124 120.932 15.0887C121.901 16.0504 122.385 17.238 122.385 18.6514C122.385 20.0648 121.901 21.2597 120.932 22.2359C119.978 23.1977 118.785 23.6785 117.354 23.6785ZM126.353 23.6785H123.859V8.37855H126.353V23.6785ZM114.253 15.9848V21.3179H117.354C118.091 21.3179 118.699 21.0702 119.176 20.5748C119.653 20.0648 119.891 19.4237 119.891 18.6514C119.891 17.8791 119.653 17.2452 119.176 16.7498C118.699 16.2398 118.091 15.9848 117.354 15.9848H114.253Z" fill="black"/>
<path d="M138.246 6.84855H132.175V4.79399H138.246V6.84855ZM141 23.6785H138.506V13.2964L131.351 23.6785H129.399V8.37855H131.893V18.7607L139.048 8.37855H141V23.6785Z" fill="black"/>
<path d="M56.089 30.2356H64.6541V32.6399H58.5826V45.5356H56.089V30.2356Z" fill="black"/>
<path d="M78.2184 43.5247C76.7005 45.0547 74.8429 45.8197 72.6456 45.8197C70.4483 45.8197 68.5835 45.0547 67.0512 43.5247C65.5333 41.9802 64.7744 40.1005 64.7744 37.8856C64.7744 35.6708 65.5333 33.7983 67.0512 32.2683C68.5835 30.7238 70.4483 29.9515 72.6456 29.9515C74.8429 29.9515 76.7005 30.7238 78.2184 32.2683C79.7507 33.7983 80.5169 35.6708 80.5169 37.8856C80.5169 40.1005 79.7507 41.9802 78.2184 43.5247ZM68.8076 41.8199C69.8629 42.8545 71.1422 43.3717 72.6456 43.3717C74.1635 43.3717 75.4356 42.8545 76.462 41.8199C77.5028 40.7707 78.0232 39.4593 78.0232 37.8856C78.0232 36.3119 77.5028 35.0078 76.462 33.9732C75.4356 32.9241 74.1635 32.3995 72.6456 32.3995C71.1278 32.3995 69.8484 32.9241 68.8076 33.9732C67.7812 35.0078 67.268 36.3119 67.268 37.8856C67.268 39.4448 67.7812 40.7562 68.8076 41.8199Z" fill="black"/>
<path d="M82.7915 30.2356H88.3859C89.8171 30.2356 91.0097 30.7165 91.9638 31.6782C92.9323 32.6399 93.4166 33.8348 93.4166 35.2628C93.4166 36.6762 92.9323 37.871 91.9638 38.8473C91.0097 39.809 89.8171 40.2899 88.3859 40.2899H85.2851V45.5356H82.7915V30.2356ZM85.2851 37.9293H88.3859C89.1232 37.9293 89.7303 37.6816 90.2074 37.1862C90.6844 36.6762 90.9229 36.035 90.9229 35.2628C90.9229 34.4905 90.6844 33.8566 90.2074 33.3612C89.7303 32.8512 89.1232 32.5962 88.3859 32.5962H85.2851V37.9293Z" fill="black"/>
<path d="M108.14 43.5247C106.622 45.0547 104.764 45.8197 102.567 45.8197C100.37 45.8197 98.5047 45.0547 96.9724 43.5247C95.4545 41.9802 94.6956 40.1005 94.6956 37.8856C94.6956 35.6708 95.4545 33.7983 96.9724 32.2683C98.5047 30.7238 100.37 29.9515 102.567 29.9515C104.764 29.9515 106.622 30.7238 108.14 32.2683C109.672 33.7983 110.438 35.6708 110.438 37.8856C110.438 40.1005 109.672 41.9802 108.14 43.5247ZM98.7288 41.8199C99.7841 42.8545 101.063 43.3717 102.567 43.3717C104.085 43.3717 105.357 42.8545 106.383 41.8199C107.424 40.7707 107.944 39.4593 107.944 37.8856C107.944 36.3119 107.424 35.0078 106.383 33.9732C105.357 32.9241 104.085 32.3995 102.567 32.3995C101.049 32.3995 99.7696 32.9241 98.7288 33.9732C97.7024 35.0078 97.1892 36.3119 97.1892 37.8856C97.1892 39.4448 97.7024 40.7562 98.7288 41.8199Z" fill="black"/>
<path d="M123.44 30.2356V43.1313H125.067V48.4644H122.573V45.5356H113.357V48.4644H110.864V43.1313H112.273C113.155 41.9802 113.596 40.2243 113.596 37.8638V30.2356H123.44ZM115.005 43.1313H120.947V32.5962H116.089V37.9075C116.089 40.1806 115.728 41.9219 115.005 43.1313Z" fill="black"/>
</svg>
