<svg width="185" height="66" viewBox="0 0 185 66" fill="none" xmlns="http://www.w3.org/2000/svg">
<path d="M58.5392 11.667L49.0622 28.7579L66.3433 35.2018C66.3928 34.4685 66.4175 33.7312 66.4175 32.9856C66.4207 25.1748 63.628 17.6178 58.5392 11.667ZM34.2286 0C34.2286 14.4445 34.2286 28.8877 34.2286 43.3294V49.421L56.0669 9.00017C50.1511 3.42813 42.3746 0.223246 34.2286 0ZM0.271975 37.2501C1.26513 44.8859 4.91073 51.9366 10.5785 57.1833C16.2462 62.4299 23.5798 65.5427 31.3113 65.9835V61.6698L0.271975 37.2501ZM10.6102 8.82811C7.48031 11.7159 4.93971 15.1764 3.12744 19.0204L20.2561 25.5175L10.6102 8.82811ZM22.7325 29.8066L1.99844 21.6831C0.671488 25.308 -0.00492129 29.1363 2.69533e-05 32.9938V33.0552L31.3154 57.6347V44.6239L22.7325 29.8066ZM13.2761 6.60777L31.3113 38.2743C31.3113 25.5339 31.3113 12.7936 31.3113 0.0532574C24.781 0.409135 18.5041 2.68466 13.2761 6.59138V6.60777Z" fill="white"/>
<path d="M0 33.0633L31.3154 57.6427L0 33.0633Z" fill="white"/>
<path d="M31.3113 61.6698L0.271975 37.2501L31.3113 61.6698Z" fill="white"/>
<path d="M65.9891 38.3113C64.7469 45.8784 60.8949 52.78 55.0939 57.8321C49.2928 62.8842 41.9043 65.772 34.1958 66V55.5537L47.715 31.2037L65.9891 38.3113Z" fill="white"/>
<path d="M22.7324 29.7862L1.99844 21.6831L22.7324 29.7862Z" fill="white"/>
<path d="M84.2608 19.8942V10.8428H87.5327V30.6428H84.2608V23.0339C82.8763 23.6562 81.4158 23.9674 79.8795 23.9674C77.869 23.9674 76.2473 23.4205 75.0144 22.3268C73.7816 21.2142 73.1652 19.7434 73.1652 17.9142V10.8428H76.437V17.5748C76.437 18.5931 76.7499 19.3945 77.3758 19.9791C78.0017 20.5637 78.8553 20.8559 79.9364 20.8559C81.5296 20.8559 82.9711 20.5354 84.2608 19.8942Z" fill="white"/>
<path d="M106.733 30.6428H103.462V17.2071L94.0729 30.6428H91.5124V10.8428H94.7842V24.2785L104.173 10.8428H106.733V30.6428Z" fill="white"/>
<path d="M120.128 31.0105C117.131 31.0105 114.647 30.0299 112.674 28.0688C110.701 26.0699 109.715 23.6279 109.715 20.7428C109.715 17.8388 110.701 15.4062 112.674 13.4451C114.628 11.4651 117.112 10.4751 120.128 10.4751C121.93 10.4751 123.589 10.8994 125.107 11.748C126.643 12.5965 127.838 13.7468 128.692 15.1988L125.847 16.8394C125.315 15.8588 124.538 15.0857 123.514 14.52C122.508 13.9354 121.38 13.6431 120.128 13.6431C118.023 13.6431 116.297 14.3125 114.95 15.6514C113.641 16.9714 112.987 18.6685 112.987 20.7428C112.987 22.8171 113.641 24.5142 114.95 25.8342C116.297 27.1731 118.023 27.8425 120.128 27.8425C121.38 27.8425 122.518 27.5596 123.542 26.9939C124.566 26.4094 125.334 25.6268 125.847 24.6462L128.692 26.2585C127.876 27.6916 126.691 28.8514 125.135 29.7376C123.637 30.5862 121.968 31.0105 120.128 31.0105Z" fill="white"/>
<path d="M129.706 10.8428H144.216V13.9542H138.611V30.6428H135.339V13.9542H129.706V10.8428Z" fill="white"/>
<path d="M153.975 30.6428H146.635V10.8428H149.907V17.6314H153.975C155.853 17.6314 157.418 18.2631 158.67 19.5265C159.941 20.7711 160.576 22.3079 160.576 24.1371C160.576 25.9662 159.941 27.5125 158.67 28.7759C157.418 30.0205 155.853 30.6428 153.975 30.6428ZM165.782 30.6428H162.511V10.8428H165.782V30.6428ZM149.907 20.6862V27.5879H153.975C154.943 27.5879 155.739 27.2674 156.365 26.6262C156.991 25.9662 157.304 25.1365 157.304 24.1371C157.304 23.1377 156.991 22.3174 156.365 21.6762C155.739 21.0162 154.943 20.6862 153.975 20.6862H149.907Z" fill="white"/>
<path d="M181.387 8.86283H173.421V6.20398H181.387V8.86283ZM185 30.6428H181.728V17.2071L172.34 30.6428H169.779V10.8428H173.051V24.2785L182.439 10.8428H185V30.6428Z" fill="white"/>
<path d="M73.5919 39.1285H84.8299V42.2399H76.8637V58.9284H73.5919V39.1285Z" fill="white"/>
<path d="M102.627 56.3261C100.635 58.3061 98.1982 59.2961 95.3152 59.2961C92.4322 59.2961 89.9855 58.3061 87.975 56.3261C85.9834 54.3273 84.9877 51.8947 84.9877 49.0284C84.9877 46.1622 85.9834 43.739 87.975 41.759C89.9855 39.7602 92.4322 38.7607 95.3152 38.7607C98.1982 38.7607 100.635 39.7602 102.627 41.759C104.637 43.739 105.643 46.1622 105.643 49.0284C105.643 51.8947 104.637 54.3273 102.627 56.3261ZM90.2794 54.1199C91.664 55.4587 93.3426 56.1281 95.3152 56.1281C97.3067 56.1281 98.9758 55.4587 100.322 54.1199C101.688 52.7621 102.371 51.065 102.371 49.0284C102.371 46.9919 101.688 45.3042 100.322 43.9653C98.9758 42.6076 97.3067 41.9287 95.3152 41.9287C93.3237 41.9287 91.6451 42.6076 90.2794 43.9653C88.9328 45.3042 88.2595 46.9919 88.2595 49.0284C88.2595 51.0462 88.9328 52.7433 90.2794 54.1199Z" fill="white"/>
<path d="M108.627 39.1285H115.967C117.845 39.1285 119.41 39.7508 120.662 40.9953C121.932 42.2399 122.568 43.7862 122.568 45.6342C122.568 47.4633 121.932 49.0096 120.662 50.273C119.41 51.5176 117.845 52.1399 115.967 52.1399H111.899V58.9284H108.627V39.1285ZM111.899 49.085H115.967C116.935 49.085 117.731 48.7644 118.357 48.1233C118.983 47.4633 119.296 46.6336 119.296 45.6342C119.296 44.6347 118.983 43.8144 118.357 43.1733C117.731 42.5133 116.935 42.1833 115.967 42.1833H111.899V49.085Z" fill="white"/>
<path d="M141.885 56.3261C139.894 58.3061 137.456 59.2961 134.574 59.2961C131.691 59.2961 129.244 58.3061 127.233 56.3261C125.242 54.3273 124.246 51.8947 124.246 49.0284C124.246 46.1622 125.242 43.739 127.233 41.759C129.244 39.7602 131.691 38.7607 134.574 38.7607C137.456 38.7607 139.894 39.7602 141.885 41.759C143.896 43.739 144.901 46.1622 144.901 49.0284C144.901 51.8947 143.896 54.3273 141.885 56.3261ZM129.538 54.1199C130.922 55.4587 132.601 56.1281 134.574 56.1281C136.565 56.1281 138.234 55.4587 139.581 54.1199C140.946 52.7621 141.629 51.065 141.629 49.0284C141.629 46.9919 140.946 45.3042 139.581 43.9653C138.234 42.6076 136.565 41.9287 134.574 41.9287C132.582 41.9287 130.903 42.6076 129.538 43.9653C128.191 45.3042 127.518 46.9919 127.518 49.0284C127.518 51.0462 128.191 52.7433 129.538 54.1199Z" fill="white"/>
<path d="M161.961 39.1285V55.817H164.094V62.7187H160.823V58.9284H148.731V62.7187H145.459V55.817H147.309C148.466 54.3273 149.044 52.055 149.044 49.0002V39.1285H161.961ZM150.893 55.817H158.689V42.1833H152.316V49.0567C152.316 51.9984 151.842 54.2519 150.893 55.817Z" fill="white"/>
</svg>
