<svg width="449" height="340" viewBox="0 0 449 340" fill="none" xmlns="http://www.w3.org/2000/svg">
<path d="M448.301 298.786H-8V299.014H448.301V298.786Z" fill="#E6E6E6"/>
<path d="M105.911 312.593H75.6855V312.821H105.911V312.593Z" fill="#E6E6E6"/>
<path d="M66.1212 312.593H48.6084V312.821H66.1212V312.593Z" fill="#E6E6E6"/>
<path d="M184.149 315.951H166.636V316.179H184.149V315.951Z" fill="#E6E6E6"/>
<path d="M275.463 321.044H236.048V321.273H275.463V321.044Z" fill="#E6E6E6"/>
<path d="M227.926 321.044H222.149V321.273H227.926V321.044Z" fill="#E6E6E6"/>
<path d="M405.728 315.951H320.235V316.179H405.728V315.951Z" fill="#E6E6E6"/>
<path d="M208.286 258.084H32.0719C30.6915 258.081 29.3684 257.531 28.3931 256.554C27.4179 255.577 26.8701 254.253 26.8701 252.873V5.16532C26.8821 3.79279 27.4352 2.48043 28.4092 1.51329C29.3831 0.546154 30.6994 0.00235121 32.0719 0H208.286C209.668 0 210.994 0.54901 211.971 1.52625C212.948 2.5035 213.497 3.82892 213.497 5.21095V252.873C213.497 254.255 212.948 255.58 211.971 256.557C210.994 257.535 209.668 258.084 208.286 258.084ZM32.0719 0.182521C30.752 0.184938 29.487 0.710976 28.5545 1.64517C27.622 2.57937 27.0983 3.84538 27.0983 5.16532V252.873C27.0983 254.193 27.622 255.459 28.5545 256.393C29.487 257.327 30.752 257.853 32.0719 257.855H208.286C209.607 257.853 210.873 257.327 211.807 256.393C212.741 255.459 213.266 254.193 213.269 252.873V5.16532C213.266 3.84454 212.741 2.57855 211.807 1.64461C210.873 0.710679 209.607 0.184933 208.286 0.182521H32.0719Z" fill="#E6E6E6"/>
<path d="M405.691 258.084H229.468C228.086 258.081 226.762 257.531 225.786 256.555C224.809 255.578 224.259 254.254 224.257 252.873V5.16532C224.271 3.79196 224.826 2.47961 225.802 1.51272C226.777 0.545835 228.094 0.00232557 229.468 0H405.691C407.062 0.00474963 408.376 0.549613 409.348 1.51649C410.32 2.48338 410.872 3.79437 410.884 5.16532V252.873C410.884 254.252 410.337 255.574 409.364 256.551C408.391 257.528 407.07 258.079 405.691 258.084ZM229.468 0.182521C228.147 0.184933 226.881 0.710679 225.947 1.64461C225.013 2.57855 224.487 3.84454 224.485 5.16532V252.873C224.487 254.193 225.013 255.459 225.947 256.393C226.881 257.327 228.147 257.853 229.468 257.855H405.691C407.012 257.853 408.278 257.327 409.212 256.393C410.146 255.459 410.671 254.193 410.674 252.873V5.16532C410.671 3.84454 410.146 2.57855 409.212 1.64461C408.278 0.710679 407.012 0.184933 405.691 0.182521H229.468Z" fill="#E6E6E6"/>
<path d="M236.03 220.831H215.961V300.437H236.03V220.831Z" fill="#E0E0E0"/>
<path d="M232.215 300.437H236.03V289.595H228.218L232.215 300.437Z" fill="#FAFAFA"/>
<path d="M148.092 220.831H128.023V300.437H148.092V220.831Z" fill="#E0E0E0"/>
<path d="M236.03 220.831H144.77V293.784H236.03V220.831Z" fill="#FAFAFA"/>
<path d="M232.717 224.418V243.719H148.055V224.418H232.69H232.717ZM233.046 224.062H147.727V244.066H233.073V224.062H233.046Z" fill="#E0E0E0"/>
<path d="M148.575 300.437H144.77V289.595H152.572L148.575 300.437Z" fill="#FAFAFA"/>
<path d="M188.382 234.064C188.382 234.463 188.501 234.853 188.722 235.185C188.944 235.516 189.259 235.775 189.627 235.928C189.996 236.08 190.401 236.12 190.793 236.042C191.184 235.964 191.543 235.772 191.825 235.49C192.107 235.208 192.299 234.849 192.377 234.458C192.455 234.066 192.415 233.661 192.262 233.292C192.11 232.924 191.851 232.609 191.52 232.387C191.188 232.166 190.798 232.047 190.399 232.047C189.864 232.047 189.351 232.26 188.973 232.638C188.595 233.016 188.382 233.529 188.382 234.064Z" fill="#E6E6E6"/>
<path d="M232.717 247.653V266.955H148.055V247.653H232.69H232.717ZM233.046 247.306H147.727V267.311H233.073V247.316L233.046 247.306Z" fill="#E0E0E0"/>
<path d="M188.382 257.354C188.382 257.753 188.501 258.143 188.722 258.475C188.944 258.806 189.259 259.065 189.627 259.217C189.996 259.37 190.401 259.41 190.793 259.332C191.184 259.254 191.543 259.062 191.825 258.78C192.107 258.498 192.299 258.139 192.377 257.747C192.455 257.356 192.415 256.951 192.262 256.582C192.11 256.214 191.851 255.899 191.52 255.677C191.188 255.455 190.798 255.337 190.399 255.337C189.864 255.337 189.351 255.55 188.973 255.928C188.595 256.306 188.382 256.819 188.382 257.354Z" fill="#E6E6E6"/>
<path d="M232.717 270.896V290.207H148.055V270.896H232.69H232.717ZM233.046 270.541H147.727V290.554H233.073V270.541H233.046Z" fill="#E0E0E0"/>
<path d="M188.382 280.552C188.384 280.95 188.504 281.339 188.727 281.67C188.949 282 189.265 282.257 189.634 282.409C190.002 282.56 190.408 282.599 190.798 282.52C191.189 282.441 191.547 282.248 191.829 281.966C192.11 281.683 192.301 281.324 192.378 280.933C192.455 280.542 192.415 280.137 192.262 279.769C192.109 279.401 191.85 279.086 191.519 278.865C191.187 278.644 190.798 278.526 190.399 278.526C190.134 278.526 189.871 278.578 189.625 278.68C189.38 278.782 189.157 278.932 188.97 279.12C188.782 279.308 188.634 279.531 188.533 279.777C188.432 280.023 188.381 280.286 188.382 280.552Z" fill="#E6E6E6"/>
<path d="M135.835 174.599H115.767V300.447H135.835V174.599Z" fill="#E0E0E0"/>
<path d="M132.02 300.437H135.835V289.595H128.032L132.02 300.437Z" fill="#FAFAFA"/>
<path d="M60.8376 174.599H40.7695V300.447H60.8376V174.599Z" fill="#E0E0E0"/>
<path d="M135.835 174.599H57.5063V293.794H135.835V174.599Z" fill="#FAFAFA"/>
<path d="M132.459 177.957V204.943H60.8834V177.957H132.459ZM132.878 177.547H60.4453V205.335H132.86V177.556L132.878 177.547Z" fill="#E0E0E0"/>
<path d="M132.459 208.236V279.811H98.3638V208.236H132.459ZM132.878 207.816H97.9531V280.231H132.878V207.816Z" fill="#E0E0E0"/>
<path d="M94.9781 208.236V279.811H60.8834V208.236H94.9781ZM95.3888 207.816H60.4453V280.231H95.3706V207.816H95.3888Z" fill="#E0E0E0"/>
<path d="M61.321 300.437H57.5063V289.595H65.3182L61.321 300.437Z" fill="#FAFAFA"/>
<path d="M94.6494 191.464C94.6476 191.865 94.7649 192.258 94.9864 192.592C95.2079 192.927 95.5237 193.188 95.8938 193.343C96.2638 193.497 96.6714 193.539 97.065 193.462C97.4586 193.385 97.8205 193.192 98.1047 192.909C98.389 192.626 98.5828 192.265 98.6618 191.872C98.7407 191.479 98.7011 191.071 98.548 190.7C98.395 190.33 98.1353 190.013 97.8019 189.79C97.4686 189.567 97.0765 189.448 96.6754 189.448C96.1397 189.448 95.6257 189.66 95.246 190.038C94.8664 190.416 94.6518 190.929 94.6494 191.464Z" fill="#E6E6E6"/>
<path d="M101.877 242.322C101.877 242.723 101.997 243.116 102.22 243.449C102.443 243.782 102.76 244.042 103.13 244.195C103.501 244.348 103.909 244.388 104.302 244.309C104.695 244.23 105.056 244.036 105.339 243.752C105.622 243.467 105.814 243.106 105.892 242.712C105.969 242.318 105.927 241.911 105.773 241.541C105.618 241.171 105.357 240.855 105.022 240.633C104.688 240.412 104.295 240.295 103.894 240.296C103.629 240.296 103.366 240.349 103.12 240.451C102.875 240.553 102.652 240.702 102.465 240.89C102.278 241.079 102.129 241.302 102.028 241.548C101.928 241.794 101.876 242.057 101.877 242.322Z" fill="#E6E6E6"/>
<path d="M87.4312 242.322C87.433 242.721 87.5528 243.11 87.7755 243.44C87.9982 243.771 88.3138 244.028 88.6825 244.179C89.0512 244.33 89.4564 244.369 89.8471 244.29C90.2377 244.211 90.5962 244.019 90.8773 243.736C91.1585 243.454 91.3497 243.094 91.4268 242.703C91.5038 242.312 91.4634 241.907 91.3105 241.539C91.1575 241.171 90.899 240.857 90.5676 240.636C90.2361 240.414 89.8465 240.296 89.448 240.296C89.1824 240.296 88.9194 240.349 88.6741 240.451C88.4288 240.553 88.2061 240.702 88.0187 240.89C87.8313 241.079 87.6829 241.302 87.5821 241.548C87.4812 241.794 87.43 242.057 87.4312 242.322Z" fill="#E6E6E6"/>
<path d="M85.149 139.51H76.6892C77.4688 143.613 77.9598 147.767 78.1585 151.939C78.1585 156.502 71.7155 174.599 80.8963 174.599C90.0771 174.599 83.6341 156.548 83.6341 151.939C83.8479 147.766 84.3541 143.612 85.149 139.51Z" fill="#E0E0E0"/>
<path d="M52.9614 158.017V163.492C52.9711 166.428 54.1414 169.24 56.217 171.316C58.2926 173.391 61.105 174.562 64.0404 174.571H69.516C72.4514 174.562 75.2638 173.391 77.3394 171.316C79.415 169.24 80.5854 166.428 80.595 163.492V158.017H52.9614Z" fill="#F5F5F5"/>
<path d="M170.568 209.224C170.568 215.612 177.714 220.832 186.448 220.832H194.333C203.066 220.832 210.212 215.612 210.212 209.224H170.568Z" fill="#E0E0E0"/>
<path d="M379.5 199.859C374.718 203.765 368.11 210.91 362.069 220.967C358.035 227.666 355.608 234.656 354.54 243.946C354.54 233.452 354.604 222.181 354.64 211.54C355.854 208.802 358.628 202.487 360.618 197.504C367.252 180.868 369.744 176.77 375.703 162.424C383.67 143.259 391.829 120.572 389.493 122.388C384.729 126.084 366.477 160.261 364.506 165.152C359.132 178.207 355.811 192.013 354.659 206.083C354.659 196.044 354.732 186.918 354.768 179.836C354.896 156.738 355.288 149.282 355.48 146.983C356.219 145.814 357.086 144.455 357.597 143.725C361.886 137.519 363.538 132.244 367.572 122.99C373.303 109.895 378.231 86.6323 376.789 87.8004C370.784 92.692 366.057 103.187 359.833 116.575C353.609 129.963 355.389 137.656 354.157 149.082C353.901 151.327 353.7 159.796 353.554 171.522C351.948 159.02 348.918 150.788 343.397 143.305C336.607 134.097 330.037 127.882 325.218 124.633C320.4 121.384 333.541 143.998 339.82 153.836C345.414 162.634 350.57 170.382 353.509 178.02C353.354 193.927 353.281 214.059 353.281 232.776C351.839 224.253 349.484 215.063 346.345 207.953C342.567 199.412 336.762 186.307 332.136 181.862C331.031 180.794 336.972 206.283 340.787 213.055C344.602 219.826 347.403 226.224 349.804 230.066C350.36 230.978 352.222 234.419 353.281 236.408C353.281 259.287 353.408 279.474 353.609 286.346H354.595C354.531 284.575 354.513 272.931 354.54 257.526C356.922 249.167 362.361 239.621 366.851 230.915C371.742 221.487 384.282 195.98 379.5 199.859Z" fill="#E0E0E0"/>
<path d="M368.393 300.436H339.792L337.629 272.401H370.556L368.393 300.436Z" fill="#F0F0F0"/>
<path d="M372.683 275.669H335.494L334.436 266.206H373.75L372.683 275.669Z" fill="#F5F5F5"/>
<path d="M105.4 18.7083H54.2485V74.8789H105.4V18.7083Z" fill="#E0E0E0"/>
<path d="M110.939 18.7083H58.0996V74.8789H110.939V18.7083Z" fill="#F5F5F5"/>
<path d="M106.513 70.4529V23.1345L62.5258 23.1345V70.4529H106.513Z" fill="white"/>
<path d="M95.8447 58.9718V34.5962H73.1848V58.9718H95.8447Z" fill="#F5F5F5"/>
<path d="M366.212 25.252H318.693V77.4345H366.212V25.252Z" fill="#E0E0E0"/>
<path d="M371.359 25.252H322.28V77.4345H371.359V25.252Z" fill="#F5F5F5"/>
<path d="M367.253 73.3181V29.3672L326.396 29.3672V73.3181H367.253Z" fill="white"/>
<path d="M346.819 64.0926C353.86 64.0926 359.568 58.3846 359.568 51.3435C359.568 44.3024 353.86 38.5945 346.819 38.5945C339.778 38.5945 334.07 44.3024 334.07 51.3435C334.07 58.3846 339.778 64.0926 346.819 64.0926Z" fill="#F5F5F5"/>
<path d="M158.54 52.2007H120.594V93.8701H158.54V52.2007Z" fill="#E0E0E0"/>
<path d="M162.647 52.2007H123.451V93.8701H162.647V52.2007Z" fill="#F5F5F5"/>
<path d="M159.362 90.5847V55.4861H126.736V90.5847H159.362Z" fill="white"/>
<path d="M143.054 64.1558L134.128 79.6152H151.979L143.054 64.1558Z" fill="#F5F5F5"/>
<path d="M220.15 340C317.873 340 397.094 335.374 397.094 329.669C397.094 323.964 317.873 319.338 220.15 319.338C122.426 319.338 43.2056 323.964 43.2056 329.669C43.2056 335.374 122.426 340 220.15 340Z" fill="#F5F5F5"/>
<path d="M215.478 14.21H209.646V15.1499H215.478V14.21Z" fill="#008037"/>
<path d="M290.966 51.4141L290.26 67.0767L291.199 67.119L291.905 51.4564L290.966 51.4141Z" fill="#008037"/>
<path d="M289.152 18.4265H181.465L171.445 242.671H279.132L289.152 18.4265Z" fill="#008037"/>
<path opacity="0.56" d="M285.94 21.5107H178.253L168.232 245.755H275.919L285.94 21.5107Z" fill="#FAFAFA"/>
<path opacity="0.07" d="M282.727 24.5864H175.04L165.011 248.831H272.698L282.727 24.5864Z" fill="#008037"/>
<path d="M270.47 122.39H178.553L177.787 139.547H269.704L270.47 122.39Z" fill="white"/>
<path d="M229.102 109.869H179.11L178.772 117.544H228.765L229.102 109.869Z" fill="#008037"/>
<path d="M268.4 168.695H176.482L175.716 185.852H267.633L268.4 168.695Z" fill="white"/>
<path opacity="0.47" d="M251.544 209.023H189.733L188.812 229.584H250.622L251.544 209.023Z" fill="#008037"/>
<path d="M247.41 232.777H185.599C185.572 232.784 185.544 232.784 185.517 232.777C185.508 232.751 185.508 232.722 185.517 232.695L186.43 212.125C186.43 212.111 186.432 212.097 186.438 212.085C186.444 212.072 186.452 212.06 186.462 212.051C186.472 212.041 186.485 212.034 186.498 212.03C186.511 212.025 186.525 212.024 186.539 212.025H248.35C248.361 212.019 248.373 212.016 248.386 212.016C248.399 212.016 248.411 212.019 248.423 212.025C248.429 212.036 248.432 212.049 248.432 212.061C248.432 212.074 248.429 212.087 248.423 212.098L247.528 232.714C247.517 232.735 247.5 232.753 247.479 232.764C247.458 232.775 247.434 232.78 247.41 232.777ZM185.709 232.558H247.3L248.213 212.207H186.621L185.709 232.558Z" fill="white"/>
<path d="M218.307 156.175H177.039L176.701 163.859H217.96L218.307 156.175Z" fill="#008037"/>
<path d="M250.366 66.9675C250.13 71.9607 248.355 76.7584 245.283 80.7021C243.009 83.681 240.083 86.0993 236.73 87.7714C233.376 89.4436 229.683 90.3251 225.936 90.3483C222.908 90.3714 219.907 89.7743 217.118 88.5937C214.329 87.4131 211.812 85.674 209.72 83.4836C207.629 81.2932 206.009 78.6978 204.958 75.8573C203.908 73.0169 203.451 69.9915 203.614 66.9675C203.935 60.6925 206.641 54.7771 211.179 50.431C215.716 46.085 221.743 43.6366 228.026 43.5867C231.056 43.5584 234.061 44.1519 236.853 45.3305C239.645 46.509 242.166 48.2477 244.26 50.4389C246.353 52.6301 247.976 55.2275 249.026 58.0703C250.076 60.9132 250.532 63.9413 250.366 66.9675Z" fill="white"/>
<path d="M252.566 48.4784C252.506 49.8061 252.034 51.0821 251.215 52.1288C250.609 52.92 249.83 53.5623 248.938 54.0067C248.046 54.4512 247.064 54.686 246.068 54.6932C245.102 54.6991 244.15 54.4684 243.294 54.0214C242.438 53.5744 241.705 52.9246 241.158 52.1288C240.434 51.0534 240.076 49.7734 240.136 48.4784C240.224 46.8124 240.945 45.2427 242.15 44.0896C243.356 42.9364 244.956 42.2866 246.625 42.2727C247.429 42.2654 248.227 42.4229 248.969 42.7356C249.711 43.0483 250.38 43.5096 250.937 44.091C251.493 44.6724 251.925 45.3616 252.205 46.1161C252.485 46.8707 252.608 47.6746 252.566 48.4784Z" fill="#008037"/>
<path d="M188.455 130.969C188.411 131.704 188.09 132.396 187.557 132.904C187.024 133.412 186.317 133.699 185.581 133.707C185.225 133.711 184.872 133.642 184.544 133.505C184.216 133.367 183.92 133.164 183.673 132.907C183.427 132.651 183.236 132.346 183.112 132.013C182.988 131.679 182.934 131.324 182.952 130.969C182.992 130.232 183.312 129.538 183.846 129.029C184.38 128.52 185.089 128.235 185.827 128.231C186.182 128.228 186.535 128.298 186.862 128.436C187.189 128.574 187.485 128.777 187.731 129.033C187.977 129.29 188.168 129.594 188.293 129.926C188.417 130.259 188.473 130.614 188.455 130.969Z" fill="#263238"/>
<path d="M200.757 130.969C200.716 131.705 200.395 132.398 199.861 132.906C199.327 133.415 198.62 133.701 197.883 133.707C197.528 133.71 197.176 133.64 196.849 133.502C196.522 133.364 196.227 133.16 195.981 132.904C195.736 132.647 195.546 132.343 195.422 132.011C195.299 131.678 195.245 131.323 195.263 130.969C195.303 130.234 195.621 129.541 196.154 129.032C196.686 128.524 197.393 128.237 198.129 128.231C198.485 128.227 198.837 128.296 199.165 128.433C199.494 128.571 199.79 128.774 200.036 129.031C200.283 129.287 200.474 129.592 200.598 129.925C200.722 130.258 200.776 130.614 200.757 130.969Z" fill="#263238"/>
<path d="M213.068 130.969C213.026 131.705 212.706 132.398 212.172 132.906C211.638 133.415 210.931 133.701 210.193 133.707C209.838 133.71 209.486 133.64 209.159 133.502C208.831 133.364 208.535 133.161 208.289 132.904C208.043 132.648 207.852 132.344 207.727 132.011C207.603 131.679 207.548 131.324 207.565 130.969C207.607 130.233 207.927 129.54 208.461 129.032C208.995 128.523 209.703 128.237 210.44 128.231C210.796 128.227 211.148 128.296 211.476 128.433C211.804 128.571 212.101 128.774 212.347 129.031C212.593 129.287 212.785 129.592 212.909 129.925C213.033 130.258 213.087 130.614 213.068 130.969Z" fill="#263238"/>
<path d="M186.384 177.273C186.34 178.009 186.019 178.7 185.485 179.208C184.952 179.716 184.246 180.003 183.509 180.011C183.154 180.014 182.801 179.944 182.474 179.806C182.147 179.668 181.851 179.465 181.605 179.209C181.359 178.952 181.167 178.648 181.043 178.316C180.918 177.983 180.863 177.628 180.881 177.273C180.922 176.537 181.243 175.844 181.777 175.336C182.31 174.827 183.018 174.541 183.755 174.535C184.111 174.533 184.463 174.602 184.79 174.74C185.118 174.878 185.413 175.082 185.66 175.338C185.906 175.594 186.097 175.898 186.221 176.231C186.346 176.564 186.401 176.918 186.384 177.273Z" fill="#263238"/>
<path d="M198.685 177.273C198.644 178.008 198.325 178.699 197.793 179.208C197.261 179.716 196.556 180.003 195.82 180.011C195.464 180.015 195.111 179.947 194.783 179.809C194.455 179.672 194.159 179.468 193.913 179.212C193.666 178.955 193.475 178.651 193.351 178.317C193.227 177.984 193.173 177.629 193.192 177.273C193.233 176.537 193.554 175.844 194.088 175.336C194.622 174.827 195.329 174.541 196.066 174.535C196.421 174.533 196.773 174.602 197.1 174.74C197.427 174.878 197.722 175.082 197.968 175.338C198.213 175.595 198.403 175.899 198.527 176.232C198.65 176.564 198.704 176.919 198.685 177.273Z" fill="#263238"/>
<path d="M211.024 177.273C210.983 178.01 210.662 178.702 210.128 179.211C209.594 179.719 208.887 180.005 208.15 180.011C207.795 180.013 207.443 179.942 207.116 179.804C206.789 179.665 206.494 179.462 206.248 179.206C206.002 178.95 205.811 178.647 205.686 178.314C205.561 177.982 205.505 177.628 205.521 177.273C205.565 176.538 205.886 175.847 206.42 175.339C206.953 174.83 207.659 174.544 208.396 174.536C208.752 174.531 209.104 174.6 209.432 174.738C209.76 174.875 210.057 175.078 210.303 175.335C210.55 175.592 210.741 175.896 210.865 176.23C210.989 176.563 211.043 176.918 211.024 177.273Z" fill="#263238"/>
<path d="M223.307 177.273C223.264 178.009 222.943 178.7 222.409 179.208C221.876 179.716 221.169 180.003 220.433 180.011C220.078 180.013 219.726 179.942 219.399 179.804C219.073 179.665 218.777 179.462 218.531 179.206C218.286 178.95 218.094 178.646 217.97 178.314C217.845 177.982 217.788 177.628 217.804 177.273C217.848 176.538 218.169 175.846 218.703 175.338C219.236 174.83 219.942 174.543 220.679 174.535C221.034 174.533 221.387 174.602 221.714 174.74C222.041 174.878 222.337 175.082 222.583 175.338C222.829 175.594 223.021 175.898 223.145 176.231C223.27 176.564 223.325 176.918 223.307 177.273Z" fill="#263238"/>
<path d="M235.664 177.273C235.62 178.009 235.299 178.7 234.766 179.208C234.233 179.716 233.526 180.003 232.79 180.011C232.434 180.015 232.081 179.947 231.753 179.809C231.425 179.672 231.129 179.468 230.882 179.212C230.636 178.955 230.445 178.651 230.321 178.317C230.197 177.984 230.143 177.629 230.161 177.273C230.203 176.537 230.523 175.844 231.057 175.336C231.591 174.827 232.299 174.541 233.036 174.535C233.391 174.533 233.744 174.602 234.071 174.74C234.398 174.878 234.694 175.082 234.94 175.338C235.186 175.594 235.377 175.898 235.502 176.231C235.626 176.564 235.682 176.918 235.664 177.273Z" fill="#263238"/>
<path d="M233.797 65.7497C237.617 62.0143 237.819 56.027 234.25 52.3767C230.68 48.7263 224.69 48.7952 220.87 52.5305C217.05 56.2659 216.847 62.2531 220.417 65.9035C223.987 69.5539 229.977 69.485 233.797 65.7497Z" fill="#008037"/>
<path d="M245.283 80.7029C243.009 83.6818 240.083 86.1001 236.729 87.7722C233.376 89.4443 229.683 90.3259 225.936 90.3491C222.302 90.3799 218.716 89.5161 215.495 87.8339C212.274 86.1517 209.516 83.7027 207.465 80.7029C211.9 76.2859 218.918 73.4021 226.693 73.4021C234.469 73.4021 241.24 76.2859 245.283 80.7029Z" fill="#008037"/>
<path opacity="0.1" d="M233.797 65.7497C237.617 62.0143 237.819 56.027 234.25 52.3767C230.68 48.7263 224.69 48.7952 220.87 52.5305C217.05 56.2659 216.847 62.2531 220.417 65.9035C223.987 69.5539 229.977 69.485 233.797 65.7497Z" fill="white"/>
<path opacity="0.1" d="M245.283 80.7029C243.009 83.6818 240.083 86.1001 236.729 87.7722C233.376 89.4443 229.683 90.3259 225.936 90.3491C222.302 90.3799 218.716 89.5161 215.495 87.8339C212.274 86.1517 209.516 83.7027 207.465 80.7029C211.9 76.2859 218.918 73.4021 226.693 73.4021C234.469 73.4021 241.24 76.2859 245.283 80.7029Z" fill="white"/>
<path d="M111.012 143.681C110.145 145.579 109.232 147.669 108.438 149.695C107.644 151.721 106.832 153.811 106.13 155.892C104.695 159.992 103.602 164.205 102.862 168.486L102.662 169.827C102.642 170.057 102.664 170.289 102.726 170.511C102.941 171.268 103.28 171.983 103.729 172.629C104.901 174.299 106.261 175.83 107.781 177.192C109.384 178.683 111.066 180.087 112.819 181.399C114.571 182.749 116.415 184.064 118.231 185.305L116.524 188.508C112.188 186.619 108.071 184.259 104.25 181.472C102.211 179.985 100.37 178.243 98.774 176.288C97.8277 175.125 97.0897 173.806 96.5928 172.391C96.3039 171.508 96.1561 170.584 96.1548 169.654C96.1548 169.435 96.1548 169.115 96.1548 168.96V168.513L96.2461 167.6C96.7692 162.846 97.769 158.156 99.2303 153.601C99.9421 151.356 100.7 149.12 101.567 146.939C102.433 144.758 103.328 142.622 104.432 140.405L111.012 143.681Z" fill="#E58A7B"/>
<path d="M116.944 184.739L123.396 181.472L121.726 188.553C121.726 188.553 117.3 189.795 115.247 187.641L116.944 184.739Z" fill="#E58A7B"/>
<path d="M129.301 182.631L127.585 188.49L121.727 188.553L123.397 181.472L129.301 182.631Z" fill="#E58A7B"/>
<path d="M138.408 109.513C138.753 110.778 139.234 112.002 139.841 113.164C139.664 113.365 139.435 113.514 139.18 113.596C138.924 113.678 138.651 113.689 138.39 113.629L138.408 109.513Z" fill="#DF5753"/>
<path d="M138.217 109.567C138.595 109.567 138.902 109.097 138.902 108.518C138.902 107.938 138.595 107.468 138.217 107.468C137.839 107.468 137.533 107.938 137.533 108.518C137.533 109.097 137.839 109.567 138.217 109.567Z" fill="#263238"/>
<path d="M138.016 107.504L139.403 107.112C139.403 107.112 138.728 108.189 138.016 107.504Z" fill="#263238"/>
<path d="M120.586 116.211C121.416 120.455 122.247 128.239 119.271 131.077C119.271 131.077 120.44 135.385 128.334 135.385C137.012 135.385 132.477 131.077 132.477 131.077C127.74 129.946 127.859 126.432 128.69 123.128L120.586 116.211Z" fill="#E58A7B"/>
<path d="M118.277 106.538C118.715 113.629 118.751 116.64 122.329 120.282C127.722 125.757 136.337 123.676 138.026 116.631C139.55 110.243 138.582 99.7297 131.637 96.9098C130.113 96.2818 128.453 96.0531 126.816 96.2453C125.178 96.4375 123.617 97.0442 122.28 98.0081C120.942 98.972 119.872 100.261 119.172 101.754C118.472 103.246 118.163 104.893 118.277 106.538Z" fill="#E58A7B"/>
<path d="M118.979 98.5618C115.42 99.8577 110.674 98.8904 112.536 109.869C114.507 121.495 111.478 125.319 111.478 125.319C111.478 125.319 124.975 128.194 138.755 125.146C138.755 125.146 134.548 117.79 135.725 112.369C137.231 105.525 136.045 102.997 136.045 102.997C136.045 102.997 123.98 96.7366 118.979 98.5618Z" fill="#263238"/>
<path d="M134.037 110.233C134.041 111.582 134.427 112.901 135.15 114.039C136.118 115.517 137.259 114.952 137.541 113.382C137.797 112.004 137.605 109.567 136.373 108.618C135.141 107.669 134.055 108.6 134.037 110.233Z" fill="#E58A7B"/>
<path d="M115.885 99.7572C114.863 96.8825 119.736 92.4564 130.049 94.2816C140.361 96.1068 140.808 104.694 140.808 104.694L138.728 102.212L138.819 104.822L128.224 106.857L115.885 99.7572Z" fill="#263238"/>
<path d="M116.762 131.561C116.701 131.144 116.805 130.72 117.052 130.379C117.299 130.038 117.67 129.808 118.085 129.736C121.297 129.207 128.598 128.13 132.267 128.641C135.004 129.024 135.716 130.612 135.835 131.917C135.854 132.145 135.823 132.375 135.745 132.591C135.668 132.807 135.545 133.003 135.385 133.168C135.225 133.332 135.032 133.46 134.818 133.543C134.605 133.627 134.376 133.663 134.147 133.651L118.286 132.939C117.912 132.92 117.556 132.773 117.278 132.522C117 132.271 116.818 131.931 116.762 131.561Z" fill="#008037"/>
<path opacity="0.6" d="M116.762 131.561C116.701 131.144 116.805 130.72 117.052 130.379C117.299 130.038 117.67 129.808 118.085 129.736C121.297 129.207 128.598 128.13 132.267 128.641C135.004 129.024 135.716 130.612 135.835 131.917C135.854 132.145 135.823 132.375 135.745 132.591C135.668 132.807 135.545 133.003 135.385 133.168C135.225 133.332 135.032 133.46 134.818 133.543C134.605 133.627 134.376 133.663 134.147 133.651L118.286 132.939C117.912 132.92 117.556 132.773 117.278 132.522C117 132.271 116.818 131.931 116.762 131.561Z" fill="black"/>
<path d="M125.933 290.992L131.819 295.081L141.666 281.729L135.78 277.65L125.933 290.992Z" fill="#E58A7B"/>
<path d="M112.208 290.728L118.423 294.269L127.138 280.151L120.923 276.61L112.208 290.728Z" fill="#E58A7B"/>
<path d="M141.657 281.729L136.583 288.61L130.697 284.531L135.771 277.65L141.657 281.729Z" fill="#CF6F64"/>
<path d="M120.914 276.61L127.138 280.16L122.648 287.434L116.424 283.884L120.914 276.61Z" fill="#CF6F64"/>
<path d="M130.898 176.133C130.898 176.133 153.877 205.09 149.561 232.787C146.084 255.155 125.915 285.444 125.915 285.444L116.433 280.735C123.117 267.343 128.82 253.484 133.499 239.267C134.942 234.853 135.363 230.169 134.73 225.568C134.098 220.968 132.429 216.571 129.848 212.71C118.204 195.708 99.5501 205.829 112.098 176.133H130.898Z" fill="#008037"/>
<path opacity="0.6" d="M130.898 176.133C130.898 176.133 153.877 205.09 149.561 232.787C146.084 255.155 125.915 285.444 125.915 285.444L116.433 280.735C123.117 267.343 128.82 253.484 133.499 239.267C134.942 234.853 135.363 230.169 134.73 225.568C134.098 220.968 132.429 216.571 129.848 212.71C118.204 195.708 99.5501 205.829 112.098 176.133H130.898Z" fill="black"/>
<path opacity="0.4" d="M142.168 194.731L138.828 191.409C138.828 191.674 145.298 231.618 147.115 242.843C148.186 239.564 149.007 236.208 149.569 232.805C151.705 219.216 147.242 205.335 142.168 194.731Z" fill="black"/>
<path d="M141.156 176.133C141.156 176.133 168.826 212.528 169.61 234.348C170.258 252.6 139.495 287.963 139.495 287.963L130.551 282.177C130.551 282.177 148.557 257.063 153.092 236.547C151.34 216.215 114.289 176.133 114.289 176.133H141.156Z" fill="#008037"/>
<path opacity="0.6" d="M141.156 176.133C141.156 176.133 168.826 212.528 169.61 234.348C170.258 252.6 139.495 287.963 139.495 287.963L130.551 282.177C130.551 282.177 148.557 257.063 153.092 236.547C151.34 216.215 114.289 176.133 114.289 176.133H141.156Z" fill="black"/>
<path d="M106.924 132.702C103.967 133.405 101.129 144.155 101.129 144.155L112.692 151.876C112.692 151.876 116.543 143.37 115.192 139.647C113.796 135.768 110.638 131.817 106.924 132.702Z" fill="#008037"/>
<path opacity="0.2" d="M109.187 139.629L108.384 149.001L112.683 151.885C113.869 149.213 114.748 146.415 115.302 143.544L109.187 139.629Z" fill="black"/>
<path d="M144.578 132.912C144.578 132.912 147.991 134.107 141.156 176.123H112.08C112.573 164.26 112.582 156.959 106.924 132.702C110.995 131.863 115.122 131.32 119.271 131.077C123.667 130.762 128.081 130.762 132.477 131.077C138.153 131.598 144.578 132.912 144.578 132.912Z" fill="#008037"/>
<path d="M147.535 139.629C148.192 141.455 148.885 143.417 149.615 145.306C150.346 147.195 151.039 149.139 151.778 151.055L154.014 156.786L154.58 158.219L154.872 158.931L155.009 159.287C155.009 159.351 155.009 159.351 155.009 159.342C154.842 159.106 154.624 158.913 154.37 158.776C154.009 158.563 153.602 158.441 153.184 158.42C152.836 158.409 152.49 158.474 152.171 158.611C151.751 158.803 151.751 158.885 151.76 158.876C151.836 158.815 151.903 158.745 151.961 158.666C152.466 158.003 152.903 157.291 153.266 156.54C153.695 155.7 154.105 154.806 154.516 153.902C155.319 152.077 156.058 150.188 156.798 148.281C157.537 146.373 158.24 144.448 158.924 142.504L161.005 136.682L164.518 137.594C163.825 141.756 162.93 145.808 161.853 149.933C161.333 151.986 160.722 154.021 160.028 156.074C159.681 157.106 159.298 158.128 158.86 159.177C158.404 160.316 157.841 161.41 157.181 162.444C156.938 162.792 156.67 163.122 156.378 163.43C155.912 163.933 155.346 164.334 154.717 164.607C154.158 164.847 153.554 164.959 152.946 164.936C152.266 164.91 151.604 164.713 151.021 164.361C150.333 163.932 149.763 163.339 149.36 162.636C149.223 162.399 149.104 162.161 149.022 161.988L148.849 161.641L148.502 160.929L147.808 159.515C146.896 157.617 145.983 155.7 145.189 153.775C144.395 151.849 143.556 149.896 142.771 147.934C141.986 145.972 141.283 144.01 140.617 141.893L147.535 139.629Z" fill="#E58A7B"/>
<path d="M144.578 132.911C148.073 133.742 152.006 144.072 152.006 144.072L141.612 152.915C141.612 152.915 134.886 141.654 136.245 137.94C137.66 134.07 140.015 131.825 144.578 132.911Z" fill="#008037"/>
<path d="M162.656 133.414L166.306 130.366L168.843 134.318L166.973 137.612C166.973 137.612 163.998 140.35 161.369 138.954C160.952 138.016 160.852 136.968 161.084 135.968C161.316 134.969 161.868 134.072 162.656 133.414Z" fill="#E58A7B"/>
<path d="M172.896 130.375L172.622 131.37L166.845 132.337L166.279 130.366L172.896 130.375Z" fill="#E58A7B"/>
<path d="M140.207 288.428L129.785 281.693L131.656 278.444L143.364 285.645L140.207 288.428Z" fill="#008037"/>
<path d="M122.502 293.794C121.587 293.683 120.709 293.371 119.928 292.882C119.896 292.871 119.868 292.85 119.848 292.822C119.828 292.794 119.818 292.761 119.818 292.727C119.818 292.693 119.828 292.659 119.848 292.632C119.868 292.604 119.896 292.583 119.928 292.572C120.211 292.48 122.666 291.723 123.378 292.307C123.458 292.373 123.519 292.46 123.554 292.558C123.589 292.656 123.598 292.761 123.579 292.864C123.566 293.028 123.511 293.186 123.42 293.324C123.329 293.461 123.205 293.573 123.058 293.648C122.887 293.742 122.696 293.792 122.502 293.794ZM120.448 292.791C121.589 293.375 122.502 293.585 122.94 293.366C123.035 293.313 123.115 293.236 123.173 293.144C123.23 293.051 123.263 292.945 123.268 292.836C123.268 292.69 123.268 292.626 123.186 292.59C122.803 292.28 121.434 292.517 120.43 292.791H120.448Z" fill="#263238"/>
<path d="M119.992 292.946C119.944 292.946 119.898 292.926 119.864 292.892C119.851 292.866 119.844 292.838 119.844 292.81C119.844 292.781 119.851 292.753 119.864 292.727C119.864 292.645 120.458 290.665 121.388 290.218C121.507 290.164 121.637 290.135 121.767 290.135C121.898 290.135 122.027 290.164 122.146 290.218C122.274 290.258 122.385 290.34 122.461 290.451C122.537 290.562 122.574 290.695 122.566 290.829C122.502 291.651 120.832 292.782 120.065 292.974L119.992 292.946ZM121.763 290.455C121.674 290.458 121.587 290.48 121.507 290.519C120.941 290.793 120.476 291.86 120.248 292.508C121.051 292.171 122.155 291.276 122.192 290.774C122.192 290.692 122.192 290.592 121.982 290.501C121.913 290.464 121.839 290.439 121.763 290.428V290.455Z" fill="#263238"/>
<path d="M135.524 297.737C134.493 297.737 133.06 296.414 132.275 295.602C132.255 295.574 132.245 295.541 132.245 295.506C132.245 295.472 132.255 295.438 132.275 295.41C132.293 295.381 132.319 295.357 132.35 295.341C132.38 295.325 132.414 295.317 132.449 295.319C132.814 295.319 135.981 295.794 136.428 296.688C136.475 296.768 136.5 296.86 136.5 296.953C136.5 297.046 136.475 297.137 136.428 297.217C136.361 297.357 136.259 297.477 136.133 297.566C136.007 297.655 135.86 297.711 135.707 297.728L135.524 297.737ZM132.878 295.73C134.028 296.843 135.041 297.464 135.616 297.391C135.716 297.378 135.812 297.34 135.895 297.281C135.978 297.222 136.045 297.144 136.09 297.053C136.111 297.022 136.121 296.985 136.121 296.948C136.121 296.911 136.111 296.874 136.09 296.843C135.853 296.35 134.165 295.931 132.878 295.73Z" fill="#263238"/>
<path d="M132.979 295.684C132.774 295.69 132.569 295.675 132.367 295.638C132.339 295.634 132.312 295.623 132.29 295.605C132.268 295.587 132.25 295.564 132.239 295.538C132.226 295.511 132.219 295.481 132.219 295.451C132.219 295.421 132.226 295.391 132.239 295.365C132.294 295.301 133.526 293.813 134.694 293.713C135.025 293.687 135.353 293.792 135.607 294.005C135.963 294.315 135.945 294.589 135.853 294.762C135.625 295.383 134.046 295.684 132.979 295.684ZM132.741 295.346C133.764 295.401 135.397 295.063 135.607 294.616C135.607 294.616 135.68 294.47 135.443 294.27C135.348 294.187 135.238 294.126 135.119 294.088C134.999 294.05 134.874 294.037 134.749 294.05C133.962 294.27 133.262 294.726 132.741 295.356V295.346Z" fill="#263238"/>
<path d="M120.239 291.959L112.5 289.769C112.366 289.729 112.223 289.739 112.096 289.798C111.97 289.857 111.87 289.96 111.815 290.089L109.205 295.957C109.144 296.107 109.115 296.268 109.121 296.431C109.126 296.593 109.166 296.752 109.238 296.898C109.309 297.043 109.411 297.172 109.536 297.276C109.661 297.38 109.806 297.456 109.963 297.499C112.701 298.211 114.015 298.412 117.419 299.388C119.518 299.972 122.511 301.058 125.404 301.879C128.297 302.701 129.264 299.881 128.142 299.278C123.068 296.595 122.666 294.715 121.279 292.708C121.031 292.344 120.662 292.079 120.239 291.959Z" fill="#008037"/>
<path d="M132.485 294.533L125.878 289.97C125.766 289.889 125.628 289.851 125.49 289.864C125.352 289.878 125.224 289.942 125.13 290.043L120.749 294.752C120.643 294.874 120.563 295.017 120.516 295.172C120.469 295.327 120.455 295.49 120.476 295.65C120.496 295.811 120.551 295.965 120.636 296.103C120.721 296.241 120.834 296.359 120.968 296.45C123.296 298.01 124.5 298.64 127.411 300.657C129.237 301.898 132.768 304.654 135.232 306.37C137.696 308.085 139.531 305.731 138.655 304.8C134.73 300.611 133.873 297.983 133.225 295.601C133.112 295.169 132.85 294.791 132.485 294.533Z" fill="#008037"/>
<path d="M127.129 286.046L115.219 280.123L116.451 276.893L129.173 283.135L127.129 286.046Z" fill="#008037"/>
<path d="M111.642 174.416L110.638 177.045C110.538 177.246 110.775 177.455 111.113 177.455H141.301C141.566 177.455 141.785 177.328 141.803 177.163L142.059 174.553C142.059 174.38 141.849 174.225 141.566 174.225H112.116C112.028 174.217 111.938 174.23 111.856 174.263C111.773 174.296 111.7 174.349 111.642 174.416Z" fill="#008037"/>
<path opacity="0.4" d="M111.642 174.416L110.638 177.045C110.538 177.246 110.775 177.455 111.113 177.455H141.301C141.566 177.455 141.785 177.328 141.803 177.163L142.059 174.553C142.059 174.38 141.849 174.225 141.566 174.225H112.116C112.028 174.217 111.938 174.23 111.856 174.263C111.773 174.296 111.7 174.349 111.642 174.416Z" fill="white"/>
<path d="M116.396 177.712H115.602C115.447 177.712 115.328 177.629 115.337 177.529L115.712 174.143C115.712 174.052 115.858 173.97 116.013 173.97H116.807C116.962 173.97 117.08 174.052 117.071 174.143L116.697 177.529C116.688 177.629 116.551 177.712 116.396 177.712Z" fill="#008037"/>
<path d="M135.013 177.712H134.229C134.073 177.712 133.955 177.629 133.964 177.529L134.329 174.143C134.329 174.052 134.484 173.97 134.639 173.97H135.424C135.579 173.97 135.707 174.052 135.689 174.143L135.324 177.529C135.278 177.629 135.178 177.712 135.013 177.712Z" fill="#008037"/>
<g style="mix-blend-mode:multiply">
<path d="M115.703 332.261C129.206 332.261 140.152 331.468 140.152 330.49C140.152 329.513 129.206 328.72 115.703 328.72C102.2 328.72 91.2544 329.513 91.2544 330.49C91.2544 331.468 102.2 332.261 115.703 332.261Z" fill="#F5F5F5"/>
</g>
<path d="M130.597 327.99C126.271 326.731 121.471 325.116 118.569 323.427C118.487 323.372 118.396 323.345 118.314 323.299V303.715H127.065C127.73 303.676 128.354 303.384 128.81 302.9C129.267 302.415 129.521 301.775 129.521 301.11C129.521 300.444 129.267 299.804 128.81 299.319C128.354 298.835 127.73 298.543 127.065 298.504H118.359V209.233H113.103V298.504H104.406C104.05 298.483 103.695 298.535 103.36 298.656C103.026 298.778 102.72 298.966 102.461 299.21C102.202 299.454 101.996 299.749 101.855 300.075C101.714 300.402 101.641 300.754 101.641 301.11C101.641 301.465 101.714 301.817 101.855 302.144C101.996 302.471 102.202 302.765 102.461 303.009C102.72 303.253 103.026 303.441 103.36 303.563C103.695 303.684 104.05 303.736 104.406 303.715H113.103V323.272C113.02 323.272 112.938 323.345 112.856 323.4C109.908 325.116 105.145 326.731 100.819 327.963C100.527 328.051 100.276 328.241 100.112 328.499C99.9475 328.756 99.8809 329.064 99.9239 329.366C99.9669 329.668 100.117 329.945 100.346 330.146C100.576 330.348 100.87 330.46 101.175 330.463H130.241C130.533 330.443 130.809 330.324 131.023 330.125C131.238 329.926 131.377 329.66 131.419 329.371C131.461 329.081 131.402 328.786 131.252 328.535C131.103 328.284 130.871 328.092 130.597 327.99Z" fill="#E0E0E0"/>
<path d="M131.938 200.143H99.4861C96.8753 200.143 94.7588 202.26 94.7588 204.87V214.517C94.7588 217.127 96.8753 219.244 99.4861 219.244H131.938C134.549 219.244 136.665 217.127 136.665 214.517V204.87C136.665 202.26 134.549 200.143 131.938 200.143Z" fill="#008037"/>
<path d="M99.1846 219.253V220.914C99.1846 222.283 100.672 223.397 102.497 223.397H128.963C130.788 223.397 132.275 222.283 132.275 220.914V219.253H99.1846Z" fill="#008037"/>
<path opacity="0.3" d="M99.1846 219.253V220.914C99.1846 222.283 100.672 223.397 102.497 223.397H128.963C130.788 223.397 132.275 222.283 132.275 220.914V219.253H99.1846Z" fill="white"/>
</svg>
