<svg width="512" height="382" viewBox="0 0 512 382" fill="none" xmlns="http://www.w3.org/2000/svg">
<path d="M512 335.257H0V335.513H512V335.257Z" fill="#EBEBEB"/>
<path d="M460.698 351.734H426.783V351.99H460.698V351.734Z" fill="#EBEBEB"/>
<path d="M339.17 354.52H330.271V354.776H339.17V354.52Z" fill="#EBEBEB"/>
<path d="M425.759 342.231H406.108V342.487H425.759V342.231Z" fill="#EBEBEB"/>
<path d="M97.9453 343.952H53.7188V344.208H97.9453V343.952Z" fill="#EBEBEB"/>
<path d="M113.552 343.952H107.07V344.208H113.552V343.952Z" fill="#EBEBEB"/>
<path d="M230.553 348.273H134.625V348.529H230.553V348.273Z" fill="#EBEBEB"/>
<path d="M242.688 289.587H44.9638C43.4148 289.585 41.9302 288.967 40.8359 287.871C39.7416 286.775 39.127 285.289 39.127 283.74V5.79584C39.1404 4.25577 39.761 2.78321 40.8539 1.69802C41.9467 0.612821 43.4236 0.00263822 44.9638 0H242.688C244.239 0 245.726 0.616026 246.822 1.71256C247.919 2.80909 248.535 4.29631 248.535 5.84704V283.74C248.535 285.291 247.919 286.778 246.822 287.875C245.726 288.971 244.239 289.587 242.688 289.587ZM44.9638 0.204801C43.4827 0.207513 42.0632 0.797763 41.0169 1.84599C39.9706 2.89422 39.383 4.31478 39.383 5.79584V283.74C39.383 285.221 39.9706 286.642 41.0169 287.69C42.0632 288.738 43.4827 289.329 44.9638 289.331H242.688C244.17 289.329 245.59 288.739 246.638 287.691C247.686 286.643 248.276 285.222 248.279 283.74V5.79584C248.276 4.31384 247.686 2.8933 246.638 1.84537C245.59 0.79743 244.17 0.207508 242.688 0.204801H44.9638Z" fill="#EBEBEB"/>
<path d="M464.189 289.587H266.455C264.905 289.585 263.419 288.968 262.323 287.872C261.228 286.776 260.611 285.29 260.608 283.74V5.79584C260.624 4.25484 261.247 2.78229 262.341 1.69738C263.436 0.612463 264.914 0.00260945 266.455 0H464.189C465.728 0.0053294 467.202 0.616703 468.293 1.70161C469.383 2.78652 470.002 4.25754 470.016 5.79584V283.74C470.016 285.287 469.403 286.772 468.311 287.867C467.219 288.963 465.737 289.582 464.189 289.587ZM266.455 0.204801C264.973 0.207508 263.552 0.79743 262.504 1.84537C261.457 2.8933 260.867 4.31384 260.864 5.79584V283.74C260.867 285.222 261.457 286.643 262.504 287.691C263.552 288.739 264.973 289.329 266.455 289.331H464.189C465.671 289.329 467.092 288.739 468.14 287.691C469.188 286.643 469.778 285.222 469.78 283.74V5.79584C469.778 4.31384 469.188 2.8933 468.14 1.84537C467.092 0.79743 465.671 0.207508 464.189 0.204801H266.455Z" fill="#EBEBEB"/>
<path d="M168.438 11.007H95.4775V258.518H168.438V11.007Z" fill="#FAFAFA"/>
<path d="M157.573 11.007H153.313L127.867 258.518H132.127L157.573 11.007Z" fill="#F5F5F5"/>
<path d="M167.147 11.9604H95.0063V14.1416H167.147V11.9604Z" fill="#E0E0E0"/>
<path d="M167.147 256.349H95.0063V261.019H167.147V256.349Z" fill="#EBEBEB"/>
<path d="M165.949 260.813H97.7817V261.018H165.949V260.813Z" fill="#EBEBEB"/>
<path d="M97.782 11.9602H165.95V260.813H170.035V8.89844H93.6963V260.813H97.782V11.9602Z" fill="#EBEBEB"/>
<path d="M249.631 11.007H176.671V258.518H249.631V11.007Z" fill="#FAFAFA"/>
<path d="M229.386 11.007H206.13L180.684 258.518H203.939L229.386 11.007Z" fill="#F5F5F5"/>
<path d="M250.389 11.9604H176.2V14.1416H250.389V11.9604Z" fill="#E0E0E0"/>
<path d="M250.389 256.349H176.2V261.019H250.389V256.349Z" fill="#EBEBEB"/>
<path d="M247.143 260.813H178.975V261.018H247.143V260.813Z" fill="#EBEBEB"/>
<path d="M178.975 11.9602H247.143V260.813H251.219V8.89844H174.89V260.813H178.975V11.9602Z" fill="#EBEBEB"/>
<path d="M328.765 11.007H257.853V258.518H328.765V11.007Z" fill="#FAFAFA"/>
<path d="M298.035 11.007H293.775L268.329 258.518H272.588L298.035 11.007Z" fill="#F5F5F5"/>
<path d="M329.534 11.9604H257.393V14.1416H329.534V11.9604Z" fill="#E0E0E0"/>
<path d="M329.534 256.349H257.393V261.019H329.534V256.349Z" fill="#EBEBEB"/>
<path d="M328.335 260.813H260.167V261.018H328.335V260.813Z" fill="#EBEBEB"/>
<path d="M260.168 11.9602H328.325V260.813H332.411V8.89844H256.082V260.813H260.168V11.9602Z" fill="#EBEBEB"/>
<path d="M412.006 11.007H339.046V258.518H412.006V11.007Z" fill="#FAFAFA"/>
<path d="M404.868 11.007H381.613L356.157 258.518H379.422L404.868 11.007Z" fill="#F5F5F5"/>
<path d="M410.716 11.9604H338.575V14.1416H410.716V11.9604Z" fill="#E0E0E0"/>
<path d="M410.716 256.349H338.575V261.019H410.716V256.349Z" fill="#EBEBEB"/>
<path d="M341.351 11.9602H409.519V260.813H413.604V8.89844H337.275V260.813H341.351V11.9602Z" fill="#EBEBEB"/>
<path d="M409.517 260.813H341.35V261.018H409.517V260.813Z" fill="#EBEBEB"/>
<path d="M150.979 201.586H119.307V256.36H150.979V201.586Z" fill="#EBEBEB"/>
<path d="M144.896 193.927V207.669H142.408H127.887H125.389V193.927H144.896Z" fill="#EBEBEB"/>
<path d="M144.896 207.667H148.951V203.612H144.896V207.667Z" fill="#FAFAFA"/>
<path d="M137.051 207.667H141.106V203.612H137.051V207.667Z" fill="#FAFAFA"/>
<path d="M129.198 207.667H133.253V203.612H129.198V207.667Z" fill="#FAFAFA"/>
<path d="M121.344 207.667H125.399V203.612H121.344V207.667Z" fill="#F0F0F0"/>
<path d="M144.896 215.03H148.951V210.975H144.896V215.03Z" fill="#F0F0F0"/>
<path d="M137.051 215.03H141.106V210.975H137.051V215.03Z" fill="#F0F0F0"/>
<path d="M129.198 215.03H133.253V210.975H129.198V215.03Z" fill="#FAFAFA"/>
<path d="M121.344 215.03H125.399V210.975H121.344V215.03Z" fill="#FAFAFA"/>
<path d="M144.896 222.402H148.951V218.347H144.896V222.402Z" fill="#F0F0F0"/>
<path d="M137.051 222.402H141.106V218.347H137.051V222.402Z" fill="#FAFAFA"/>
<path d="M129.198 222.402H133.253V218.347H129.198V222.402Z" fill="#FAFAFA"/>
<path d="M137.051 201.296H141.106V197.241H137.051V201.296Z" fill="#FAFAFA"/>
<path d="M129.198 201.296H133.253V197.241H129.198V201.296Z" fill="#F0F0F0"/>
<path d="M121.344 222.402H125.399V218.347H121.344V222.402Z" fill="#F0F0F0"/>
<path d="M144.896 229.776H148.951V225.721H144.896V229.776Z" fill="#FAFAFA"/>
<path d="M137.051 229.776H141.106V225.721H137.051V229.776Z" fill="#F0F0F0"/>
<path d="M129.198 229.776H133.253V225.721H129.198V229.776Z" fill="#F0F0F0"/>
<path d="M121.344 229.776H125.399V225.721H121.344V229.776Z" fill="#FAFAFA"/>
<path d="M144.896 237.148H148.951V233.093H144.896V237.148Z" fill="#F0F0F0"/>
<path d="M137.051 237.148H141.106V233.093H137.051V237.148Z" fill="#FAFAFA"/>
<path d="M129.198 237.148H133.253V233.093H129.198V237.148Z" fill="#FAFAFA"/>
<path d="M121.344 237.148H125.399V233.093H121.344V237.148Z" fill="#F0F0F0"/>
<path d="M144.896 244.511H148.951V240.456H144.896V244.511Z" fill="#F0F0F0"/>
<path d="M137.051 244.511H141.106V240.456H137.051V244.511Z" fill="#FAFAFA"/>
<path d="M129.198 244.511H133.253V240.456H129.198V244.511Z" fill="#F0F0F0"/>
<path d="M121.344 244.511H125.399V240.456H121.344V244.511Z" fill="#FAFAFA"/>
<path d="M144.896 251.883H148.951V247.828H144.896V251.883Z" fill="#FAFAFA"/>
<path d="M137.051 251.883H141.106V247.828H137.051V251.883Z" fill="#FAFAFA"/>
<path d="M129.198 251.883H133.253V247.828H129.198V251.883Z" fill="#F0F0F0"/>
<path d="M121.344 251.883H125.399V247.828H121.344V251.883Z" fill="#F0F0F0"/>
<path d="M374.108 221.532H345.733V256.348H374.108V221.532Z" fill="#F0F0F0"/>
<path d="M348.201 225.403H354.795H356.618H358.43V229.028H356.618H354.795H348.201V225.403Z" fill="#E6E6E6"/>
<path d="M348.201 232.437H354.795H356.618H358.43V236.072H356.618H354.795H348.201V232.437Z" fill="#FAFAFA"/>
<path d="M348.201 239.472H354.795H356.618H358.43V243.107H356.618H354.795H348.201V239.472Z" fill="#E6E6E6"/>
<path d="M348.201 246.509H354.795H357.601H358.43V250.144H357.601H354.795H348.201V246.509Z" fill="#FAFAFA"/>
<path d="M361.401 225.403H368.006H369.818H371.631V229.028H369.818H368.006H361.401V225.403Z" fill="#FAFAFA"/>
<path d="M361.401 232.437H368.006H370.566H371.631V236.072H370.566H368.006H361.401V232.437Z" fill="#FAFAFA"/>
<path d="M361.401 239.472H368.006H369.818H371.631V243.107H369.818H368.006H361.401V239.472Z" fill="#E6E6E6"/>
<path d="M361.401 246.509H368.006H369.818H371.631V250.144H369.818H368.006H361.401V246.509Z" fill="#FAFAFA"/>
<path d="M237.374 234.72H211.59V256.357H237.374V234.72Z" fill="#F0F0F0"/>
<path d="M232.427 240.722H235.725V237.425H232.427V240.722Z" fill="#FAFAFA"/>
<path d="M226.037 240.722H229.334V237.425H226.037V240.722Z" fill="#FAFAFA"/>
<path d="M219.637 240.722H222.934V237.425H219.637V240.722Z" fill="#FAFAFA"/>
<path d="M213.248 240.722H216.545V237.425H213.248V240.722Z" fill="#FAFAFA"/>
<path d="M232.427 246.712H235.725V243.415H232.427V246.712Z" fill="#FAFAFA"/>
<path d="M226.037 246.712H229.334V243.415H226.037V246.712Z" fill="#FAFAFA"/>
<path d="M219.637 246.712H222.934V243.415H219.637V246.712Z" fill="#FAFAFA"/>
<path d="M213.248 246.712H216.545V243.415H213.248V246.712Z" fill="#E6E6E6"/>
<path d="M232.427 252.714H235.725V249.417H232.427V252.714Z" fill="#E6E6E6"/>
<path d="M226.037 252.714H229.334V249.417H226.037V252.714Z" fill="#E6E6E6"/>
<path d="M219.637 252.714H222.934V249.417H219.637V252.714Z" fill="#FAFAFA"/>
<path d="M213.248 252.714H216.545V249.417H213.248V252.714Z" fill="#E6E6E6"/>
<path d="M208.097 218.726H182.312V256.358H208.097V218.726Z" fill="#F0F0F0"/>
<path d="M206.448 220.375H196.75V229.673H206.448V220.375Z" fill="#FAFAFA"/>
<path d="M193.659 220.375H183.961V229.673H193.659V220.375Z" fill="#FAFAFA"/>
<path d="M206.448 232.367H196.75V241.665H206.448V232.367Z" fill="#FAFAFA"/>
<path d="M193.659 232.367H183.961V241.665H193.659V232.367Z" fill="#FAFAFA"/>
<path d="M206.448 244.357H196.75V253.655H206.448V244.357Z" fill="#FAFAFA"/>
<path d="M193.659 244.357H183.961V253.655H193.659V244.357Z" fill="#FAFAFA"/>
<path d="M255.999 381.503C365.651 381.503 454.542 376.313 454.542 369.911C454.542 363.509 365.651 358.319 255.999 358.319C146.346 358.319 57.4556 363.509 57.4556 369.911C57.4556 376.313 146.346 381.503 255.999 381.503Z" fill="#F5F5F5"/>
<path d="M411.545 335.065C411.545 335.065 404.807 320.381 412.497 305.891C420.187 291.401 422.43 287.992 417.525 285.032C412.62 282.073 410.357 296.614 410.357 296.614C410.357 296.614 406.261 286.599 409.63 276.134C412.999 265.668 415.19 248.588 410.531 246.755C405.872 244.922 409.64 268.044 405.595 275.929C403.533 270.394 402.201 264.615 401.632 258.736C401.079 250.319 401.95 236.884 398.263 233.433C394.577 229.982 392.232 232.409 395.847 250.943C398.02 262.044 399.222 273.313 399.441 284.623C399.441 284.623 391.443 260.251 386.129 259.545C380.814 258.838 380.773 266.713 385.371 273.563C389.969 280.414 398.775 292.661 400.219 299.01C400.219 299.01 391.454 280.68 383.559 286.292C375.664 291.903 390.43 302.993 397.004 306.997C403.578 311.001 408.155 336.079 408.155 336.079L411.545 335.065Z" fill="#008037"/>
<path opacity="0.2" d="M411.545 335.065C411.545 335.065 404.807 320.381 412.497 305.891C420.187 291.401 422.43 287.992 417.525 285.032C412.62 282.073 410.357 296.614 410.357 296.614C410.357 296.614 406.261 286.599 409.63 276.134C412.999 265.668 415.19 248.588 410.531 246.755C405.872 244.922 409.64 268.044 405.595 275.929C403.533 270.394 402.201 264.615 401.632 258.736C401.079 250.319 401.95 236.884 398.263 233.433C394.577 229.982 392.232 232.409 395.847 250.943C398.02 262.044 399.222 273.313 399.441 284.623C399.441 284.623 391.443 260.251 386.129 259.545C380.814 258.838 380.773 266.713 385.371 273.563C389.969 280.414 398.775 292.661 400.219 299.01C400.219 299.01 391.454 280.68 383.559 286.292C375.664 291.903 390.43 302.993 397.004 306.997C403.578 311.001 408.155 336.079 408.155 336.079L411.545 335.065Z" fill="black"/>
<path d="M406.22 341.097C406.22 341.097 412.784 326.3 404.92 311.933C397.056 297.567 394.772 294.187 399.646 291.146C404.521 288.105 406.937 302.625 406.937 302.625C406.937 302.625 410.951 292.559 407.418 282.145C403.886 271.731 401.53 254.681 406.169 252.787C410.808 250.893 407.316 274.066 411.453 281.879C413.451 276.319 414.711 270.522 415.201 264.635C415.662 256.207 414.627 242.783 418.273 239.28C421.918 235.778 424.304 238.134 420.905 256.76C418.867 267.887 417.801 279.169 417.72 290.48C417.72 290.48 425.42 265.997 430.776 265.208C436.131 264.42 436.213 272.304 431.708 279.216C427.202 286.128 418.498 298.519 417.116 304.816C417.116 304.816 425.666 286.384 433.623 291.863C441.579 297.341 426.956 308.656 420.433 312.752C413.911 316.848 409.6 342.018 409.6 342.018L406.22 341.097Z" fill="#008037"/>
<path d="M436.469 330.55H382.299L386.682 369.318H432.086L436.469 330.55Z" fill="#813405"/>
<path d="M159.365 86.7852H123.617C122.241 86.7852 120.92 87.3321 119.946 88.3058C118.973 89.2794 118.426 90.5999 118.426 91.9768V126.731C118.426 128.108 118.973 129.429 119.946 130.402C120.92 131.376 122.241 131.923 123.617 131.923H135.056L127.355 142.388L140.667 131.923H159.355C160.732 131.923 162.053 131.376 163.026 130.402C164 129.429 164.547 128.108 164.547 126.731V91.9768C164.547 90.6017 164.001 89.2827 163.03 88.3094C162.058 87.336 160.74 86.7879 159.365 86.7852Z" fill="#008037"/>
<path opacity="0.6" d="M159.365 86.7852H123.617C122.241 86.7852 120.92 87.3321 119.946 88.3058C118.973 89.2794 118.426 90.5999 118.426 91.9768V126.731C118.426 128.108 118.973 129.429 119.946 130.402C120.92 131.376 122.241 131.923 123.617 131.923H135.056L127.355 142.388L140.667 131.923H159.355C160.732 131.923 162.053 131.376 163.026 130.402C164 129.429 164.547 128.108 164.547 126.731V91.9768C164.547 90.6017 164.001 89.2827 163.03 88.3094C162.058 87.336 160.74 86.7879 159.365 86.7852Z" fill="white"/>
<path d="M141.496 125.585C150.46 125.585 157.726 118.319 157.726 109.355C157.726 100.391 150.46 93.1244 141.496 93.1244C132.532 93.1244 125.266 100.391 125.266 109.355C125.266 118.319 132.532 125.585 141.496 125.585Z" fill="#008037"/>
<path opacity="0.2" d="M155.035 112.54C156.8 105.06 152.168 97.5646 144.687 95.7992C137.207 94.0337 129.712 98.6664 127.947 106.147C126.181 113.627 130.814 121.122 138.294 122.887C145.774 124.653 153.269 120.02 155.035 112.54Z" fill="black"/>
<path d="M139.767 116C139.578 116.004 139.391 115.971 139.215 115.903C139.039 115.834 138.879 115.732 138.743 115.601L132.834 109.815C132.563 109.552 132.407 109.191 132.401 108.813C132.395 108.435 132.54 108.07 132.803 107.798C133.067 107.527 133.427 107.371 133.806 107.365C134.184 107.359 134.549 107.504 134.821 107.767L139.664 112.508L148.041 103.159C148.297 102.901 148.644 102.75 149.008 102.739C149.373 102.728 149.728 102.858 149.999 103.101C150.271 103.344 150.44 103.682 150.47 104.045C150.499 104.409 150.389 104.77 150.16 105.054L140.791 115.509C140.661 115.653 140.504 115.77 140.328 115.851C140.152 115.932 139.961 115.976 139.767 115.98V116Z" fill="white"/>
<path d="M95.1287 346.031L124.63 343.123V309.854H136.324V343.113L165.949 346.031C167.368 346.169 168.685 346.831 169.644 347.887C170.602 348.944 171.132 350.319 171.13 351.745V356.179H89.9473V351.745C89.9457 350.319 90.4757 348.944 91.4337 347.887C92.3918 346.831 93.7092 346.169 95.1287 346.031Z" fill="#263238"/>
<path opacity="0.1" d="M95.1287 346.031L124.63 343.123V309.854H136.324V343.113L165.949 346.031C167.368 346.169 168.685 346.831 169.644 347.887C170.602 348.944 171.132 350.319 171.13 351.745V356.179H89.9473V351.745C89.9457 350.319 90.4757 348.944 91.4337 347.887C92.3918 346.831 93.7092 346.169 95.1287 346.031Z" fill="white"/>
<path d="M168.007 369.318C172.232 369.318 175.656 365.893 175.656 361.669C175.656 357.444 172.232 354.02 168.007 354.02C163.783 354.02 160.358 357.444 160.358 361.669C160.358 365.893 163.783 369.318 168.007 369.318Z" fill="#263238"/>
<path d="M93.0707 369.318C97.2952 369.318 100.72 365.893 100.72 361.669C100.72 357.444 97.2952 354.02 93.0707 354.02C88.8461 354.02 85.4214 357.444 85.4214 361.669C85.4214 365.893 88.8461 369.318 93.0707 369.318Z" fill="#263238"/>
<path d="M134.102 318.763H126.812C125.69 318.763 124.614 318.318 123.821 317.525C123.028 316.731 122.582 315.656 122.582 314.534V281.828H138.332V314.534C138.332 315.656 137.886 316.731 137.093 317.525C136.3 318.318 135.224 318.763 134.102 318.763Z" fill="#263238"/>
<path opacity="0.2" d="M134.102 318.763H126.812C125.69 318.763 124.614 318.318 123.821 317.525C123.028 316.731 122.582 315.656 122.582 314.534V281.828H138.332V314.534C138.332 315.656 137.886 316.731 137.093 317.525C136.3 318.318 135.224 318.763 134.102 318.763Z" fill="white"/>
<path d="M89.6409 217.726C89.6409 217.726 98.4064 272.387 115.712 281.838H98.1196C98.1196 281.838 80.7116 263.201 75.4688 217.726H89.6409Z" fill="#263238"/>
<path opacity="0.1" d="M89.6409 217.726C89.6409 217.726 98.4064 272.387 115.712 281.838H98.1196C98.1196 281.838 80.7116 263.201 75.4688 217.726H89.6409Z" fill="white"/>
<path d="M97.2792 274.106H165.805C167.163 274.106 168.465 274.645 169.426 275.605C170.386 276.566 170.925 277.868 170.925 279.226V286.076H92.1592V279.226C92.1592 277.868 92.6986 276.566 93.6588 275.605C94.619 274.645 95.9213 274.106 97.2792 274.106Z" fill="#813405"/>
<path d="M172.114 280.087H90.9005C89.7638 280.087 88.8423 281.009 88.8423 282.145V284.009C88.8423 285.146 89.7638 286.067 90.9005 286.067H172.114C173.251 286.067 174.172 285.146 174.172 284.009V282.145C174.172 281.009 173.251 280.087 172.114 280.087Z" fill="#263238"/>
<path opacity="0.6" d="M172.114 280.087H90.9005C89.7638 280.087 88.8423 281.009 88.8423 282.145V284.009C88.8423 285.146 89.7638 286.067 90.9005 286.067H172.114C173.251 286.067 174.172 285.146 174.172 284.009V282.145C174.172 281.009 173.251 280.087 172.114 280.087Z" fill="white"/>
<path d="M73.3896 228.848H101.539C109.793 228.848 115.148 222.233 113.51 214.071L111.319 203.176C109.68 194.984 101.662 188.41 93.419 188.41H65.2693C57.0158 188.41 51.6603 195.025 53.2987 203.176L55.4901 214.071C57.1285 222.212 65.1362 228.848 73.3896 228.848Z" fill="#813405"/>
<path d="M222.76 320.402L216.309 322.931L211.67 314.186L207.451 306.23L214.599 301.949L218.92 311.708L222.76 320.402Z" fill="#E4897B"/>
<path opacity="0.2" d="M218.92 311.708L211.67 314.186L207.451 306.23L214.599 301.949L218.92 311.708Z" fill="black"/>
<path d="M217.579 306.936L208.803 311.647C208.803 311.647 175.635 253.33 170.536 253.822C165.436 254.313 117.052 285.135 102.297 273.749C87.5408 262.362 101.897 228.078 101.897 228.078C101.897 228.078 132.423 219.354 135.689 226.03C136.55 228.029 137.282 230.082 137.881 232.174C138.526 234.273 139.017 236.045 139.017 236.045C139.949 235.666 170.096 223.306 183.551 229.901C197.283 236.68 217.579 306.936 217.579 306.936Z" fill="#263238"/>
<path opacity="0.3" d="M217.579 306.936L208.803 311.647C208.803 311.647 175.635 253.33 170.536 253.822C165.436 254.313 117.052 285.135 102.297 273.749C87.5408 262.362 101.897 228.078 101.897 228.078C101.897 228.078 132.423 219.354 135.689 226.03C136.55 228.029 137.282 230.082 137.881 232.174C138.526 234.273 139.017 236.045 139.017 236.045C139.949 235.666 170.096 223.306 183.551 229.901C197.283 236.68 217.579 306.936 217.579 306.936Z" fill="white"/>
<path d="M169.901 354.49L163.019 353.702L162.979 343.994L162.968 335.085L171.293 334.696L170.556 345.172L169.901 354.49Z" fill="#E4897B"/>
<path opacity="0.2" d="M170.536 345.389L162.958 344.18V335.179L171.283 334.739L170.536 345.389Z" fill="black"/>
<path d="M204.513 308.747L217.354 302.316L218.695 307.764L208.967 312.781L204.513 308.747Z" fill="#008037"/>
<path d="M125.092 273.839C125.092 273.839 127.201 273.603 159.652 267.592C159.652 267.592 160.389 309.085 161.925 340.02L171.919 340.337C171.919 340.337 186.255 271.729 184.566 261.326C182.876 250.922 170.547 249.56 170.547 249.56C170.547 249.56 149.135 266.241 125.092 273.839Z" fill="#263238"/>
<path opacity="0.4" d="M125.092 273.839C125.092 273.839 127.201 273.603 159.652 267.592C159.652 267.592 160.389 309.085 161.925 340.02L171.919 340.337C171.919 340.337 186.255 271.729 184.566 261.326C182.876 250.922 170.547 249.56 170.547 249.56C170.547 249.56 149.135 266.241 125.092 273.839Z" fill="white"/>
<path opacity="0.3" d="M125.092 273.839C125.092 273.839 127.201 273.603 159.652 267.592C159.652 267.592 160.389 309.085 161.925 340.02L171.919 340.337C171.919 340.337 186.255 271.729 184.566 261.326C182.876 250.922 170.547 249.56 170.547 249.56C170.547 249.56 149.135 266.241 125.092 273.839Z" fill="black"/>
<path d="M160.092 337.256L173.721 336.938L171.858 342.55L160.798 342.652L160.092 337.256Z" fill="#008037"/>
<path opacity="0.3" d="M139.059 236.064L121.375 242.362C121.375 242.362 130.673 235.419 137.923 232.193C138.568 234.292 139.059 236.064 139.059 236.064Z" fill="black"/>
<path d="M99.8501 225.969L100.505 230.873L133.652 223.839L132.884 218.043L99.8501 225.969Z" fill="#263238"/>
<path opacity="0.2" d="M99.8501 225.969L100.505 230.873L133.652 223.839L132.884 218.043L99.8501 225.969Z" fill="black"/>
<path d="M110.832 222.404L109.181 222.71L110.741 231.117L112.392 230.811L110.832 222.404Z" fill="#263238"/>
<path d="M125.286 220.277L118.054 221.906L119.29 227.391L126.522 225.761L125.286 220.277Z" fill="white"/>
<path d="M129.936 216.853L128.291 217.155L129.83 225.534L131.475 225.232L129.936 216.853Z" fill="#263238"/>
<path opacity="0.3" d="M110.832 222.404L109.181 222.71L110.741 231.117L112.392 230.811L110.832 222.404Z" fill="white"/>
<path opacity="0.3" d="M129.936 216.853L128.291 217.155L129.83 225.534L131.475 225.232L129.936 216.853Z" fill="white"/>
<path d="M235.582 331.851C234.505 331.521 233.377 331.392 232.254 331.472C232.254 331.472 228.086 329.731 223.038 321.447L218.737 322.01C218.013 322.119 217.34 322.447 216.809 322.951C216.278 323.455 215.914 324.109 215.767 324.826C215.736 325.03 215.736 325.237 215.767 325.441C215.952 326.48 216.206 327.506 216.525 328.513C217.628 331.841 218.931 335.1 220.426 338.271L221.123 337.985L218.901 331.779C218.163 329.659 220.734 331.451 222.096 333.499C223.458 335.547 225.393 337.534 229.991 335.793C235.336 333.704 237.456 332.598 235.582 331.851Z" fill="#263238"/>
<path d="M221.961 319.243C221.961 319.243 228.863 329.729 232.252 331.47C232.252 331.47 228.453 334.542 223.385 329.606C216.841 323.268 215.746 325.439 215.746 325.439C215.687 324.197 215.745 322.952 215.92 321.721C216.442 319.315 221.961 319.243 221.961 319.243Z" fill="#E4897B"/>
<path d="M180.223 366.697C179.243 366.132 178.167 365.75 177.049 365.571C177.049 365.571 173.414 362.898 170.495 353.661L166.184 353.19C165.453 353.121 164.718 353.281 164.081 353.648C163.445 354.015 162.938 354.571 162.631 355.238C162.539 355.422 162.477 355.619 162.447 355.822C162.375 356.869 162.375 357.919 162.447 358.966C162.725 362.461 163.217 365.935 163.921 369.37L164.669 369.257L164.003 362.683C163.788 360.451 165.867 362.806 166.707 365.12C167.546 367.434 168.949 369.82 173.823 369.216C179.517 368.448 181.831 367.875 180.223 366.697Z" fill="#263238"/>
<path d="M169.984 351.235C169.984 351.235 174.203 363.062 177.08 365.571C177.08 365.571 172.667 367.619 168.888 361.659C164.024 353.949 162.458 355.802 162.458 355.802C162.687 354.585 163.029 353.392 163.482 352.239C164.567 349.986 169.984 351.235 169.984 351.235Z" fill="#E4897B"/>
<path d="M92.6303 142.337L83.9672 144.078C83.6288 144.363 83.229 144.566 82.7991 144.671C82.3692 144.775 81.9208 144.779 81.4892 144.682C78.9087 143.658 75.1916 140.658 74.7205 139.562C74.0242 138.016 74.7205 133.479 76.5432 132.66C78.366 131.841 84.6431 139.419 84.6431 139.419L93.9512 137.319L92.6303 142.337Z" fill="#E4897B"/>
<path d="M119.951 171.134C119.951 171.134 119.163 143.066 115.917 141.868C112.671 140.67 88.2687 144.018 88.2687 144.018L87.6748 137.608C87.6748 137.608 116.07 133.236 121.569 135.826C127.068 138.417 128.881 180.247 127.877 188.306L119.951 171.134Z" fill="#008037"/>
<path opacity="0.6" d="M119.951 171.134C119.951 171.134 119.163 143.066 115.917 141.868C112.671 140.67 88.2687 144.018 88.2687 144.018L87.6748 137.608C87.6748 137.608 116.07 133.236 121.569 135.826C127.068 138.417 128.881 180.247 127.877 188.306L119.951 171.134Z" fill="white"/>
<path d="M88.6881 144.632L86.9883 137.587L89.4254 136.707L90.9716 144.847L88.6881 144.632Z" fill="#008037"/>
<path opacity="0.7" d="M88.6881 144.632L86.9883 137.587L89.4254 136.707L90.9716 144.847L88.6881 144.632Z" fill="white"/>
<path d="M119.808 167.633C119.808 167.633 117.627 176.173 107.121 178.897C96.6146 181.62 84.9922 174.504 84.9922 174.504L87.3064 194.881L100.168 226.984L133.038 218.413C133.038 218.413 131.072 181.067 119.808 167.633Z" fill="#008037"/>
<path opacity="0.7" d="M119.808 167.633C119.808 167.633 117.627 176.173 107.121 178.897C96.6146 181.62 84.9922 174.504 84.9922 174.504L87.3064 194.881L100.168 226.984L133.038 218.413C133.038 218.413 131.072 181.067 119.808 167.633Z" fill="white"/>
<path opacity="0.6" d="M125.521 201.492L129.368 200.279C129.794 200.144 130.031 199.69 129.896 199.264L127.604 191.998C127.47 191.572 127.015 191.336 126.589 191.47L122.742 192.684C122.315 192.818 122.079 193.273 122.213 193.699L124.506 200.964C124.64 201.39 125.094 201.627 125.521 201.492Z" fill="#008037"/>
<path opacity="0.2" d="M124.737 199.28L129.112 197.899L127.223 191.913L122.848 193.293L124.737 199.28Z" fill="black"/>
<path d="M124.59 189.749L123.623 190.054L124.735 193.58L125.702 193.275L124.59 189.749Z" fill="#263238"/>
<path d="M97.463 135.735C89.3632 135.735 84.0179 144.316 85.9123 157.925C87.8067 171.534 95.3945 175.456 95.3945 175.456L94.9132 172.169C103.337 174.081 112.021 174.565 120.605 173.603C120.605 173.603 116.694 162.502 117.963 151.167C117.963 151.167 120.534 135.715 97.463 135.735Z" fill="#263238"/>
<path opacity="0.2" d="M113.55 176.132L116.858 188.42L111.042 183.986C111.042 183.986 116.704 196.93 118.21 204.466C118.21 204.466 113.315 191.635 109.096 184.601L106.628 191.646L96.7056 181.539C96.7056 181.539 105.471 174.821 113.55 176.132Z" fill="black"/>
<path d="M108.717 180.093L98.6206 180.4C103.095 174.676 95.0059 164.702 95.0059 164.702L104.98 166.863C107.355 176.734 111.462 177.031 111.462 177.031L108.717 180.093Z" fill="#E4897B"/>
<path opacity="0.2" d="M107.765 173.951C103.912 173.629 100.329 171.844 97.7502 168.964C96.9535 167.484 96.0355 166.073 95.0059 164.745L104.98 166.916C105.508 169.4 106.449 171.778 107.765 173.951Z" fill="black"/>
<path d="M104.969 139.901C113.663 140.628 116.079 145.512 115.967 154.534C115.834 165.798 112.68 173.549 102.01 170.252C87.5098 165.777 90.5204 138.692 104.969 139.901Z" fill="#E4897B"/>
<path d="M110.387 153.604C110.976 154.962 111.725 156.245 112.619 157.424C112.333 157.76 111.96 158.011 111.542 158.15C111.123 158.289 110.674 158.31 110.244 158.212L110.387 153.604Z" fill="#DE5753"/>
<path d="M104.499 152.149L106.383 151.534C106.383 151.534 105.38 153.029 104.499 152.149Z" fill="#263238"/>
<path d="M105.154 151.932C104.804 151.76 104.403 151.721 104.026 151.823C103.649 151.925 103.322 152.16 103.106 152.485C103.427 152.339 103.777 152.263 104.13 152.263C104.483 152.263 104.832 152.339 105.154 152.485V151.932Z" fill="#263238"/>
<path d="M101.652 147.786C101.555 147.783 101.463 147.743 101.396 147.673C101.36 147.64 101.332 147.599 101.312 147.554C101.293 147.509 101.283 147.461 101.283 147.412C101.283 147.363 101.293 147.315 101.312 147.27C101.332 147.225 101.36 147.184 101.396 147.151C101.967 146.651 102.646 146.291 103.38 146.1C104.114 145.908 104.882 145.889 105.625 146.045C105.721 146.065 105.806 146.123 105.859 146.206C105.913 146.288 105.932 146.389 105.911 146.485C105.891 146.582 105.833 146.666 105.751 146.72C105.668 146.774 105.568 146.792 105.471 146.772C104.852 146.645 104.211 146.66 103.598 146.814C102.985 146.968 102.414 147.258 101.928 147.663C101.894 147.702 101.851 147.734 101.803 147.755C101.756 147.776 101.704 147.787 101.652 147.786Z" fill="#263238"/>
<path d="M115.291 147.94C115.21 147.943 115.13 147.918 115.066 147.868C114.656 147.493 114.168 147.213 113.636 147.05C113.105 146.887 112.544 146.845 111.994 146.926C111.947 146.939 111.898 146.942 111.849 146.936C111.801 146.93 111.754 146.914 111.712 146.89C111.67 146.866 111.633 146.833 111.603 146.795C111.573 146.756 111.551 146.712 111.538 146.665C111.526 146.618 111.522 146.569 111.528 146.521C111.535 146.472 111.55 146.426 111.575 146.383C111.599 146.341 111.631 146.304 111.67 146.274C111.708 146.244 111.752 146.222 111.799 146.209C112.463 146.092 113.145 146.128 113.793 146.314C114.441 146.501 115.037 146.833 115.537 147.285C115.613 147.347 115.662 147.436 115.673 147.533C115.685 147.631 115.658 147.729 115.599 147.807C115.561 147.852 115.514 147.887 115.461 147.91C115.408 147.933 115.349 147.944 115.291 147.94Z" fill="#263238"/>
<path d="M94.2069 153.767C94.2069 153.767 98.8661 146.968 98.7125 141.397C98.7125 141.397 116.54 135.785 115.936 153.357C115.936 153.357 118.906 137.997 103.986 136.369C89.0664 134.741 87.3358 156.675 94.5141 163.843C94.5141 163.843 91.3499 158.027 94.2069 153.767Z" fill="#263238"/>
<path d="M95.5083 155.722C95.5083 154.708 95.1062 153.735 94.3902 153.018C93.6742 152.3 92.7027 151.895 91.6888 151.892C88.9649 151.964 87.2241 157.391 93.8187 159.285C94.7608 159.552 95.3854 158.661 95.5083 155.722Z" fill="#E4897B"/>
<path d="M110.316 160.77C109.678 161.627 109.106 162.531 108.606 163.474C108.432 163.412 108.247 163.361 108.073 163.289C105.667 162.44 104.827 161.241 104.632 160.217C104.541 159.697 104.58 159.163 104.745 158.661C104.83 158.373 104.954 158.097 105.114 157.842C106.365 159.031 107.861 159.933 109.496 160.484C109.988 160.668 110.316 160.77 110.316 160.77Z" fill="#263238"/>
<path d="M109.496 160.463L108.974 161.252C106.7 160.443 105.216 159.572 104.745 158.641C104.83 158.352 104.954 158.077 105.113 157.821C106.364 159.011 107.86 159.912 109.496 160.463Z" fill="white"/>
<path d="M108.072 163.29C105.666 162.44 104.826 161.242 104.631 160.218C105.542 160.553 106.384 161.049 107.12 161.682C107.596 162.106 107.929 162.668 108.072 163.29Z" fill="#DE5753"/>
<path d="M104.735 140.545C104.735 140.545 100.034 154.564 91.0438 153.601C82.053 152.639 97.4642 135.702 97.4642 135.702C97.4642 135.702 112.63 131.37 119.234 139.798C125.839 148.225 115.968 153.335 115.968 153.335C115.968 153.335 117.442 142.337 104.735 140.545Z" fill="#263238"/>
<path d="M97.5661 152.476C97.5141 152.473 97.4638 152.457 97.4205 152.428C97.3772 152.399 97.3426 152.359 97.3203 152.312C97.2969 152.247 97.2999 152.175 97.3286 152.112C97.3572 152.049 97.4094 151.999 97.474 151.974C104.642 149.24 104.478 139.625 104.478 139.522C104.475 139.489 104.479 139.455 104.491 139.423C104.502 139.391 104.52 139.363 104.543 139.338C104.566 139.314 104.594 139.295 104.626 139.283C104.657 139.27 104.69 139.265 104.724 139.266C104.79 139.268 104.854 139.294 104.903 139.339C104.952 139.384 104.983 139.446 104.99 139.512C104.99 139.614 105.154 149.588 97.6583 152.455L97.5661 152.476Z" fill="#263238"/>
<path d="M113.326 152.999L115.21 152.395C115.21 152.395 114.197 153.88 113.326 152.999Z" fill="#263238"/>
<path d="M113.981 152.784C113.63 152.611 113.227 152.572 112.85 152.676C112.472 152.78 112.146 153.019 111.933 153.348C112.25 153.19 112.597 153.103 112.95 153.092C113.304 153.082 113.656 153.148 113.981 153.286V152.784Z" fill="#263238"/>
<path d="M100.044 176.264L107.653 180.135L107.53 187.845L96.6548 181.507L100.044 176.264Z" fill="#008037"/>
<path d="M108.81 174.81L109.261 179.489L114.227 184.743L113.551 176.1L108.81 174.81Z" fill="#008037"/>
<path d="M73.6564 121.858L70.482 113.666C70.5399 113.228 70.4952 112.783 70.3512 112.365C70.2072 111.948 69.968 111.569 69.6525 111.26C67.4407 109.611 62.8737 108.116 61.7268 108.29C60.0577 108.536 56.6068 111.557 56.9037 113.533C57.2007 115.51 66.9492 116.728 66.9492 116.728L70.185 125.709L73.6564 121.858Z" fill="#E4897B"/>
<path d="M87.3266 194.88C87.3266 194.88 93.4706 189.996 91.0233 179.203L84.4185 149.343L73.0725 118.5L67.5225 121.306C67.5225 121.306 76.8409 151.442 77.701 153.48C78.1413 154.504 79.8924 170.14 82.2783 180.616C84.4697 190.262 87.3266 194.88 87.3266 194.88Z" fill="#008037"/>
<path opacity="0.6" d="M87.3266 194.88C87.3266 194.88 93.4706 189.996 91.0233 179.203L84.4185 149.343L73.0725 118.5L67.5225 121.306C67.5225 121.306 76.8409 151.442 77.701 153.48C78.1413 154.504 79.8924 170.14 82.2783 180.616C84.4697 190.262 87.3266 194.88 87.3266 194.88Z" fill="white"/>
<path d="M66.5498 120.426L73.0317 117.179L74.4448 119.34L66.8673 122.699L66.5498 120.426Z" fill="#008037"/>
<path opacity="0.7" d="M66.5498 120.426L73.0317 117.179L74.4448 119.34L66.8673 122.699L66.5498 120.426Z" fill="white"/>
<path opacity="0.6" d="M100.044 176.264L107.653 180.135L107.53 187.845L96.6548 181.507L100.044 176.264Z" fill="white"/>
<path opacity="0.6" d="M108.81 174.81L109.261 179.489L114.227 184.743L113.551 176.1L108.81 174.81Z" fill="white"/>
<path d="M324.876 160.162H294.197V184.001H324.876V160.162Z" fill="white"/>
<path opacity="0.1" d="M324.876 160.162H317.011V184.001H324.876V160.162Z" fill="black"/>
<path d="M292.435 205.054H327.118V161.79H315.946L292.435 173.044V205.054Z" fill="#008037"/>
<path opacity="0.2" d="M327.119 161.79H315.947V205.054H327.119V161.79Z" fill="black"/>
<path opacity="0.7" d="M312.25 181.576H296.01V189.358H312.25V181.576Z" fill="white"/>
<path opacity="0.7" d="M312.25 191.958H296.01V193.074H312.25V191.958Z" fill="white"/>
<path opacity="0.7" d="M326.033 195.224H317.011V201.828H326.033V195.224Z" fill="white"/>
<path d="M311.84 158.862H281.161V184.001H311.84V158.862Z" fill="white"/>
<path opacity="0.1" d="M311.841 158.862H303.977V184.001H311.841V158.862Z" fill="black"/>
<path d="M279.4 205.054H314.083V161.79H302.911L279.4 173.044V205.054Z" fill="#008037"/>
<path opacity="0.2" d="M314.082 161.79H302.911V205.054H314.082V161.79Z" fill="black"/>
<path opacity="0.7" d="M299.214 181.576H282.974V189.358H299.214V181.576Z" fill="white"/>
<path opacity="0.7" d="M299.214 191.958H282.974V193.074H299.214V191.958Z" fill="white"/>
<path opacity="0.7" d="M312.998 195.224H303.977V201.828H312.998V195.224Z" fill="white"/>
<path d="M257.856 369.314H264.133L275.397 212.386H267.072L257.856 369.314Z" fill="#263238"/>
<path opacity="0.1" d="M257.856 369.314H264.133L274.844 220.179L275.397 212.642H267.072L266.632 220.179L257.856 369.314Z" fill="white"/>
<path opacity="0.2" d="M266.631 219.81H274.843L275.396 212.642H267.071L266.631 219.81Z" fill="black"/>
<path d="M211.816 369.314H218.093L219.117 212.386H210.792L211.816 369.314Z" fill="#263238"/>
<path opacity="0.1" d="M210.782 212.642L210.956 237.955L211.806 369.314H218.083L218.943 237.955L219.107 212.642H210.782Z" fill="white"/>
<path opacity="0.2" d="M210.782 212.642L210.956 238.242H218.943L219.107 212.642H210.782Z" fill="black"/>
<path d="M145.215 369.314H151.492L162.756 212.386H154.431L145.215 369.314Z" fill="#263238"/>
<path opacity="0.1" d="M145.215 369.314H151.492L162.214 220.179L162.756 212.642H154.431L153.991 220.179L145.215 369.314Z" fill="white"/>
<path opacity="0.2" d="M153.991 219.81H162.213L162.756 212.642H154.431L153.991 219.81Z" fill="black"/>
<path d="M329.618 369.314H335.895L326.668 212.386H318.343L329.618 369.314Z" fill="#263238"/>
<path opacity="0.1" d="M318.343 212.642L318.906 220.179L329.618 369.314H335.884L327.119 220.179L326.668 212.642H318.343Z" fill="white"/>
<path opacity="0.2" d="M326.668 212.642H318.343L318.906 219.81H327.119L326.668 212.642Z" fill="black"/>
<path d="M331.061 216.32L150.059 216.32C149.768 216.32 149.481 216.263 149.212 216.152C148.944 216.041 148.7 215.878 148.495 215.672C148.289 215.467 148.127 215.223 148.015 214.955C147.904 214.686 147.847 214.399 147.847 214.108V208.466L333.273 208.466V214.108C333.273 214.399 333.216 214.686 333.105 214.955C332.993 215.223 332.83 215.467 332.625 215.672C332.42 215.878 332.176 216.041 331.908 216.152C331.639 216.263 331.352 216.32 331.061 216.32Z" fill="#008037"/>
<path opacity="0.4" d="M331.061 216.32L150.059 216.32C149.768 216.32 149.481 216.263 149.212 216.152C148.944 216.041 148.7 215.878 148.495 215.672C148.289 215.467 148.127 215.223 148.015 214.955C147.904 214.686 147.847 214.399 147.847 214.108V208.466L333.273 208.466V214.108C333.273 214.399 333.216 214.686 333.105 214.955C332.993 215.223 332.83 215.467 332.625 215.672C332.42 215.878 332.176 216.041 331.908 216.152C331.639 216.263 331.352 216.32 331.061 216.32Z" fill="white"/>
<path opacity="0.2" d="M147.847 212.386L333.273 212.386V208.454L147.847 208.454V212.386Z" fill="black"/>
<path d="M143.955 209.479H337.154C337.444 209.48 337.733 209.424 338.002 209.313C338.271 209.202 338.515 209.04 338.721 208.834C338.926 208.628 339.089 208.384 339.2 208.115C339.31 207.846 339.367 207.558 339.365 207.267C339.365 206.68 339.132 206.118 338.718 205.703C338.303 205.288 337.74 205.055 337.154 205.055H143.955C143.368 205.055 142.804 205.288 142.388 205.702C141.971 206.117 141.736 206.679 141.733 207.267C141.733 207.558 141.791 207.847 141.903 208.116C142.015 208.385 142.178 208.629 142.385 208.835C142.591 209.04 142.836 209.203 143.106 209.313C143.375 209.424 143.664 209.48 143.955 209.479Z" fill="#008037"/>
<path opacity="0.4" d="M143.955 209.479H337.154C337.444 209.48 337.733 209.424 338.002 209.313C338.271 209.202 338.515 209.04 338.721 208.834C338.926 208.628 339.089 208.384 339.2 208.115C339.31 207.846 339.367 207.558 339.365 207.267C339.365 206.68 339.132 206.118 338.718 205.703C338.303 205.288 337.74 205.055 337.154 205.055H143.955C143.368 205.055 142.804 205.288 142.388 205.702C141.971 206.117 141.736 206.679 141.733 207.267C141.733 207.558 141.791 207.847 141.903 208.116C142.015 208.385 142.178 208.629 142.385 208.835C142.591 209.04 142.836 209.203 143.106 209.313C143.375 209.424 143.664 209.48 143.955 209.479Z" fill="white"/>
<path d="M295.641 205.034V201.573H297.965L295.641 200.221H297.381L295.057 198.706H292.855V196.965H295.415L292.855 195.951V192.173H295.415V189.705H297.965L295.415 188.845V187.083H297.238L295.743 185.599L294.453 184.298H254.885V186.07H252.274L255.182 187.38V188.845H249.847V191.569H247.482L249.847 192.756V195.798H251.527V197.252H254.885V201.573H253.001L254.548 203.119V205.055L295.641 205.034Z" fill="#008037"/>
<path opacity="0.7" d="M295.641 205.034V201.573H297.965L295.641 200.221H297.381L295.057 198.706H292.855V196.965H295.415L292.855 195.951V192.173H295.415V189.705H297.965L295.415 188.845V187.083H297.238L295.743 185.599L294.453 184.298H254.885V186.07H252.274L255.182 187.38V188.845H249.847V191.569H247.482L249.847 192.756V195.798H251.527V197.252H254.885V201.573H253.001L254.548 203.119V205.055L295.641 205.034Z" fill="white"/>
<path opacity="0.1" d="M295.641 205.034V201.573H297.965L295.641 200.221H297.381L295.057 198.706H292.855V196.965H295.415L292.855 195.951V192.173H295.415V189.705H297.965L295.415 188.845V187.083H297.238L295.743 185.599L294.453 184.298H273.614V186.07H271.003L273.901 187.38V188.845H268.566V191.569H266.201L268.566 192.756V195.798H270.245V197.252H273.614V201.573H271.73L273.266 203.119V205.055L295.641 205.034Z" fill="black"/>
<path opacity="0.1" d="M255.182 188.845H273.901L255.182 188.169V188.845Z" fill="black"/>
<path opacity="0.1" d="M254.885 197.253H273.614L273.696 198.564L254.885 197.253Z" fill="black"/>
<path opacity="0.1" d="M251.527 195.799H270.246L251.527 196.454V195.799Z" fill="black"/>
<path opacity="0.1" d="M254.885 201.574H273.614L254.885 200.888V201.574Z" fill="black"/>
<path opacity="0.1" d="M254.548 203.119H273.267V203.835L254.548 203.119Z" fill="black"/>
<path opacity="0.1" d="M249.847 191.569H268.566L249.847 190.975V191.569Z" fill="black"/>
<path opacity="0.1" d="M254.885 186.07H273.614L254.885 185.415V186.07Z" fill="black"/>
<path opacity="0.1" d="M295.416 187.082H276.42L295.416 187.665V187.082Z" fill="black"/>
<path opacity="0.1" d="M273.901 188.844H295.415L275.908 189.479L273.901 188.844Z" fill="black"/>
<path opacity="0.1" d="M268.566 191.568L295.415 192.172V191.568H268.566Z" fill="black"/>
<path opacity="0.1" d="M268.566 192.757H281.847L268.566 193.402V192.757Z" fill="black"/>
<path opacity="0.1" d="M292.855 195.952L273.614 195.799L292.855 195.369V195.952Z" fill="black"/>
<path opacity="0.1" d="M292.855 196.965H273.266L292.855 197.621V196.965Z" fill="black"/>
<path opacity="0.1" d="M295.64 200.222H273.901V200.888L295.64 200.222Z" fill="black"/>
<path opacity="0.1" d="M295.64 201.572H279.891L295.64 202.012V201.572Z" fill="black"/>
<path d="M245.26 200.571V203.858C245.26 204.698 244.236 205.046 243.427 205.046H177.768C176.929 205.046 175.915 204.698 175.915 203.858V200.571H245.26Z" fill="#263238"/>
<path opacity="0.4" d="M245.26 200.571V203.858C245.26 204.698 244.236 205.046 243.427 205.046H177.768C176.929 205.046 175.915 204.698 175.915 203.858V200.571H245.26Z" fill="white"/>
<path opacity="0.2" d="M245.26 200.571V203.858C245.26 204.698 244.236 205.046 243.427 205.046H200.122C199.282 205.046 198.279 204.698 198.279 203.858V200.571H245.26Z" fill="black"/>
<path d="M256.247 166.451L248.423 201.912C248.289 202.488 247.966 203.002 247.506 203.373C247.046 203.744 246.475 203.951 245.884 203.96H203.193C202.928 203.954 202.667 203.887 202.432 203.764C202.197 203.64 201.993 203.464 201.837 203.249C201.682 203.033 201.578 202.785 201.534 202.523C201.49 202.261 201.508 201.992 201.586 201.738L209.389 166.553C209.549 166.016 209.888 165.551 210.35 165.234C210.812 164.917 211.369 164.768 211.928 164.813H254.629C255.776 164.772 256.493 165.294 256.247 166.451Z" fill="#263238"/>
<path opacity="0.4" d="M256.247 166.449L248.423 201.91C248.289 202.486 247.966 203 247.506 203.371C247.046 203.742 246.475 203.949 245.884 203.958H204.637C204.372 203.953 204.111 203.885 203.876 203.762C203.64 203.639 203.437 203.462 203.281 203.247C203.125 203.032 203.022 202.783 202.978 202.521C202.934 202.259 202.952 201.991 203.03 201.736L210.843 166.552C211.001 166.014 211.34 165.547 211.803 165.23C212.265 164.912 212.823 164.765 213.382 164.811H254.629C255.776 164.77 256.493 165.292 256.247 166.449Z" fill="white"/>
<path opacity="0.2" d="M235.193 184.471C235.193 187.543 231.937 189.97 229.551 189.97C227.165 189.97 225.752 187.502 226.479 184.471C227.206 181.44 229.551 179.075 231.865 178.983C231.189 182.055 232.643 184.471 235.019 184.471H235.193Z" fill="black"/>
</svg>
