<svg width="43" height="42" viewBox="0 0 43 42" fill="none" xmlns="http://www.w3.org/2000/svg">
<ellipse cx="21.5" cy="21" rx="21.5" ry="21" fill="#D9D9D9"/>
<path d="M12 13V10H14V13H17V15H14V18H12V15H9V13H12ZM15 19V16H18V13H25L26.83 15H30C31.1 15 32 15.9 32 17V29C32 30.1 31.1 31 30 31H14C12.9 31 12 30.1 12 29V19H15ZM22 28C24.76 28 27 25.76 27 23C27 20.24 24.76 18 22 18C19.24 18 17 20.24 17 23C17 25.76 19.24 28 22 28ZM18.8 23C18.8 24.77 20.23 26.2 22 26.2C23.77 26.2 25.2 24.77 25.2 23C25.2 21.23 23.77 19.8 22 19.8C20.23 19.8 18.8 21.23 18.8 23Z" fill="black"/>
</svg>
