<svg width="22" height="22" viewBox="0 0 22 22" fill="none" xmlns="http://www.w3.org/2000/svg">
<circle cx="11" cy="11" r="10" fill="white" stroke="#B4B4B4" stroke-width="0.5"/>
<path d="M11.705 11.0001L13.855 8.85509C13.9491 8.76094 14.002 8.63324 14.002 8.50009C14.002 8.36694 13.9491 8.23924 13.855 8.14509C13.7608 8.05094 13.6331 7.99805 13.5 7.99805C13.3668 7.99805 13.2391 8.05094 13.145 8.14509L11 10.2951L8.85497 8.14509C8.76082 8.05094 8.63312 7.99805 8.49997 7.99805C8.36682 7.99805 8.23912 8.05094 8.14497 8.14509C8.05082 8.23924 7.99792 8.36694 7.99792 8.50009C7.99792 8.63324 8.05082 8.76094 8.14497 8.85509L10.295 11.0001L8.14497 13.1451C8.09811 13.1916 8.06091 13.2469 8.03552 13.3078C8.01014 13.3687 7.99707 13.4341 7.99707 13.5001C7.99707 13.5661 8.01014 13.6315 8.03552 13.6924C8.06091 13.7533 8.09811 13.8086 8.14497 13.8551C8.19145 13.902 8.24675 13.9392 8.30768 13.9645C8.36861 13.9899 8.43396 14.003 8.49997 14.003C8.56598 14.003 8.63133 13.9899 8.69226 13.9645C8.75319 13.9392 8.80849 13.902 8.85497 13.8551L11 11.7051L13.145 13.8551C13.1915 13.902 13.2468 13.9392 13.3077 13.9645C13.3686 13.9899 13.434 14.003 13.5 14.003C13.566 14.003 13.6313 13.9899 13.6923 13.9645C13.7532 13.9392 13.8085 13.902 13.855 13.8551C13.9018 13.8086 13.939 13.7533 13.9644 13.6924C13.9898 13.6315 14.0029 13.5661 14.0029 13.5001C14.0029 13.4341 13.9898 13.3687 13.9644 13.3078C13.939 13.2469 13.9018 13.1916 13.855 13.1451L11.705 11.0001Z" fill="black"/>
</svg>
