<svg width="523" height="385" viewBox="0 0 523 385" fill="none" xmlns="http://www.w3.org/2000/svg">
<path d="M469.778 358.666H435.194V358.927H469.778V358.666Z" fill="#EBEBEB"/>
<path d="M345.854 361.507H336.78V361.768H345.854V361.507Z" fill="#EBEBEB"/>
<path d="M434.15 348.978H414.112V349.239H434.15V348.978Z" fill="#EBEBEB"/>
<path d="M99.8758 350.729H54.7776V350.991H99.8758V350.729Z" fill="#EBEBEB"/>
<path d="M115.789 350.729H109.18V350.991H115.789V350.729Z" fill="#EBEBEB"/>
<path d="M235.098 355.135H137.279V355.396H235.098V355.135Z" fill="#EBEBEB"/>
<path d="M247.471 295.295H45.8607C44.2794 295.295 42.7629 294.667 41.6447 293.548C40.5266 292.43 39.8984 290.914 39.8984 289.332V5.91007C39.9122 4.33784 40.5464 2.83469 41.6631 1.72781C42.7798 0.620936 44.2884 -6.02764e-05 45.8607 4.38823e-09H247.471C249.053 4.38824e-09 250.569 0.628167 251.687 1.74631C252.805 2.86446 253.434 4.38098 253.434 5.96228V289.332C253.434 290.914 252.805 292.43 251.687 293.548C250.569 294.667 249.053 295.295 247.471 295.295ZM45.8607 0.208837C44.3495 0.211597 42.901 0.813147 41.8324 1.88174C40.7638 2.95033 40.1622 4.39886 40.1595 5.91007V289.332C40.1622 290.844 40.7638 292.292 41.8324 293.361C42.901 294.429 44.3495 295.031 45.8607 295.034H247.471C248.983 295.031 250.431 294.429 251.5 293.361C252.568 292.292 253.17 290.844 253.173 289.332V5.91007C253.17 4.39886 252.568 2.95033 251.5 1.88174C250.431 0.813147 248.983 0.211597 247.471 0.208837H45.8607Z" fill="#EBEBEB"/>
<path d="M473.338 295.295H271.706C270.126 295.292 268.611 294.663 267.493 293.545C266.376 292.428 265.747 290.913 265.744 289.332V5.91007C265.761 4.3387 266.396 2.83712 267.512 1.73083C268.628 0.624534 270.135 0.00266088 271.706 0H473.338C474.907 0.00543444 476.41 0.628858 477.522 1.73515C478.634 2.84144 479.266 4.34145 479.279 5.91007V289.332C479.279 290.91 478.654 292.423 477.54 293.541C476.427 294.659 474.916 295.289 473.338 295.295ZM271.706 0.208837C270.195 0.211597 268.747 0.813147 267.678 1.88174C266.609 2.95033 266.008 4.39886 266.005 5.91007V289.332C266.008 290.844 266.609 292.292 267.678 293.361C268.747 294.429 270.195 295.031 271.706 295.034H473.338C474.849 295.031 476.298 294.429 477.366 293.361C478.435 292.292 479.036 290.844 479.039 289.332V5.91007C479.036 4.39886 478.435 2.95033 477.366 1.88174C476.298 0.813147 474.849 0.211597 473.338 0.208837H271.706Z" fill="#EBEBEB"/>
<path d="M522.091 341.865H0V342.126H522.091V341.865Z" fill="#EBEBEB"/>
<path d="M75.6824 341.958H95.0833L95.0833 234.512H75.6824L75.6824 341.958Z" fill="#E6E6E6"/>
<path d="M89.7787 341.958H194.458V234.512H89.7787L89.7787 341.958Z" fill="#F5F5F5"/>
<path d="M71.1399 236.861H95.2501V232.151H71.1399V236.861Z" fill="#E0E0E0"/>
<path d="M87.9618 236.861H198.05V232.151H87.9618V236.861Z" fill="#EBEBEB"/>
<path d="M149.464 304.651C149.703 304.653 149.941 304.607 150.162 304.516C150.384 304.425 150.586 304.292 150.755 304.123C150.925 303.954 151.06 303.753 151.152 303.532C151.244 303.311 151.291 303.074 151.291 302.835V294.648C151.291 294.409 151.244 294.172 151.152 293.95C151.06 293.729 150.925 293.529 150.755 293.36C150.586 293.191 150.384 293.057 150.162 292.967C149.941 292.876 149.703 292.83 149.464 292.831C148.982 292.831 148.52 293.023 148.179 293.363C147.838 293.704 147.647 294.166 147.647 294.648V302.814C147.644 303.054 147.689 303.293 147.779 303.515C147.869 303.738 148.003 303.941 148.172 304.112C148.341 304.283 148.542 304.419 148.764 304.511C148.986 304.604 149.223 304.651 149.464 304.651Z" fill="#E6E6E6"/>
<path d="M137.185 304.651C137.667 304.651 138.129 304.46 138.47 304.119C138.81 303.779 139.002 303.316 139.002 302.835V294.648C139.002 294.166 138.81 293.704 138.47 293.363C138.129 293.023 137.667 292.831 137.185 292.831C136.703 292.831 136.241 293.023 135.9 293.363C135.559 293.704 135.368 294.166 135.368 294.648V302.814C135.365 303.054 135.41 303.293 135.5 303.515C135.59 303.738 135.724 303.941 135.893 304.112C136.062 304.283 136.263 304.419 136.485 304.511C136.706 304.604 136.944 304.651 137.185 304.651Z" fill="#E6E6E6"/>
<path d="M194.469 256.877V258.705H144.233V341.957H142.416V258.705H89.7894V256.877H194.469Z" fill="#E0E0E0"/>
<path d="M402.626 191.021H429.138L407.805 70.0417H381.294L402.626 191.021Z" fill="#FAFAFA"/>
<path d="M387.193 191.021H394.346L373.013 70.0417H365.861L387.193 191.021Z" fill="#FAFAFA"/>
<path d="M309.642 193.123H316.982L295.065 68.792H287.714L309.642 193.123Z" fill="#FAFAFA"/>
<path d="M324.271 193.123H338.117L316.199 68.792H302.354L324.271 193.123Z" fill="#FAFAFA"/>
<path d="M361.349 68.165H447.954V193.175H361.349V68.165ZM441.104 75.0149H368.199V186.283H441.104V75.0149Z" fill="#E6E6E6"/>
<path d="M271.31 64.7378H451.379V196.555H271.31V64.7378ZM444.529 71.5876H278.16V189.706H444.529V71.5876Z" fill="#F5F5F5"/>
<path d="M202.028 191.021H228.54L207.207 70.0417H180.696L202.028 191.021Z" fill="#FAFAFA"/>
<path d="M186.605 191.021H193.748L172.415 70.0417H165.273L186.605 191.021Z" fill="#FAFAFA"/>
<path d="M109.044 193.123H116.384L94.4668 68.792H87.1157L109.044 193.123Z" fill="#FAFAFA"/>
<path d="M123.673 193.123H137.519L115.601 68.792H101.755L123.673 193.123Z" fill="#FAFAFA"/>
<path d="M160.741 68.165H247.356V193.175H160.741V68.165ZM240.506 75.0149H167.602V186.283H240.506V75.0149Z" fill="#E6E6E6"/>
<path d="M70.7121 64.7378H250.781V196.555H70.7121V64.7378ZM243.931 71.5876H77.5619V189.706H243.931V71.5876Z" fill="#F5F5F5"/>
<path d="M406.834 302.968C407.175 290.53 405.09 278.145 400.694 266.505C404.244 259.937 402.981 237.101 395.755 237.863C393.113 238.135 394.043 244.264 391.913 243.659C387.548 242.426 385.898 230.679 380.949 228.946C377.816 227.839 379.904 236.83 377.378 237.571C374.851 238.312 365.223 236.527 363.229 240.349C361.234 244.17 370.413 244.912 371.822 245.924C373.232 246.937 366.863 248.493 369.891 250.916C372.919 253.338 379.56 247.386 380.27 249.328C380.98 251.271 374.005 253.505 376.145 256.512C378.286 259.52 388.08 253.965 389.125 256.784C390.169 259.603 380.855 261.295 384.52 265.628C387.099 268.667 394.794 268.186 399.232 267.539C399.525 267.487 399.744 267.445 399.932 267.393C403.989 278.953 405.762 291.191 405.153 303.428L406.834 302.968Z" fill="#E6E6E6"/>
<path d="M409.539 297.457C408.262 286.317 409.167 275.035 412.201 264.241C408.505 258.624 407.857 238.032 414.405 238.137C416.796 238.137 416.441 243.754 418.299 243.044C422.121 241.593 422.685 230.932 426.997 228.979C429.754 227.737 428.511 235.975 430.871 236.445C433.231 236.915 441.689 234.597 443.777 237.834C445.866 241.071 437.679 242.491 436.468 243.514C435.257 244.538 441.125 245.436 438.556 247.848C435.988 250.26 429.597 245.436 429.159 247.221C428.72 249.007 435.121 250.51 433.419 253.35C431.717 256.191 422.507 251.993 421.787 254.614C421.066 257.235 429.566 258.018 426.611 262.195C424.523 265.118 417.589 265.327 413.559 265.056C413.344 265.045 413.131 265.017 412.922 264.972C410.184 275.671 409.552 286.799 411.063 297.739L409.539 297.457Z" fill="#EBEBEB"/>
<path d="M406.855 297.456C406.648 289.916 407.91 282.408 410.572 275.351C408.421 271.362 409.194 257.526 413.569 257.986C415.177 258.153 414.613 261.86 415.898 261.494C418.55 260.753 419.542 253.632 422.549 252.577C424.47 251.909 423.155 257.359 424.71 257.798C426.266 258.236 432.082 257.192 433.294 259.479C434.505 261.766 428.939 262.246 428.073 262.862C427.206 263.478 431.08 264.418 429.242 265.89C427.404 267.363 423.374 263.802 422.977 264.919C422.58 266.036 426.788 267.477 425.483 269.273C424.178 271.069 418.247 267.728 417.61 269.44C416.973 271.153 422.633 272.176 420.398 274.808C418.842 276.645 414.133 276.353 411.481 275.967L411.063 275.873C408.615 282.886 407.551 290.308 407.93 297.727L406.855 297.456Z" fill="#F5F5F5"/>
<path d="M418.331 341.96H395.369L391.735 291.202H421.954L418.331 341.96Z" fill="#EBEBEB"/>
<path d="M256.012 385C367.826 385 458.469 379.708 458.469 373.18C458.469 366.652 367.826 361.36 256.012 361.36C144.198 361.36 53.5557 366.652 53.5557 373.18C53.5557 379.708 144.198 385 256.012 385Z" fill="#F5F5F5"/>
<path d="M179.233 309.704H139.147V315.875H179.233V309.704Z" fill="#D5573B"/>
<path d="M140.787 313.252H177.594C178.5 313.252 179.368 313.612 180.008 314.253C180.649 314.893 181.009 315.761 181.009 316.667V376.822H137.362V316.677C137.36 316.227 137.448 315.781 137.62 315.365C137.791 314.949 138.043 314.571 138.362 314.253C138.68 313.934 139.058 313.682 139.474 313.51C139.89 313.339 140.336 313.251 140.787 313.252Z" fill="#D5573B"/>
<path opacity="0.5" d="M140.787 313.252H177.594C178.5 313.252 179.368 313.612 180.008 314.253C180.649 314.893 181.009 315.761 181.009 316.667V376.822H137.362V316.677C137.36 316.227 137.448 315.781 137.62 315.365C137.791 314.949 138.043 314.571 138.362 314.253C138.68 313.934 139.058 313.682 139.474 313.51C139.89 313.339 140.336 313.251 140.787 313.252Z" fill="white"/>
<path d="M177.239 302.113H141.131C139.049 302.113 137.362 303.8 137.362 305.882V307.835C137.362 309.917 139.049 311.604 141.131 311.604H177.239C179.321 311.604 181.009 309.917 181.009 307.835V305.882C181.009 303.8 179.321 302.113 177.239 302.113Z" fill="#D5573B"/>
<path opacity="0.7" d="M177.239 302.113H141.131C139.049 302.113 137.362 303.8 137.362 305.882V307.835C137.362 309.917 139.049 311.604 141.131 311.604H177.239C179.321 311.604 181.009 309.917 181.009 307.835V305.882C181.009 303.8 179.321 302.113 177.239 302.113Z" fill="white"/>
<path d="M149.976 376.834H129.573V373.993L149.976 372.093V376.834Z" fill="#D5573B"/>
<path opacity="0.7" d="M149.976 376.834H129.573V373.993L149.976 372.093V376.834Z" fill="white"/>
<path d="M332.624 69.6884C316.836 65.2819 301.079 60.7571 285.354 56.114C270.039 60.7293 254.724 65.2541 239.41 69.6884C224.513 65.2541 209.647 60.7293 194.813 56.114C178.635 60.7571 162.429 65.2819 146.196 69.6884L109.639 218.035C130.738 213.587 151.82 209.062 172.885 204.461C192.606 209.069 212.351 213.594 232.121 218.035C252.309 213.608 272.496 209.083 292.684 204.461C313.296 209.09 333.933 213.615 354.593 218.035C373.911 213.587 393.207 209.062 412.483 204.461L375.905 56.114C361.502 60.7293 347.075 65.2541 332.624 69.6884Z" fill="#11AE55"/>
<path opacity="0.8" d="M332.624 69.6884C316.836 65.2819 301.079 60.7571 285.354 56.114C270.039 60.7293 254.724 65.2541 239.41 69.6884C224.513 65.2541 209.647 60.7293 194.813 56.114C178.635 60.7571 162.429 65.2819 146.196 69.6884L109.639 218.035C130.738 213.587 151.82 209.062 172.885 204.461C192.606 209.069 212.351 213.594 232.121 218.035C252.309 213.608 272.496 209.083 292.684 204.461C313.296 209.09 333.933 213.615 354.593 218.035C373.911 213.587 393.207 209.062 412.483 204.461L375.905 56.114C361.502 60.7293 347.075 65.2541 332.624 69.6884Z" fill="white"/>
<path d="M232.529 209.421C252.452 204.993 272.357 200.469 292.245 195.846C312.579 200.476 332.934 205 353.309 209.421C369.411 205.676 385.501 201.847 401.582 197.935C391.474 154.225 381.38 110.519 371.3 66.8169C358.875 70.7221 346.418 74.5508 333.929 78.3029C317.863 73.8964 301.824 69.3716 285.813 64.7285C270.234 69.3299 254.637 73.8547 239.023 78.3029C223.848 73.8686 208.7 69.3438 193.581 64.7285C179.756 68.6198 165.913 72.4485 152.054 76.2145C141.946 119.917 131.852 163.62 121.772 207.322C139.266 203.549 156.742 199.72 174.201 195.836C193.602 200.437 213.044 204.966 232.529 209.421Z" fill="#11AE55"/>
<path opacity="0.4" d="M232.529 209.421C252.452 204.993 272.357 200.469 292.245 195.846C312.579 200.476 332.934 205 353.309 209.421C369.411 205.676 385.501 201.847 401.582 197.935C391.474 154.225 381.38 110.519 371.3 66.8169C358.875 70.7221 346.418 74.5508 333.929 78.3029C317.863 73.8964 301.824 69.3716 285.813 64.7285C270.234 69.3299 254.637 73.8547 239.023 78.3029C223.848 73.8686 208.7 69.3438 193.581 64.7285C179.756 68.6198 165.913 72.4485 152.054 76.2145C141.946 119.917 131.852 163.62 121.772 207.322C139.266 203.549 156.742 199.72 174.201 195.836C193.602 200.437 213.044 204.966 232.529 209.421Z" fill="white"/>
<path d="M277.679 170.38C276.896 162.026 276.259 154.435 272.981 150.049C265.671 140.349 248.181 142.416 237.196 144.421C235.975 142.333 232.842 136.517 229.407 122.493C226.128 109.107 210.967 102.654 199.272 98.8844C195.972 97.8402 191.889 96.441 191.211 95.4803C190.24 91.0634 185.99 90.8546 181.813 90.6667C178.461 90.51 174.639 90.3325 171.59 88.3068C168.865 86.4899 171.998 77.9172 176.08 69.6577L172.645 70.5975C172.353 71.2344 172.05 71.8714 171.758 72.5188C166.902 83.3574 164.396 90.2699 168.468 92.9012C172.541 95.5325 177.041 95.7101 180.758 95.8876C184.476 96.0651 186.251 96.2635 186.481 97.433C187.086 100.566 190.96 101.954 197.288 103.896C208.074 107.207 221.189 112.25 224.499 124.143C230.033 143.983 233.448 148.681 234.095 149.277L235.066 150.175L236.413 149.893C246.239 148.024 262.205 145.789 268.564 152.942C271.059 155.751 271.696 163.269 272.187 170.745C272.74 180.049 272.406 190.584 275.236 199.815L283.485 197.915C279.381 188.486 278.463 178.691 277.679 170.38Z" fill="#11AE55"/>
<path opacity="0.2" d="M277.679 170.38C276.896 162.026 276.259 154.435 272.981 150.049C265.671 140.349 248.181 142.416 237.196 144.421C235.975 142.333 232.842 136.517 229.407 122.493C226.128 109.107 210.967 102.654 199.272 98.8844C195.972 97.8402 191.889 96.441 191.211 95.4803C190.24 91.0634 185.99 90.8546 181.813 90.6667C178.461 90.51 174.639 90.3325 171.59 88.3068C168.865 86.4899 171.998 77.9172 176.08 69.6577L172.645 70.5975C172.353 71.2344 172.05 71.8714 171.758 72.5188C166.902 83.3574 164.396 90.2699 168.468 92.9012C172.541 95.5325 177.041 95.7101 180.758 95.8876C184.476 96.0651 186.251 96.2635 186.481 97.433C187.086 100.566 190.96 101.954 197.288 103.896C208.074 107.207 221.189 112.25 224.499 124.143C230.033 143.983 233.448 148.681 234.095 149.277L235.066 150.175L236.413 149.893C246.239 148.024 262.205 145.789 268.564 152.942C271.059 155.751 271.696 163.269 272.187 170.745C272.74 180.049 272.406 190.584 275.236 199.815L283.485 197.915C279.381 188.486 278.463 178.691 277.679 170.38Z" fill="#004FFF"/>
<g opacity="0.5">
<path opacity="0.5" d="M293.708 118.421L328.448 121.345C329.44 129.239 329.93 133.196 330.922 141.09L307.647 138.876L306.76 128.268L294.23 126.691C294 123.391 293.896 121.731 293.708 118.421Z" fill="white"/>
<path opacity="0.5" d="M292.371 129.749L304.045 131.336L304.933 142.822L293.05 141.903L292.371 129.749Z" fill="white"/>
</g>
<path opacity="0.5" d="M348.757 94.9275C345.039 96.3998 343.17 97.1307 339.359 98.603L340.978 109.191C344.872 107.969 346.804 107.364 350.657 106.132C349.926 101.652 349.54 99.407 348.757 94.9275Z" fill="white"/>
<path opacity="0.5" d="M174.754 161.4C167.445 163.687 163.738 164.825 156.272 167.101C155.05 173.659 154.434 176.948 153.202 183.505C160.804 181.605 164.573 180.665 172.05 178.765C173.125 171.821 173.668 168.344 174.754 161.4Z" fill="white"/>
<path d="M288.194 114.265C305.256 115.657 322.311 117.049 339.359 118.441H339.693C353.351 114.752 366.988 110.996 380.605 107.175L379.56 102.862C365.958 106.733 352.332 110.52 338.681 114.223L320.084 112.709C314.995 98.6542 310.122 84.5438 305.465 70.3777L300.244 68.895C304.894 83.43 309.746 97.8919 314.8 112.281L287.432 110.036C280.123 112.688 276.416 114.025 268.919 116.677H237.249C221.363 114.171 205.485 111.633 189.613 109.065C195.69 95.7618 201.552 82.3719 207.197 68.895L203.783 67.8508C197.914 81.6271 191.83 95.2989 185.53 108.866C171.371 110.955 157.205 113.005 143.032 115.017C142.646 116.708 142.447 117.554 142.061 119.193C156.492 117.105 170.926 115.017 185.363 112.928C190.887 126.252 196.996 139.262 203.334 152.221L180.205 150.362C164.159 154.629 148.086 158.806 131.985 162.892C131.379 165.492 131.076 166.798 130.481 169.398C146.972 165.276 163.439 161.072 179.881 156.784L206.195 158.872C210.956 175.057 216.135 191.117 221.858 206.978L227.36 208.231C221.367 192.129 215.947 175.746 210.925 159.269L234.659 161.19C253.642 166.223 272.671 171.155 291.745 175.986C305.277 171.636 318.779 167.18 332.248 162.621C337.751 170.859 340.602 174.973 346.428 183.212C357.97 189.895 369.599 196.435 381.315 202.832L389.94 200.744C376.887 193.609 363.915 186.338 351.023 178.931C345.802 171.622 343.233 167.925 338.263 160.585L345.791 158.006C360.682 155.312 375.568 152.586 390.451 149.83C389.856 147.282 389.564 146.008 388.979 143.46C373.748 146.314 358.513 149.133 343.275 151.918C325.962 157.898 308.608 163.738 291.212 169.439C280.687 166.752 270.172 164.027 259.667 161.263C263.698 147.71 267.46 134.083 270.955 120.384C277.909 117.992 281.355 116.719 288.194 114.265ZM255.522 160.157C247.722 158.068 243.848 157.024 236.194 154.998L208.555 152.732C202.112 139.795 195.878 126.795 190.24 113.482C205.707 115.96 221.175 118.396 236.643 120.791H266.684C263.183 133.996 259.445 147.118 255.47 160.157H255.522Z" fill="white"/>
<path opacity="0.1" d="M172.864 204.461C151.8 209.069 130.718 213.594 109.618 218.035L146.165 69.6884C162.398 65.275 178.604 60.7502 194.782 56.114L172.864 204.461Z" fill="black"/>
<path opacity="0.1" d="M292.674 204.461C272.486 209.09 252.299 213.615 232.111 218.035C234.548 168.611 236.984 119.162 239.42 69.6884C254.735 65.2541 270.05 60.7293 285.364 56.114C287.794 105.566 290.23 155.015 292.674 204.461Z" fill="black"/>
<path opacity="0.1" d="M412.452 204.461C393.177 209.069 373.88 213.594 354.563 218.035L332.635 69.6884C347.086 65.2541 361.507 60.7293 375.895 56.114L412.452 204.461Z" fill="black"/>
<path opacity="0.1" d="M352.349 107.1C352.349 108.259 349.446 109.189 345.875 109.189C342.304 109.189 339.411 108.259 339.411 107.1C339.411 105.941 342.304 105.012 345.875 105.012C349.446 105.012 352.349 105.952 352.349 107.1Z" fill="black"/>
<path d="M346.418 106.403C349.686 106.403 352.349 99.9919 352.349 96.7236C352.349 95.1497 351.724 93.64 350.612 92.5261C349.5 91.4122 347.992 90.785 346.418 90.7822H345.374C344.594 90.7822 343.822 90.936 343.102 91.2347C342.381 91.5334 341.727 91.9712 341.176 92.523C340.625 93.0749 340.189 93.73 339.891 94.4507C339.594 95.1715 339.441 95.9439 339.443 96.7236C339.443 99.9919 342.095 106.403 345.374 106.403H346.418ZM344.048 96.7236C344.126 96.3784 344.301 96.0625 344.551 95.8122C344.802 95.5618 345.118 95.3873 345.463 95.3087C345.808 95.2301 346.168 95.2506 346.502 95.3678C346.836 95.485 347.131 95.6942 347.351 95.9713C347.571 96.2483 347.709 96.582 347.748 96.9339C347.787 97.2858 347.726 97.6415 347.572 97.9602C347.418 98.2789 347.177 98.5475 346.876 98.7351C346.576 98.9228 346.229 99.0218 345.875 99.0208C345.357 98.8988 344.894 98.6059 344.563 98.1891C344.231 97.7724 344.05 97.2561 344.048 96.7236Z" fill="#263238"/>
<path d="M345.342 90.7822C344.563 90.7822 343.791 90.936 343.07 91.2347C342.35 91.5334 341.696 91.9712 341.145 92.523C340.594 93.0749 340.157 93.73 339.86 94.4507C339.563 95.1715 339.41 95.9439 339.412 96.7236C339.412 99.9919 342.064 106.403 345.342 106.403C348.621 106.403 351.273 99.9919 351.273 96.7236C351.275 95.9439 351.122 95.1715 350.825 94.4507C350.528 93.73 350.091 93.0749 349.54 92.523C348.989 91.9712 348.335 91.5334 347.615 91.2347C346.894 90.936 346.122 90.7822 345.342 90.7822ZM345.342 99.0835C344.873 99.0835 344.415 98.9442 344.025 98.6833C343.635 98.4224 343.331 98.0515 343.152 97.6178C342.973 97.1841 342.926 96.707 343.019 96.2469C343.111 95.7868 343.338 95.3645 343.67 95.0334C344.003 94.7024 344.426 94.4774 344.886 94.3872C345.347 94.2969 345.824 94.3453 346.257 94.5263C346.69 94.7073 347.059 95.0128 347.318 95.4039C347.578 95.7951 347.715 96.2544 347.713 96.7236C347.713 97.0344 347.651 97.3421 347.532 97.6291C347.413 97.9161 347.238 98.1767 347.018 98.396C346.798 98.6153 346.536 98.7889 346.249 98.9068C345.961 99.0248 345.653 99.0848 345.342 99.0835Z" fill="#11AE55"/>
<path opacity="0.3" d="M345.342 90.7822C344.563 90.7822 343.791 90.936 343.07 91.2347C342.35 91.5334 341.696 91.9712 341.145 92.523C340.594 93.0749 340.157 93.73 339.86 94.4507C339.563 95.1715 339.41 95.9439 339.412 96.7236C339.412 99.9919 342.064 106.403 345.342 106.403C348.621 106.403 351.273 99.9919 351.273 96.7236C351.275 95.9439 351.122 95.1715 350.825 94.4507C350.528 93.73 350.091 93.0749 349.54 92.523C348.989 91.9712 348.335 91.5334 347.615 91.2347C346.894 90.936 346.122 90.7822 345.342 90.7822ZM345.342 99.0835C344.873 99.0835 344.415 98.9442 344.025 98.6833C343.635 98.4224 343.331 98.0515 343.152 97.6178C342.973 97.1841 342.926 96.707 343.019 96.2469C343.111 95.7868 343.338 95.3645 343.67 95.0334C344.003 94.7024 344.426 94.4774 344.886 94.3872C345.347 94.2969 345.824 94.3453 346.257 94.5263C346.69 94.7073 347.059 95.0128 347.318 95.4039C347.578 95.7951 347.715 96.2544 347.713 96.7236C347.713 97.0344 347.651 97.3421 347.532 97.6291C347.413 97.9161 347.238 98.1767 347.018 98.396C346.798 98.6153 346.536 98.7889 346.249 98.9068C345.961 99.0248 345.653 99.0848 345.342 99.0835Z" fill="black"/>
<path opacity="0.1" d="M305.079 161.012C305.079 162.161 302.186 163.101 298.615 163.101C295.044 163.101 292.141 162.161 292.141 161.012C292.141 159.864 295.044 158.924 298.615 158.924C302.186 158.924 305.079 159.853 305.079 161.012Z" fill="black"/>
<path d="M299.148 160.302C302.427 160.302 305.079 153.902 305.079 150.623C305.079 149.05 304.454 147.541 303.342 146.429C302.23 145.317 300.721 144.692 299.148 144.692H298.104C297.324 144.691 296.552 144.843 295.831 145.14C295.11 145.438 294.455 145.874 293.903 146.425C293.351 146.976 292.914 147.631 292.615 148.351C292.316 149.071 292.162 149.843 292.162 150.623C292.162 153.902 294.825 160.302 298.104 160.302H299.148ZM296.788 150.623C296.867 150.278 297.041 149.962 297.292 149.711C297.542 149.461 297.858 149.287 298.203 149.208C298.549 149.129 298.909 149.15 299.243 149.267C299.577 149.384 299.871 149.593 300.092 149.87C300.312 150.148 300.45 150.481 300.489 150.833C300.528 151.185 300.467 151.541 300.312 151.859C300.158 152.178 299.917 152.447 299.617 152.634C299.317 152.822 298.97 152.921 298.616 152.92C298.095 152.801 297.631 152.509 297.299 152.092C296.967 151.674 296.787 151.156 296.788 150.623Z" fill="#263238"/>
<path d="M298.083 144.692C297.303 144.691 296.531 144.843 295.81 145.14C295.089 145.438 294.434 145.874 293.882 146.425C293.33 146.976 292.892 147.631 292.594 148.351C292.295 149.071 292.141 149.843 292.141 150.623C292.141 153.902 294.804 160.302 298.083 160.302C301.361 160.302 304.014 153.902 304.014 150.623C304.014 149.844 303.86 149.073 303.562 148.353C303.264 147.634 302.827 146.98 302.276 146.429C301.726 145.878 301.072 145.441 300.352 145.143C299.633 144.845 298.861 144.692 298.083 144.692ZM298.083 153.045C297.613 153.047 297.154 152.91 296.763 152.651C296.372 152.392 296.066 152.022 295.885 151.589C295.704 151.156 295.656 150.68 295.746 150.219C295.836 149.759 296.061 149.335 296.392 149.003C296.724 148.67 297.146 148.443 297.606 148.351C298.066 148.259 298.543 148.305 298.977 148.484C299.411 148.663 299.781 148.967 300.042 149.357C300.303 149.747 300.442 150.206 300.442 150.675C300.429 151.293 300.175 151.881 299.734 152.314C299.293 152.747 298.701 152.991 298.083 152.993V153.045Z" fill="#11AE55"/>
<path opacity="0.3" d="M298.083 144.692C297.303 144.691 296.531 144.843 295.81 145.14C295.089 145.438 294.434 145.874 293.882 146.425C293.33 146.976 292.892 147.631 292.594 148.351C292.295 149.071 292.141 149.843 292.141 150.623C292.141 153.902 294.804 160.302 298.083 160.302C301.361 160.302 304.014 153.902 304.014 150.623C304.014 149.844 303.86 149.073 303.562 148.353C303.264 147.634 302.827 146.98 302.276 146.429C301.726 145.878 301.072 145.441 300.352 145.143C299.633 144.845 298.861 144.692 298.083 144.692ZM298.083 153.045C297.613 153.047 297.154 152.91 296.763 152.651C296.372 152.392 296.066 152.022 295.885 151.589C295.704 151.156 295.656 150.68 295.746 150.219C295.836 149.759 296.061 149.335 296.392 149.003C296.724 148.67 297.146 148.443 297.606 148.351C298.066 148.259 298.543 148.305 298.977 148.484C299.411 148.663 299.781 148.967 300.042 149.357C300.303 149.747 300.442 150.206 300.442 150.675C300.429 151.293 300.175 151.881 299.734 152.314C299.293 152.747 298.701 152.991 298.083 152.993V153.045Z" fill="black"/>
<path opacity="0.1" d="M206.205 166.024C206.205 167.183 203.302 168.112 199.731 168.112C196.16 168.112 193.268 167.183 193.268 166.024C193.268 164.865 196.16 163.936 199.731 163.936C203.302 163.936 206.205 164.886 206.205 166.024Z" fill="black"/>
<path d="M200.274 165.335C203.542 165.335 206.205 158.924 206.205 155.656C206.205 154.082 205.58 152.572 204.468 151.458C203.356 150.344 201.848 149.717 200.274 149.714H199.23C198.45 149.714 197.678 149.868 196.958 150.167C196.237 150.465 195.583 150.903 195.032 151.455C194.481 152.007 194.045 152.662 193.747 153.383C193.45 154.103 193.297 154.876 193.299 155.656C193.299 158.924 195.951 165.335 199.23 165.335H200.274ZM197.904 155.656C197.982 155.31 198.157 154.994 198.407 154.744C198.658 154.494 198.974 154.319 199.319 154.241C199.664 154.162 200.024 154.182 200.358 154.3C200.693 154.417 200.987 154.626 201.207 154.903C201.427 155.18 201.565 155.514 201.604 155.866C201.643 156.218 201.582 156.573 201.428 156.892C201.274 157.211 201.033 157.479 200.732 157.667C200.432 157.855 200.085 157.954 199.731 157.953C199.213 157.831 198.75 157.538 198.419 157.121C198.087 156.704 197.906 156.188 197.904 155.656Z" fill="#263238"/>
<path d="M199.198 149.714C198.419 149.714 197.647 149.868 196.926 150.167C196.206 150.465 195.552 150.903 195.001 151.455C194.45 152.007 194.013 152.662 193.716 153.383C193.419 154.103 193.266 154.876 193.268 155.656C193.268 158.924 195.92 165.335 199.198 165.335C202.477 165.335 205.129 158.924 205.129 155.656C205.131 154.876 204.978 154.103 204.681 153.383C204.384 152.662 203.947 152.007 203.396 151.455C202.845 150.903 202.191 150.465 201.471 150.167C200.75 149.868 199.978 149.714 199.198 149.714ZM199.198 158.068C198.729 158.07 198.269 157.932 197.878 157.672C197.486 157.413 197.181 157.043 197 156.609C196.82 156.176 196.772 155.698 196.863 155.237C196.954 154.777 197.18 154.353 197.512 154.021C197.844 153.689 198.267 153.463 198.728 153.372C199.189 153.281 199.666 153.329 200.1 153.509C200.533 153.69 200.904 153.996 201.163 154.387C201.423 154.778 201.56 155.238 201.558 155.708C201.545 156.324 201.29 156.911 200.849 157.343C200.408 157.774 199.815 158.016 199.198 158.015V158.068Z" fill="#11AE55"/>
<path opacity="0.3" d="M199.198 149.714C198.419 149.714 197.647 149.868 196.926 150.167C196.206 150.465 195.552 150.903 195.001 151.455C194.45 152.007 194.013 152.662 193.716 153.383C193.419 154.103 193.266 154.876 193.268 155.656C193.268 158.924 195.92 165.335 199.198 165.335C202.477 165.335 205.129 158.924 205.129 155.656C205.131 154.876 204.978 154.103 204.681 153.383C204.384 152.662 203.947 152.007 203.396 151.455C202.845 150.903 202.191 150.465 201.471 150.167C200.75 149.868 199.978 149.714 199.198 149.714ZM199.198 158.068C198.729 158.07 198.269 157.932 197.878 157.672C197.486 157.413 197.181 157.043 197 156.609C196.82 156.176 196.772 155.698 196.863 155.237C196.954 154.777 197.18 154.353 197.512 154.021C197.844 153.689 198.267 153.463 198.728 153.372C199.189 153.281 199.666 153.329 200.1 153.509C200.533 153.69 200.904 153.996 201.163 154.387C201.423 154.778 201.56 155.238 201.558 155.708C201.545 156.324 201.29 156.911 200.849 157.343C200.408 157.774 199.815 158.016 199.198 158.015V158.068Z" fill="black"/>
<path opacity="0.1" d="M184.966 105.7C184.966 106.859 182.074 107.789 178.502 107.789C174.931 107.789 172.029 106.859 172.029 105.7C172.029 104.541 174.931 103.612 178.502 103.612C182.074 103.612 184.966 104.552 184.966 105.7Z" fill="black"/>
<path d="M179.035 105.003C182.314 105.003 184.966 98.5918 184.966 95.3235C184.968 94.5437 184.815 93.7714 184.518 93.0506C184.22 92.3298 183.784 91.6747 183.233 91.1229C182.682 90.5711 182.028 90.1333 181.307 89.8345C180.587 89.5358 179.815 89.3821 179.035 89.3821H177.991C176.415 89.3821 174.904 90.008 173.79 91.1223C172.676 92.2365 172.05 93.7477 172.05 95.3235C172.05 98.5918 174.712 105.003 177.991 105.003H179.035ZM176.675 95.3235C176.754 94.9783 176.929 94.6623 177.179 94.412C177.429 94.1617 177.745 93.9872 178.091 93.9086C178.436 93.8299 178.796 93.8504 179.13 93.9676C179.464 94.0848 179.759 94.294 179.979 94.5711C180.199 94.8482 180.337 95.1819 180.376 95.5337C180.415 95.8856 180.354 96.2414 180.2 96.56C180.046 96.8787 179.804 97.1473 179.504 97.335C179.204 97.5226 178.857 97.6217 178.503 97.6207C177.983 97.5021 177.518 97.2101 177.186 96.7926C176.854 96.3751 176.674 95.8569 176.675 95.3235Z" fill="#263238"/>
<path d="M177.97 89.3821C176.394 89.3821 174.883 90.008 173.769 91.1223C172.655 92.2365 172.029 93.7477 172.029 95.3235C172.029 98.5918 174.691 105.003 177.97 105.003C181.249 105.003 183.901 98.5918 183.901 95.3235C183.901 93.7495 183.276 92.2399 182.164 91.126C181.052 90.012 179.544 89.3848 177.97 89.3821ZM177.97 97.7355C177.5 97.7376 177.041 97.6001 176.649 97.3404C176.258 97.0808 175.952 96.7107 175.772 96.2771C175.591 95.8436 175.543 95.3662 175.634 94.9054C175.725 94.4446 175.951 94.0213 176.283 93.6892C176.616 93.3571 177.039 93.1311 177.5 93.04C177.96 92.9489 178.438 92.9967 178.871 93.1774C179.305 93.3581 179.675 93.6635 179.935 94.0549C180.194 94.4463 180.332 94.906 180.33 95.3757C180.314 95.9916 180.058 96.577 179.618 97.0077C179.177 97.4385 178.586 97.6808 177.97 97.6833V97.7355Z" fill="#11AE55"/>
<path opacity="0.3" d="M177.97 89.3821C176.394 89.3821 174.883 90.008 173.769 91.1223C172.655 92.2365 172.029 93.7477 172.029 95.3235C172.029 98.5918 174.691 105.003 177.97 105.003C181.249 105.003 183.901 98.5918 183.901 95.3235C183.901 93.7495 183.276 92.2399 182.164 91.126C181.052 90.012 179.544 89.3848 177.97 89.3821ZM177.97 97.7355C177.5 97.7376 177.041 97.6001 176.649 97.3404C176.258 97.0808 175.952 96.7107 175.772 96.2771C175.591 95.8436 175.543 95.3662 175.634 94.9054C175.725 94.4446 175.951 94.0213 176.283 93.6892C176.616 93.3571 177.039 93.1311 177.5 93.04C177.96 92.9489 178.438 92.9967 178.871 93.1774C179.305 93.3581 179.675 93.6635 179.935 94.0549C180.194 94.4463 180.332 94.906 180.33 95.3757C180.314 95.9916 180.058 96.577 179.618 97.0077C179.177 97.4385 178.586 97.6808 177.97 97.6833V97.7355Z" fill="black"/>
<path opacity="0.1" d="M286.252 109.178C286.252 110.327 283.36 111.267 279.789 111.267C276.218 111.267 273.315 110.327 273.315 109.178C273.315 108.03 276.218 107.09 279.789 107.09C283.36 107.09 286.252 108.019 286.252 109.178Z" fill="black"/>
<path d="M280.321 108.468C283.6 108.468 286.252 102.068 286.252 98.7888C286.254 98.0091 286.101 97.2367 285.804 96.5159C285.506 95.7951 285.07 95.1401 284.519 94.5882C283.968 94.0364 283.314 93.5986 282.593 93.2999C281.873 93.0012 281.101 92.8474 280.321 92.8474H279.277C277.701 92.8474 276.19 93.4734 275.076 94.5876C273.962 95.7018 273.336 97.2131 273.336 98.7888C273.336 102.068 275.998 108.468 279.277 108.468H280.321ZM277.961 98.7888C278.04 98.4436 278.215 98.1277 278.465 97.8774C278.715 97.627 279.031 97.4525 279.376 97.3739C279.722 97.2953 280.082 97.3157 280.416 97.433C280.75 97.5502 281.044 97.7594 281.265 98.0364C281.485 98.3135 281.623 98.6472 281.662 98.9991C281.701 99.351 281.64 99.7067 281.486 100.025C281.331 100.344 281.09 100.613 280.79 100.8C280.49 100.988 280.143 101.087 279.789 101.086C279.268 100.967 278.804 100.675 278.472 100.258C278.14 99.8404 277.96 99.3223 277.961 98.7888Z" fill="#263238"/>
<path d="M279.256 92.8474C277.681 92.8474 276.169 93.4734 275.055 94.5876C273.941 95.7018 273.315 97.2131 273.315 98.7888C273.315 102.068 275.978 108.468 279.256 108.468C282.535 108.468 285.187 102.068 285.187 98.7888C285.187 97.2149 284.563 95.7052 283.451 94.5913C282.339 93.4774 280.83 92.8502 279.256 92.8474ZM279.256 101.201C278.787 101.203 278.327 101.065 277.936 100.806C277.544 100.546 277.239 100.176 277.058 99.7425C276.877 99.3089 276.83 98.8315 276.921 98.3707C277.012 97.91 277.238 97.4867 277.57 97.1546C277.902 96.8224 278.325 96.5965 278.786 96.5053C279.247 96.4142 279.724 96.462 280.158 96.6427C280.591 96.8234 280.961 97.1289 281.221 97.5202C281.481 97.9116 281.618 98.3713 281.616 98.841C281.6 99.4569 281.344 100.042 280.904 100.473C280.463 100.904 279.872 101.146 279.256 101.149V101.201Z" fill="#11AE55"/>
<path opacity="0.3" d="M279.256 92.8474C277.681 92.8474 276.169 93.4734 275.055 94.5876C273.941 95.7018 273.315 97.2131 273.315 98.7888C273.315 102.068 275.978 108.468 279.256 108.468C282.535 108.468 285.187 102.068 285.187 98.7888C285.187 97.2149 284.563 95.7052 283.451 94.5913C282.339 93.4774 280.83 92.8502 279.256 92.8474ZM279.256 101.201C278.787 101.203 278.327 101.065 277.936 100.806C277.544 100.546 277.239 100.176 277.058 99.7425C276.877 99.3089 276.83 98.8315 276.921 98.3707C277.012 97.91 277.238 97.4867 277.57 97.1546C277.902 96.8224 278.325 96.5965 278.786 96.5053C279.247 96.4142 279.724 96.462 280.158 96.6427C280.591 96.8234 280.961 97.1289 281.221 97.5202C281.481 97.9116 281.618 98.3713 281.616 98.841C281.6 99.4569 281.344 100.042 280.904 100.473C280.463 100.904 279.872 101.146 279.256 101.149V101.201Z" fill="black"/>
<path d="M350.595 272.962C342.322 273.996 333.953 273.996 325.68 272.962C317.327 272.085 311.918 265.267 313.411 258.897C313.537 258.406 313.589 258.156 313.704 257.655C315.207 251.285 321.681 247.442 328.27 248.132C334.823 248.946 341.452 248.946 348.005 248.132C354.594 247.442 361.068 251.264 362.561 257.655C362.686 258.156 362.738 258.406 362.853 258.897C364.357 265.225 358.917 272.085 350.595 272.962Z" fill="#11AE55"/>
<path d="M341.019 269.911L340.079 292.821H343.838L344.778 269.911H341.019Z" fill="#263238"/>
<path d="M326.902 292.821H330.661L331.601 269.911H327.842L326.902 292.821Z" fill="#263238"/>
<g opacity="0.6">
<path opacity="0.6" d="M341.02 269.912L340.08 292.821H343.839L344.779 269.912H341.02Z" fill="white"/>
<path opacity="0.6" d="M326.903 292.821H330.662L331.601 269.912H327.842L326.903 292.821Z" fill="white"/>
</g>
<path d="M341.719 299.807H298.876L295.117 377.056H298.208L303.847 305.978H317.275L319.102 377.056H321.493L323.321 305.978H336.749L342.388 377.056H345.478L341.719 299.807Z" fill="#263238"/>
<path opacity="0.6" d="M341.719 299.807H298.876L295.117 377.056H298.208L303.847 305.978H317.275L319.102 377.056H321.493L323.321 305.978H336.749L342.388 377.056H345.478L341.719 299.807Z" fill="white"/>
<path opacity="0.2" d="M341.719 299.807H298.876L298.573 305.978H303.846H317.275H323.32H336.749H342.022L341.719 299.807Z" fill="black"/>
<path d="M348.757 272.962C340.481 273.996 332.108 273.996 323.832 272.962C315.479 272.085 310.08 265.267 311.574 258.897C311.688 258.406 311.751 258.156 311.866 257.655C313.359 251.285 319.833 247.442 326.422 248.132C332.975 248.946 339.604 248.946 346.157 248.132C352.756 247.442 359.23 251.264 360.723 257.655C360.838 258.156 360.901 258.406 361.016 258.897C362.509 265.225 357.11 272.085 348.757 272.962Z" fill="#11AE55"/>
<g opacity="0.5">
<path opacity="0.5" d="M348.757 272.962C340.481 273.996 332.108 273.996 323.832 272.962C315.479 272.085 310.08 265.267 311.574 258.897C311.688 258.406 311.751 258.156 311.866 257.655C313.359 251.285 319.833 247.442 326.422 248.132C332.975 248.946 339.604 248.946 346.157 248.132C352.756 247.442 359.23 251.264 360.723 257.655C360.838 258.156 360.901 258.406 361.016 258.897C362.509 265.225 357.11 272.085 348.757 272.962Z" fill="white"/>
</g>
<g opacity="0.7">
<path opacity="0.7" d="M347.713 260.202C347.713 260.523 347.618 260.835 347.44 261.102C347.262 261.368 347.009 261.575 346.714 261.698C346.418 261.82 346.092 261.852 345.779 261.79C345.465 261.727 345.176 261.573 344.95 261.347C344.723 261.121 344.569 260.832 344.507 260.518C344.444 260.204 344.476 259.879 344.599 259.583C344.721 259.287 344.929 259.035 345.195 258.857C345.461 258.679 345.774 258.584 346.094 258.584C346.524 258.584 346.935 258.754 347.239 259.058C347.542 259.362 347.713 259.773 347.713 260.202Z" fill="white"/>
<path opacity="0.7" d="M328.166 260.202C328.168 260.526 328.074 260.842 327.896 261.111C327.718 261.381 327.463 261.591 327.165 261.716C326.867 261.84 326.539 261.874 326.222 261.811C325.905 261.748 325.614 261.593 325.385 261.365C325.157 261.136 325.001 260.845 324.939 260.528C324.876 260.211 324.91 259.883 325.034 259.585C325.159 259.287 325.369 259.032 325.639 258.854C325.908 258.676 326.224 258.582 326.547 258.584C326.76 258.584 326.97 258.626 327.167 258.707C327.363 258.789 327.542 258.908 327.692 259.058C327.842 259.208 327.961 259.387 328.043 259.583C328.124 259.779 328.166 259.99 328.166 260.202Z" fill="white"/>
</g>
<path d="M347.284 301.186H293.31C292.634 301.187 291.964 301.055 291.339 300.796C290.713 300.538 290.145 300.159 289.667 299.681C289.189 299.203 288.81 298.635 288.551 298.009C288.293 297.384 288.161 296.714 288.162 296.038C288.162 294.672 288.705 293.363 289.67 292.398C290.636 291.432 291.945 290.89 293.31 290.89H347.284C348.649 290.89 349.959 291.432 350.924 292.398C351.889 293.363 352.432 294.672 352.432 296.038C352.433 296.714 352.301 297.384 352.043 298.009C351.785 298.635 351.405 299.203 350.927 299.681C350.449 300.159 349.881 300.538 349.256 300.796C348.63 301.055 347.96 301.187 347.284 301.186Z" fill="#11AE55"/>
<path opacity="0.5" d="M347.284 301.186H293.31C292.634 301.187 291.964 301.055 291.339 300.796C290.713 300.538 290.145 300.159 289.667 299.681C289.189 299.203 288.81 298.635 288.551 298.009C288.293 297.384 288.161 296.714 288.162 296.038C288.162 294.672 288.705 293.363 289.67 292.398C290.636 291.432 291.945 290.89 293.31 290.89H347.284C348.649 290.89 349.959 291.432 350.924 292.398C351.889 293.363 352.432 294.672 352.432 296.038C352.433 296.714 352.301 297.384 352.043 298.009C351.785 298.635 351.405 299.203 350.927 299.681C350.449 300.159 349.881 300.538 349.256 300.796C348.63 301.055 347.96 301.187 347.284 301.186Z" fill="white"/>
<path d="M280.248 191.619C280.248 191.619 267.352 181.626 278.89 171.779C278.89 171.779 291.703 157.286 299.67 167.864C301.058 169.701 307.104 167.78 308.023 175.173C308.879 181.918 313.578 178.305 313.108 185.897C312.711 192.35 317.577 190.804 317.494 194.824C317.389 200.045 304.964 197.487 298.939 200.776C292.204 204.462 286.346 210.8 284.905 203.909C284.044 199.582 282.47 195.429 280.248 191.619Z" fill="#263238"/>
<path d="M293.415 227.509C293.415 227.509 293.008 244.09 287.098 247.975C281.188 251.859 265.515 226.444 265.515 226.444L264.575 213.527L271.153 211.251L273.816 221.035L271.467 225.817C271.467 225.817 280.76 238.504 281.981 237.094C283.203 235.685 284.07 224.648 284.07 224.648L293.415 227.509Z" fill="#FF8B7B"/>
<path d="M287.891 208.431C282.556 211.908 283.255 220.021 281.626 229.638L294.459 231.298C294.459 231.298 297.404 202.239 287.891 208.431Z" fill="#11AE55"/>
<path opacity="0.1" d="M287.046 213.13C287.046 213.13 283.088 220.805 287.046 235.131C288.105 238.601 288.805 242.17 289.134 245.782C291.703 241.929 292.716 235.257 293.113 231.163L294.397 231.331C294.397 231.331 295.493 220.69 294.251 213.663L290.45 211.418L287.046 213.13Z" fill="black"/>
<path d="M246.887 299.964L252.076 356.695L259.051 357.509L262.643 300.935L246.887 299.964Z" fill="#FF8B7B"/>
<path opacity="0.1" d="M246.887 299.964L252.076 356.695L259.051 357.509L262.643 300.935L246.887 299.964Z" fill="black"/>
<path d="M252.045 355.868L258.748 353.697C258.89 353.651 259.043 353.653 259.183 353.705C259.323 353.756 259.442 353.852 259.521 353.978L262.977 359.826C263.057 359.947 263.111 360.083 263.135 360.226C263.159 360.369 263.153 360.515 263.118 360.655C263.083 360.796 263.018 360.927 262.929 361.041C262.841 361.156 262.729 361.25 262.601 361.319C262.537 361.361 262.467 361.393 262.393 361.413C259.594 362.28 257.057 362.938 253.59 364.076C249.486 365.423 250.687 365.569 245.894 367.208C243.002 368.2 241.394 365.12 242.564 364.504C247.972 361.956 249.037 359.701 250.552 356.975C250.894 356.433 251.426 356.038 252.045 355.868Z" fill="#263238"/>
<path d="M264.941 304.317L257.475 365.997L262.967 367.406C270.555 348.911 276.346 329.728 280.259 310.123L264.941 304.317Z" fill="#FF8B7B"/>
<path d="M257.443 364.964L264.188 367.053C264.331 367.097 264.455 367.188 264.541 367.311C264.626 367.434 264.667 367.582 264.658 367.731L264.178 374.445C264.179 374.593 264.148 374.739 264.089 374.873C264.029 375.008 263.942 375.129 263.833 375.227C263.723 375.326 263.594 375.4 263.454 375.446C263.313 375.491 263.165 375.506 263.019 375.49C262.943 375.5 262.865 375.5 262.789 375.49C259.991 374.592 257.568 373.694 254.039 372.649C249.862 371.417 250.802 372.221 245.926 370.832C242.991 369.997 243.451 366.51 244.735 366.718C250.635 367.71 252.786 366.457 255.584 365.079C256.17 364.82 256.829 364.779 257.443 364.964Z" fill="#263238"/>
<path d="M331.34 257.435C331.55 258.949 331.983 260.423 332.624 261.81C337.282 272.639 344.11 299.401 285.177 293.585L281.439 313.602L245.488 303.056C245.488 303.056 244.047 275.249 250.165 269.872C257.704 263.251 297.613 263.512 297.613 263.512L297.404 258.72L331.34 257.435Z" fill="#11AE55"/>
<path opacity="0.1" d="M264.69 276.01C257.569 281.127 256.545 294.931 257.088 306.459L262.57 308.067C262.476 303.076 262.57 290.389 265.703 284.051C269.681 275.989 281.042 267.981 295.514 266.185C295.504 266.132 277.753 266.613 264.69 276.01Z" fill="black"/>
<path d="M309.161 259.762C315.27 259.991 334.462 261.662 333.407 256.629C331.682 248.967 330.496 241.193 329.857 233.365C328.865 219.373 329.721 205.381 325.137 200.776C320.355 195.983 291.546 202.206 287.891 209.338C283.61 217.692 287.891 227.089 291.316 239.974C293.352 247.68 294.689 254.854 295.963 258.77C296.986 261.965 305.861 259.647 309.161 259.762Z" fill="#263238"/>
<path opacity="0.1" d="M332.624 261.81C331.982 260.423 331.55 258.949 331.34 257.435L297.404 258.72L297.602 263.283C299.377 263.763 302.406 264.108 307.167 263.283C315.092 261.852 324.26 265.632 333.042 262.834L332.624 261.81Z" fill="black"/>
<path opacity="0.6" d="M311.166 252.015C311.166 252.015 325.545 249.844 331.538 247.003C330.88 243.067 330.223 238.326 329.878 233.429C329.116 222.768 329.429 212.107 327.591 205.602L317.63 207.596C317.63 207.596 316.847 214.571 326.714 238.065L323.697 245.082L311.166 252.015Z" fill="black"/>
<path opacity="0.1" d="M321.337 291.651C299.064 292.799 286.169 287.098 286.169 287.098L285.177 293.583C302.145 295.243 313.652 294.219 321.337 291.651Z" fill="black"/>
<path d="M323.143 220.563C323.143 220.563 328.656 233.26 327.717 235.13C326.777 236.999 310.571 247.816 310.571 247.816C310.571 247.816 300.912 241.238 298.344 244.057C296.648 245.959 295.118 248.003 293.77 250.166L295.859 251.106L301.132 249.445C301.132 249.445 308.128 253.862 311.177 252.014C311.177 252.014 336.237 243.347 336.864 236.779C337.49 230.211 331.559 215.896 331.559 215.896L323.143 220.563Z" fill="#FF8B7B"/>
<path d="M321.608 199.441C318.966 199.556 311.354 202.761 323.446 223.457L334.378 218.173C334.378 218.173 328.917 199.075 321.608 199.441Z" fill="#11AE55"/>
<path d="M298.208 188.696C299.775 193.312 302.448 199.608 306.948 200.715C306.948 200.715 309.224 205.288 300.098 216.597C292.382 212.963 294.011 204.881 294.011 204.881C295.64 203.837 296.433 202.479 294.146 200.036L298.208 188.696Z" fill="#FF8B7B"/>
<path opacity="0.1" d="M296.423 193.667L294.146 200.037C294.845 200.681 295.333 201.522 295.545 202.449C299.973 200.851 299.722 192.738 299.722 192.738L296.423 193.667Z" fill="black"/>
<path d="M299.544 178.461C301.633 186.334 302.614 189.613 300.004 194.845C296.077 202.718 285.949 203.49 281.595 196.39C277.689 189.989 274.995 178.138 281.595 172.656C283.034 171.426 284.764 170.586 286.62 170.216C288.476 169.845 290.396 169.956 292.197 170.538C293.998 171.121 295.62 172.154 296.908 173.541C298.196 174.928 299.107 176.622 299.555 178.461H299.544Z" fill="#FF8B7B"/>
<path d="M287.338 185.868C287.599 186.484 287.484 187.111 287.087 187.288C286.69 187.466 286.158 187.09 285.897 186.484C285.636 185.878 285.761 185.241 286.148 185.074C286.534 184.907 287.066 185.346 287.338 185.868Z" fill="#263238"/>
<path d="M280.478 188.843C280.728 189.459 280.613 190.085 280.227 190.253C279.841 190.42 279.287 190.065 279.026 189.459C278.765 188.853 278.89 188.216 279.287 188.049C279.684 187.882 280.216 188.237 280.478 188.843Z" fill="#263238"/>
<path d="M279.475 188.006L277.836 188.204C277.836 188.204 279.068 188.998 279.475 188.006Z" fill="#263238"/>
<path d="M283.067 188.999C283.11 190.621 282.931 192.24 282.534 193.813C282.94 193.9 283.359 193.899 283.764 193.811C284.17 193.723 284.551 193.549 284.884 193.301L283.067 188.999Z" fill="#FF5652"/>
<path d="M289.238 194.314C288.964 194.49 288.674 194.641 288.372 194.763C288.349 194.774 288.325 194.779 288.3 194.78C288.275 194.781 288.25 194.777 288.227 194.768C288.204 194.76 288.182 194.746 288.164 194.729C288.146 194.712 288.131 194.692 288.121 194.669C288.111 194.645 288.106 194.619 288.107 194.594C288.107 194.568 288.113 194.542 288.124 194.519C288.135 194.495 288.15 194.474 288.17 194.457C288.189 194.44 288.211 194.427 288.236 194.418C289.001 194.115 289.684 193.636 290.228 193.019C290.772 192.402 291.163 191.665 291.369 190.868C291.379 190.817 291.408 190.772 291.451 190.743C291.494 190.714 291.547 190.702 291.598 190.712C291.623 190.715 291.647 190.724 291.668 190.737C291.69 190.75 291.708 190.768 291.723 190.788C291.738 190.809 291.748 190.832 291.753 190.856C291.759 190.881 291.759 190.906 291.755 190.931C291.583 191.635 291.272 192.297 290.84 192.878C290.408 193.459 289.863 193.947 289.238 194.314Z" fill="#263238"/>
<path d="M289.52 183.36C289.453 183.408 289.373 183.433 289.291 183.433C289.208 183.433 289.128 183.408 289.061 183.36C288.53 183.017 287.934 182.788 287.311 182.687C286.687 182.587 286.049 182.617 285.438 182.775C285.338 182.801 285.232 182.787 285.143 182.737C285.053 182.686 284.987 182.603 284.957 182.504C284.943 182.456 284.938 182.405 284.944 182.356C284.949 182.306 284.965 182.258 284.989 182.214C285.013 182.17 285.046 182.132 285.086 182.101C285.125 182.07 285.17 182.047 285.218 182.034C285.952 181.84 286.719 181.807 287.467 181.936C288.215 182.066 288.926 182.356 289.552 182.786C289.587 182.821 289.615 182.862 289.634 182.908C289.653 182.954 289.662 183.003 289.662 183.052C289.662 183.101 289.653 183.15 289.634 183.196C289.615 183.242 289.587 183.283 289.552 183.318C289.543 183.334 289.533 183.348 289.52 183.36Z" fill="#263238"/>
<path d="M277.064 186.545C277.004 186.581 276.935 186.6 276.865 186.6C276.795 186.6 276.727 186.581 276.667 186.545C276.621 186.522 276.581 186.49 276.548 186.451C276.515 186.412 276.491 186.366 276.476 186.318C276.462 186.269 276.457 186.217 276.463 186.167C276.469 186.116 276.485 186.067 276.51 186.023C276.781 185.464 277.186 184.981 277.689 184.617C278.192 184.253 278.777 184.018 279.392 183.934C279.441 183.927 279.491 183.93 279.539 183.942C279.586 183.955 279.631 183.977 279.67 184.007C279.709 184.037 279.742 184.075 279.766 184.118C279.79 184.161 279.805 184.209 279.81 184.258C279.819 184.359 279.787 184.459 279.723 184.537C279.658 184.616 279.566 184.665 279.465 184.676C278.986 184.766 278.534 184.967 278.146 185.262C277.759 185.558 277.445 185.94 277.231 186.378C277.192 186.448 277.134 186.506 277.064 186.545Z" fill="#263238"/>
<path d="M286.377 185.136L284.738 185.324C284.738 185.324 285.939 186.117 286.377 185.136Z" fill="#263238"/>
<path d="M303.586 183.715C303.547 185.256 302.902 186.719 301.79 187.787C300.296 189.186 298.657 188.079 298.219 186.169C297.884 184.446 298.219 181.647 300.119 180.948C300.538 180.804 300.987 180.769 301.423 180.845C301.86 180.922 302.27 181.107 302.615 181.384C302.961 181.661 303.231 182.021 303.401 182.43C303.571 182.839 303.634 183.285 303.586 183.725V183.715Z" fill="#FF8B7B"/>
<path d="M280.958 174.675C281.017 175.99 281.527 177.246 282.401 178.23C283.276 179.215 284.462 179.869 285.762 180.084C290.513 181.023 290.492 186.098 293.864 186.223C297.237 186.349 296.214 190.181 298.887 189.481C301.56 188.782 300.119 184.908 301.56 183.425C303.596 181.337 299.67 172.252 294.898 170.373C290.126 168.493 280.019 168.566 280.958 174.675Z" fill="#263238"/>
<path d="M281.595 173.659C281.595 173.659 277.846 176.917 278.65 180.801C279.454 184.686 276.656 185.323 277.606 189.04C278.556 192.757 281.313 193.217 281.605 196.349C281.898 199.482 284.905 200.244 283.694 201.967C282.482 203.69 280.321 199.774 280.164 196.746C280.008 193.718 276.322 193.551 275.852 189.552C275.382 185.552 277.502 183.673 276.896 180.154C276.29 176.635 275.852 171.613 282.545 171.926C289.238 172.239 281.595 173.659 281.595 173.659Z" fill="#263238"/>
<path d="M281.376 170.976C281.376 170.976 277.084 178.629 281.376 181.741C285.667 184.853 279.538 177.805 281.376 170.976Z" fill="#263238"/>
<path d="M280.133 171.812C280.133 171.812 272.083 172.533 271.874 178.568C271.665 184.604 273.461 174.141 280.133 171.812Z" fill="#263238"/>
<path d="M268.355 213.821C268.334 214.435 268.434 215.048 268.65 215.624C268.866 216.199 269.194 216.727 269.613 217.176C270.033 217.625 270.538 217.986 271.098 218.24C271.657 218.494 272.262 218.635 272.876 218.656H273.116C273.565 220.744 275.414 220.942 277.617 220.942H278.567C281.115 220.942 283.172 220.222 283.172 217.674V209.571C283.172 209.224 283.035 208.891 282.79 208.645C282.546 208.398 282.214 208.258 281.867 208.256H274.317C273.97 208.258 273.638 208.398 273.394 208.645C273.149 208.891 273.012 209.224 273.012 209.571V210.093H272.876C270.109 210.073 268.355 211.451 268.355 213.821ZM270.026 214.009C270.026 212.464 271.143 211.566 272.97 211.566V217.194C272.17 217.161 271.414 216.814 270.869 216.227C270.323 215.64 270.031 214.862 270.057 214.061L270.026 214.009Z" fill="#11AE55"/>
<path opacity="0.2" d="M268.355 213.821C268.334 214.435 268.434 215.048 268.65 215.624C268.866 216.199 269.194 216.727 269.613 217.176C270.033 217.625 270.538 217.986 271.098 218.24C271.657 218.494 272.262 218.635 272.876 218.656H273.116C273.565 220.744 275.414 220.942 277.617 220.942H278.567C281.115 220.942 283.172 220.222 283.172 217.674V209.571C283.172 209.224 283.035 208.891 282.79 208.645C282.546 208.398 282.214 208.258 281.867 208.256H274.317C273.97 208.258 273.638 208.398 273.394 208.645C273.149 208.891 273.012 209.224 273.012 209.571V210.093H272.876C270.109 210.073 268.355 211.451 268.355 213.821ZM270.026 214.009C270.026 212.464 271.143 211.566 272.97 211.566V217.194C272.17 217.161 271.414 216.814 270.869 216.227C270.323 215.64 270.031 214.862 270.057 214.061L270.026 214.009Z" fill="black"/>
<path opacity="0.1" d="M273.001 217.19V217.691C273.004 218.021 273.039 218.35 273.106 218.673H272.866C272.477 218.674 272.091 218.622 271.717 218.516V216.908C272.119 217.097 272.557 217.193 273.001 217.19Z" fill="black"/>
<path opacity="0.1" d="M272.907 210.069H273.043V211.552C272.623 211.55 272.205 211.606 271.801 211.719V210.153C272.167 210.094 272.537 210.066 272.907 210.069Z" fill="black"/>
<path opacity="0.1" d="M273.001 217.19V217.691C273.004 218.021 273.039 218.35 273.106 218.673H272.866C272.477 218.674 272.091 218.622 271.717 218.516V216.908C272.119 217.097 272.557 217.193 273.001 217.19Z" fill="black"/>
<path opacity="0.1" d="M272.907 210.069H273.043V211.552C272.623 211.55 272.205 211.606 271.801 211.719V210.153C272.167 210.094 272.537 210.066 272.907 210.069Z" fill="black"/>
<path d="M265.462 226.444L264.523 213.527L271.101 211.251L273.764 221.045L271.414 225.817L265.462 226.444Z" fill="#FF8B7B"/>
<path d="M209.045 228.559C209.045 228.559 203.083 235.357 201.141 227.421C199.198 219.485 197.35 212.573 197.35 212.573C197.35 212.573 229.594 221.845 209.045 228.559Z" fill="#11AE55"/>
<path opacity="0.3" d="M209.045 228.559C209.045 228.559 203.083 235.357 201.141 227.421C199.198 219.485 197.35 212.573 197.35 212.573C197.35 212.573 229.594 221.845 209.045 228.559Z" fill="black"/>
<path d="M209.88 238.823C209.88 238.823 211.969 222.857 203.208 217.563C203.208 217.563 210.736 224.58 208.429 238.625L209.88 238.823Z" fill="#11AE55"/>
<path opacity="0.5" d="M209.88 238.823C209.88 238.823 211.969 222.857 203.208 217.563C203.208 217.563 210.736 224.58 208.429 238.625L209.88 238.823Z" fill="white"/>
<path d="M213.566 229.374C213.566 229.374 206.675 222.681 214.548 218.932C222.421 215.184 230.879 222.409 230.879 222.409C230.879 222.409 214.109 241.121 213.566 229.374Z" fill="#11AE55"/>
<path d="M210.789 238.073C210.789 238.073 210.925 222.922 222.411 222.41C222.411 222.41 212.773 224.415 211.833 238.073H210.789Z" fill="#11AE55"/>
<path opacity="0.5" d="M210.789 238.073C210.789 238.073 210.925 222.922 222.411 222.41C222.411 222.41 212.773 224.415 211.833 238.073H210.789Z" fill="white"/>
<path d="M204.544 231.39C204.544 231.39 209.63 225.125 202.811 223.621C195.993 222.118 190.114 231.39 190.114 231.39C190.114 231.39 207.218 238.584 204.544 231.39Z" fill="#11AE55"/>
<path opacity="0.2" d="M204.544 231.39C204.544 231.39 209.63 225.125 202.811 223.621C195.993 222.118 190.114 231.39 190.114 231.39C190.114 231.39 207.218 238.584 204.544 231.39Z" fill="white"/>
<path d="M208.084 238.073C208.084 238.073 205.265 221.742 193.873 229.26C193.873 229.26 203.741 224.446 206.675 238.073H208.084Z" fill="#11AE55"/>
<path opacity="0.5" d="M208.084 238.073C208.084 238.073 205.265 221.742 193.873 229.26C193.873 229.26 203.741 224.446 206.675 238.073H208.084Z" fill="white"/>
<path d="M219.361 236.987H200.117L200.597 240.892H201.85L203.406 253.673H216.072L217.638 240.892H218.881L219.361 236.987Z" fill="#D5573B"/>
<path opacity="0.4" d="M217.305 243.627L217.618 241.058H201.872L202.185 243.627H217.305Z" fill="#D5573B"/>
<path d="M345.551 262.975H342.387H298.197H295.033L284.696 377.052H287.86H289.071H292.235L304.619 269.083H335.965L348.349 377.052H351.513H352.724H355.888L345.551 262.975Z" fill="#263238"/>
<path opacity="0.2" d="M345.551 262.975H342.387H298.197H295.033L284.696 377.052H287.86H289.071H292.235L304.619 269.083H335.965L348.349 377.052H351.513H352.724H355.888L345.551 262.975Z" fill="white"/>
<path opacity="0.1" d="M304.619 269.083H339.119L351.513 377.052H355.888L345.551 262.975H298.197L287.86 377.052H292.235L304.619 269.083Z" fill="white"/>
<path d="M225.939 262.975H222.776H178.586H175.422L165.085 377.052H168.248H169.46H172.624L185.008 269.083H216.354L228.738 377.052H231.902H233.113H236.277L225.939 262.975Z" fill="#263238"/>
<path opacity="0.2" d="M225.939 262.975H222.776H178.586H175.422L165.085 377.052H168.248H169.46H172.624L185.008 269.083H216.354L228.738 377.052H231.902H233.113H236.277L225.939 262.975Z" fill="white"/>
<path opacity="0.1" d="M185.008 269.083H219.508L231.902 377.052H236.278L225.94 262.975H178.586L168.249 377.052H172.624L185.008 269.083Z" fill="white"/>
<path d="M359.052 254.06H161.326V258.706H359.052V254.06Z" fill="#11AE55"/>
<path opacity="0.5" d="M359.052 254.06H161.326V258.706H359.052V254.06Z" fill="white"/>
<path opacity="0.2" d="M359.052 254.06H286.909V258.706H359.052V254.06Z" fill="black"/>
<path d="M355.293 258.453H165.085V263.099H355.293V258.453Z" fill="#11AE55"/>
<path opacity="0.2" d="M355.293 258.453H165.085V263.099H355.293V258.453Z" fill="white"/>
<path opacity="0.2" d="M355.293 258.453H286.909V263.099H355.293V258.453Z" fill="black"/>
<path d="M301.048 251.132H241.091C240.703 251.132 240.331 251.286 240.057 251.56C239.783 251.835 239.629 252.206 239.629 252.594C239.629 252.982 239.783 253.354 240.057 253.628C240.331 253.902 240.703 254.056 241.091 254.056H301.048C301.435 254.056 301.807 253.902 302.081 253.628C302.356 253.354 302.51 252.982 302.51 252.594C302.51 252.206 302.356 251.835 302.081 251.56C301.807 251.286 301.435 251.132 301.048 251.132Z" fill="#1A2E35"/>
<path opacity="0.3" d="M301.048 251.132H241.091C240.703 251.132 240.331 251.286 240.057 251.56C239.783 251.835 239.629 252.206 239.629 252.594C239.629 252.982 239.783 253.354 240.057 253.628C240.331 253.902 240.703 254.056 241.091 254.056H301.048C301.435 254.056 301.807 253.902 302.081 253.628C302.356 253.354 302.51 252.982 302.51 252.594C302.51 252.206 302.356 251.835 302.081 251.56C301.807 251.286 301.435 251.132 301.048 251.132Z" fill="white"/>
<path d="M241.885 253.158H266.715C266.825 253.158 266.934 253.131 267.031 253.08C267.129 253.029 267.213 252.956 267.276 252.866C267.34 252.776 267.381 252.672 267.396 252.563C267.411 252.454 267.399 252.343 267.363 252.239L257.359 223.66C257.225 223.275 256.973 222.941 256.64 222.705C256.307 222.469 255.909 222.343 255.501 222.344H230.681C230.57 222.343 230.46 222.368 230.361 222.419C230.262 222.469 230.177 222.542 230.112 222.632C230.047 222.722 230.006 222.827 229.99 222.937C229.975 223.047 229.986 223.159 230.023 223.263L240.036 251.842C240.168 252.228 240.417 252.562 240.748 252.798C241.08 253.034 241.478 253.16 241.885 253.158Z" fill="#1A2E35"/>
<path opacity="0.5" d="M241.885 253.158H266.715C266.825 253.158 266.934 253.131 267.031 253.08C267.129 253.029 267.213 252.956 267.276 252.866C267.34 252.776 267.381 252.672 267.396 252.563C267.411 252.454 267.399 252.343 267.363 252.239L257.359 223.66C257.225 223.275 256.973 222.941 256.64 222.705C256.307 222.469 255.909 222.343 255.501 222.344H230.681C230.57 222.343 230.46 222.368 230.361 222.419C230.262 222.469 230.177 222.542 230.112 222.632C230.047 222.722 230.006 222.827 229.99 222.937C229.975 223.047 229.986 223.159 230.023 223.263L240.036 251.842C240.168 252.228 240.417 252.562 240.748 252.798C241.08 253.034 241.478 253.16 241.885 253.158Z" fill="white"/>
<path d="M241.007 253.158H265.827C265.938 253.159 266.048 253.134 266.147 253.084C266.246 253.034 266.331 252.96 266.396 252.87C266.46 252.78 266.502 252.675 266.518 252.566C266.533 252.456 266.522 252.344 266.485 252.239L256.471 223.66C256.34 223.275 256.091 222.94 255.759 222.704C255.428 222.468 255.03 222.342 254.623 222.344H229.793C229.683 222.345 229.574 222.371 229.477 222.422C229.379 222.473 229.295 222.547 229.232 222.637C229.168 222.726 229.127 222.83 229.112 222.939C229.097 223.048 229.109 223.159 229.145 223.263L239.117 251.842C239.253 252.233 239.51 252.57 239.849 252.806C240.188 253.043 240.594 253.166 241.007 253.158Z" fill="#1A2E35"/>
<path opacity="0.7" d="M241.007 253.158H265.827C265.938 253.159 266.048 253.134 266.147 253.084C266.246 253.034 266.331 252.96 266.396 252.87C266.46 252.78 266.502 252.675 266.518 252.566C266.533 252.456 266.522 252.344 266.485 252.239L256.471 223.66C256.34 223.275 256.091 222.94 255.759 222.704C255.428 222.468 255.03 222.342 254.623 222.344H229.793C229.683 222.345 229.574 222.371 229.477 222.422C229.379 222.473 229.295 222.547 229.232 222.637C229.168 222.726 229.127 222.83 229.112 222.939C229.097 223.048 229.109 223.159 229.145 223.263L239.117 251.842C239.253 252.233 239.51 252.57 239.849 252.806C240.188 253.043 240.594 253.166 241.007 253.158Z" fill="white"/>
<path d="M249.476 237.749C249.8 239.106 249.309 240.202 248.432 240.202C247.555 240.202 246.511 239.106 246.187 237.749C245.863 236.391 246.364 235.305 247.283 235.305C248.202 235.305 249.163 236.402 249.476 237.749Z" fill="white"/>
<path opacity="0.2" d="M269.054 254.056C268.667 254.056 268.295 253.902 268.021 253.628C267.747 253.354 267.593 252.982 267.593 252.594C267.593 252.206 267.747 251.835 268.021 251.56C268.295 251.286 268.667 251.132 269.054 251.132H301.048C301.436 251.132 301.808 251.286 302.082 251.56C302.356 251.835 302.51 252.206 302.51 252.594C302.51 252.982 302.356 253.354 302.082 253.628C301.808 253.902 301.436 254.056 301.048 254.056H269.054Z" fill="white"/>
</svg>
