<svg width="563" height="420" viewBox="0 0 563 420" fill="none" xmlns="http://www.w3.org/2000/svg">
<path d="M562.328 368.212H0V368.494H562.328V368.212Z" fill="#EBEBEB"/>
<path d="M505.983 378.92H403.751V379.202H505.983V378.92Z" fill="#EBEBEB"/>
<path d="M372.508 375.873H344.516V376.154H372.508V375.873Z" fill="#EBEBEB"/>
<path d="M436.49 389.366H393.089V389.647H436.49V389.366Z" fill="#EBEBEB"/>
<path d="M84.4617 387.478H58.9995V387.759H84.4617V387.478Z" fill="#EBEBEB"/>
<path d="M124.713 387.478H94.4711V387.759H124.713V387.478Z" fill="#EBEBEB"/>
<path d="M253.216 382.731H200.537V383.012H253.216V382.731Z" fill="#EBEBEB"/>
<path d="M266.543 318.052H49.3837C47.6825 318.049 46.052 317.372 44.8501 316.168C43.6482 314.964 42.9731 313.332 42.9731 311.631V6.36555C42.988 4.6741 43.6695 3.05679 44.8698 1.86492C46.0701 0.673059 47.6922 0.00289755 49.3837 0H266.543C268.247 0 269.88 0.676579 271.084 1.8809C272.289 3.08521 272.965 4.71862 272.965 6.42178V311.631C272.965 313.334 272.289 314.967 271.084 316.172C269.88 317.376 268.247 318.052 266.543 318.052ZM49.3837 0.224932C47.757 0.227911 46.198 0.87618 45.0489 2.02745C43.8997 3.17871 43.2543 4.7389 43.2543 6.36555V311.631C43.2543 313.257 43.8997 314.818 45.0489 315.969C46.198 317.12 47.757 317.768 49.3837 317.771H266.543C268.171 317.768 269.731 317.12 270.882 315.97C272.033 314.819 272.681 313.258 272.684 311.631V6.36555C272.681 4.73787 272.033 3.17771 270.882 2.02676C269.731 0.875814 268.171 0.227905 266.543 0.224932H49.3837Z" fill="#EBEBEB"/>
<path d="M509.818 318.052H292.647C290.944 318.05 289.313 317.372 288.109 316.168C286.905 314.965 286.228 313.333 286.225 311.631V6.36555C286.243 4.67307 286.927 3.05577 288.129 1.86422C289.331 0.672666 290.954 0.00286595 292.647 0H509.818C511.507 0.00585326 513.126 0.677323 514.324 1.86887C515.522 3.06042 516.202 4.67604 516.217 6.36555V311.631C516.217 313.33 515.543 314.96 514.344 316.164C513.144 317.367 511.517 318.047 509.818 318.052ZM292.647 0.224932C291.019 0.227905 289.459 0.875814 288.308 2.02676C287.157 3.17771 286.509 4.73787 286.506 6.36555V311.631C286.509 313.258 287.157 314.819 288.308 315.97C289.459 317.12 291.019 317.768 292.647 317.771H509.818C511.445 317.768 513.005 317.12 514.156 315.97C515.307 314.819 515.955 313.258 515.958 311.631V6.36555C515.955 4.73787 515.307 3.17771 514.156 2.02676C513.005 0.875814 511.445 0.227905 509.818 0.224932H292.647Z" fill="#EBEBEB"/>
<path d="M479.328 361.822H500.416V244.836H479.328V361.822Z" fill="#F0F0F0"/>
<path d="M264.092 368.212L496.367 368.212V361.813H264.092V368.212Z" fill="#F0F0F0"/>
<path d="M479.328 244.827H260.042V361.813H479.328V244.827Z" fill="#F5F5F5"/>
<path d="M481.521 244.827H503.07V239.248H481.521V244.827Z" fill="#F0F0F0"/>
<path d="M481.521 239.249H257.388V244.827H481.521V239.249Z" fill="#FAFAFA"/>
<path d="M471.759 287.047H267.668V256.546H471.759V287.047ZM269.04 285.664H470.353V257.997H269.04V285.664Z" fill="#E0E0E0"/>
<path d="M471.759 350.104H267.668V295.502H471.759V350.104ZM269.04 348.642H470.353V296.908H269.04V348.642Z" fill="#E0E0E0"/>
<path d="M296.988 261.784H442.383C443.414 261.784 444.25 260.948 444.25 259.917V259.107C444.25 258.076 443.414 257.241 442.383 257.241H296.988C295.957 257.241 295.121 258.076 295.121 259.107V259.917C295.121 260.948 295.957 261.784 296.988 261.784Z" fill="#E0E0E0"/>
<path d="M296.988 300.756H442.383C443.414 300.756 444.25 299.92 444.25 298.889V298.08C444.25 297.049 443.414 296.213 442.383 296.213H296.988C295.957 296.213 295.121 297.049 295.121 298.08V298.889C295.121 299.92 295.957 300.756 296.988 300.756Z" fill="#E0E0E0"/>
<path d="M64.2179 368.212H72.979L72.979 219.308H64.2179L64.2179 368.212Z" fill="#E6E6E6"/>
<path d="M61.4625 368.212H67.5469L67.5469 219.308H61.4625L61.4625 368.212Z" fill="#F0F0F0"/>
<path d="M163.806 219.309H59.5731V230.072H163.806V219.309Z" fill="#F0F0F0"/>
<path d="M167.731 368.212H176.492L176.492 230.082H167.731L167.731 368.212Z" fill="#E6E6E6"/>
<path d="M164.976 368.212H171.06L171.06 230.082H164.976L164.976 368.212Z" fill="#F0F0F0"/>
<path d="M223.188 368.212H231.949L231.949 230.082H223.188L223.188 368.212Z" fill="#E6E6E6"/>
<path d="M220.41 368.212H226.494L226.494 230.082H220.41L220.41 368.212Z" fill="#F0F0F0"/>
<path d="M119.674 368.212H128.436L128.436 230.082H119.674L119.674 368.212Z" fill="#E6E6E6"/>
<path d="M116.908 368.212H122.992L122.992 230.082H116.908L116.908 368.212Z" fill="#F0F0F0"/>
<path d="M163.817 230.073H231.949V219.31H163.817V230.073Z" fill="#E6E6E6"/>
<path d="M154.978 136.047H70.7521L78.2085 70.8506H147.521L154.978 136.047Z" fill="#EBEBEB"/>
<path d="M117.448 136.051H108.282V219.31H117.448V136.051Z" fill="#F5F5F5"/>
<path d="M131.585 219.307H94.1785C94.1785 218.251 94.5979 217.238 95.3446 216.491C96.0912 215.745 97.1038 215.325 98.1597 215.325H127.569C128.095 215.321 128.616 215.421 129.103 215.619C129.59 215.817 130.033 216.109 130.407 216.479C130.78 216.85 131.076 217.29 131.278 217.775C131.48 218.26 131.585 218.781 131.585 219.307Z" fill="#F0F0F0"/>
<path d="M117.448 143.26L108.282 138.885V136.051H117.448V143.26Z" fill="#E0E0E0"/>
<path d="M152.267 219.071H191.821L196.713 165.347H157.159L152.267 219.071Z" fill="#E6E6E6"/>
<path d="M150.22 219.071H189.774L194.667 165.347H155.112L150.22 219.071Z" fill="#F0F0F0"/>
<path d="M184.365 213.124L188.177 171.298H160.522L156.709 213.124H184.365Z" fill="white"/>
<path d="M477.742 180.54H397.453L381.832 236.176H462.121L477.742 180.54Z" fill="#E6E6E6"/>
<path d="M462.121 236.178L461.806 239.248H381.494L381.82 236.178H462.121Z" fill="#E6E6E6"/>
<path d="M475.279 180.54H394.979L379.357 236.176H459.658L475.279 180.54Z" fill="#F0F0F0"/>
<path d="M458.747 232.545L471.669 184.365C471.849 183.679 471.501 183.083 470.916 183.083H397.093C396.798 183.118 396.521 183.246 396.303 183.448C396.085 183.65 395.936 183.916 395.879 184.208L382.968 232.354C382.776 233.04 383.125 233.636 383.71 233.636H457.532C457.824 233.607 458.099 233.485 458.318 233.289C458.536 233.093 458.686 232.833 458.747 232.545Z" fill="white"/>
<path d="M438.728 236.178L438.402 239.248H349.982L350.308 236.178H438.728Z" fill="#F0F0F0"/>
<path d="M494.376 35.3613H299.563V155.598H494.376V35.3613Z" fill="#F0F0F0"/>
<path d="M488.843 40.894H305.097V150.076H488.843V40.894Z" fill="white"/>
<path d="M494.376 155.608H496.367V35.371H494.376V155.608Z" fill="#E6E6E6"/>
<path d="M281.164 419.001C401.595 419.001 499.223 413.301 499.223 406.27C499.223 399.239 401.595 393.539 281.164 393.539C160.733 393.539 63.1042 399.239 63.1042 406.27C63.1042 413.301 160.733 419.001 281.164 419.001Z" fill="#F5F5F5"/>
<path d="M236.662 16.8704C241.91 12.1993 248.707 9.14026 257.052 7.6932C265.397 6.24614 274.218 7.16461 283.515 10.4486C292.782 13.7326 301.258 19.6633 308.943 28.2407C316.089 36.2182 320.917 44.5744 323.429 53.3092C325.934 61.3866 326.164 69.9984 324.092 78.1978C322.124 85.798 317.934 92.6387 312.059 97.8456C307.877 101.766 302.775 104.57 297.224 105.999C292.268 107.234 287.151 107.704 282.053 107.394C277.157 107.079 268.662 106.243 256.568 104.886C253.737 104.578 250.891 104.42 248.043 104.414C246.093 104.401 244.148 104.623 242.251 105.077C240.746 105.461 239.284 105.996 237.888 106.674C236.538 107.338 234.255 108.564 231.016 110.374C224.358 114.445 218.57 113.733 213.651 108.237C212.429 106.938 211.477 105.409 210.85 103.739C210.222 102.069 209.932 100.292 209.996 98.5091C210.124 94.8877 212.028 91.4275 215.709 88.1286C223.208 80.9433 233.251 77.0278 243.634 77.2419C249.545 77.4392 255.442 77.9346 261.303 78.7264C267.533 79.4799 272.133 79.9523 275.102 80.1098C278.05 80.2782 281.007 80.0321 283.886 79.3787C286.758 78.7424 289.414 77.366 291.59 75.3862C293.719 73.5378 295.424 71.2515 296.589 68.6836C297.753 66.1157 298.35 63.3266 298.338 60.507C298.428 54.5089 296.178 48.9343 291.59 43.7834C286.169 37.7327 280.654 34.6474 275.046 34.5275C269.438 34.4075 262.761 36.0195 255.016 39.3635C247.136 43.0599 240.857 42.3101 236.178 37.1142C234.847 35.6869 233.828 33.9973 233.187 32.1537C232.546 30.31 232.297 28.3529 232.455 26.4075C232.489 24.6183 232.879 22.8538 233.601 21.2165C234.323 19.5792 235.363 18.1018 236.662 16.8704ZM182.296 137.985C179.357 134.792 177.717 130.616 177.696 126.277C177.628 121.838 179.544 117.868 183.443 114.367C185.047 112.883 186.942 111.748 189.008 111.033C191.073 110.319 193.265 110.041 195.443 110.217C197.649 110.35 199.806 110.927 201.785 111.912C203.764 112.898 205.524 114.272 206.959 115.953C208.436 117.551 209.576 119.43 210.312 121.477C211.048 123.525 211.366 125.7 211.245 127.872C211.124 130.045 210.568 132.171 209.61 134.125C208.652 136.078 207.31 137.819 205.666 139.244C201.82 142.686 197.696 144.155 193.295 143.653C189.043 143.225 185.112 141.199 182.296 137.985Z" fill="#BFDFCD"/>
<g opacity="0.5">
<path opacity="0.5" d="M337.229 92.2785C338.808 88.5263 341.426 85.3033 344.775 82.9888C348.711 80.1848 353.306 78.4488 358.113 77.9503C363.713 77.3478 369.374 78.1759 374.567 80.3571C379.472 82.1718 383.902 85.0749 387.523 88.8482C390.661 92.1136 392.84 96.1796 393.821 100.601C394.726 104.733 394.373 109.042 392.809 112.972C391.748 115.855 389.976 118.424 387.658 120.44C385.582 122.224 383.246 123.68 380.73 124.758C378.316 125.786 374.046 127.428 367.92 129.684C366.488 130.21 365.087 130.818 363.725 131.506C362.788 131.966 361.912 132.54 361.116 133.216C360.484 133.757 359.911 134.364 359.407 135.027C358.923 135.668 358.125 136.804 357.011 138.401C354.762 141.954 351.819 143.004 348.183 141.55C347.285 141.221 346.461 140.717 345.759 140.069C345.056 139.42 344.489 138.639 344.089 137.771C343.688 136.754 343.502 135.665 343.545 134.573C343.588 133.481 343.857 132.41 344.336 131.428C346.201 126.187 350.067 121.9 355.088 119.506C357.962 118.168 360.901 116.974 363.894 115.93C367.054 114.805 369.371 113.917 370.833 113.287C372.284 112.658 373.639 111.829 374.859 110.824C376.082 109.826 377.023 108.528 377.592 107.056C378.168 105.661 378.435 104.157 378.375 102.649C378.315 101.141 377.929 99.663 377.244 98.3178C375.738 95.3573 373.148 93.0927 370.012 91.9973C365.963 90.4003 362.589 90.2466 359.89 91.5362C356.613 93.2805 353.745 95.7037 351.478 98.644C348.584 102.31 345.39 103.435 341.896 102.018C340.916 101.651 340.023 101.085 339.274 100.355C338.525 99.6255 337.935 98.7478 337.543 97.778C337.129 96.928 336.887 96.004 336.833 95.0599C336.779 94.1157 336.914 93.1702 337.229 92.2785ZM340.299 163.357C338.126 162.533 336.337 160.929 335.283 158.858C334.743 157.769 334.451 156.574 334.427 155.359C334.404 154.143 334.65 152.938 335.148 151.829C335.553 150.729 336.184 149.726 336.999 148.883C337.814 148.041 338.796 147.378 339.883 146.937C340.972 146.472 342.145 146.232 343.33 146.232C344.515 146.232 345.687 146.472 346.777 146.937C347.868 147.347 348.865 147.973 349.709 148.776C350.553 149.579 351.228 150.544 351.693 151.613C352.157 152.681 352.403 153.833 352.414 154.998C352.425 156.163 352.203 157.319 351.759 158.397C351.37 159.552 350.731 160.606 349.887 161.485C349.044 162.364 348.016 163.045 346.878 163.48C344.748 164.271 342.398 164.227 340.299 163.357Z" fill="#008037"/>
</g>
<g opacity="0.1">
<path opacity="0.1" d="M412.872 85.6537C411.855 84.0532 411.313 82.1968 411.309 80.3004C411.271 78.0535 411.822 75.8358 412.906 73.8674C414.157 71.5747 415.973 69.6393 418.181 68.2441C420.172 66.842 422.457 65.9113 424.861 65.5224C426.944 65.1847 429.08 65.4259 431.035 66.2197C432.866 66.9612 434.433 68.2343 435.534 69.8748C436.36 71.0431 436.878 72.4008 437.041 73.8224C437.17 75.0876 437.109 76.3651 436.861 77.6125C436.614 78.8196 436.111 80.8889 435.354 83.8205C435.183 84.5104 435.048 85.2086 434.949 85.9124C434.818 86.7788 434.887 87.6637 435.152 88.4991C435.275 88.859 435.5 89.4663 435.838 90.3211C436.043 90.6713 436.177 91.0587 436.231 91.4609C436.286 91.8632 436.26 92.2722 436.155 92.6644C436.051 93.0567 435.869 93.4242 435.622 93.7459C435.374 94.0676 435.065 94.337 434.713 94.5385C433.981 95.0525 433.075 95.2547 432.194 95.1008C431.697 94.9888 431.229 94.7737 430.82 94.4696C430.411 94.1655 430.071 93.779 429.821 93.3351C429.029 92.2132 428.47 90.9434 428.179 89.6013C427.946 88.4378 427.919 87.2425 428.1 86.0699C428.343 84.6146 428.662 83.173 429.056 81.7512C429.461 80.2329 429.731 79.1195 429.877 78.3772C430.018 77.6363 430.06 76.8798 430.001 76.1279C429.936 75.3942 429.685 74.6894 429.27 74.081C428.886 73.493 428.38 72.9947 427.786 72.6201C427.192 72.2455 426.524 72.0034 425.828 71.9105C424.283 71.6999 422.716 72.1037 421.465 73.0351C420.754 73.4295 420.134 73.967 419.642 74.6136C419.15 75.2602 418.798 76.0018 418.608 76.7915C418.413 78.5101 418.585 80.2506 419.114 81.8974C419.755 83.978 419.339 85.4963 417.888 86.4747C417.49 86.7524 417.039 86.9447 416.562 87.0395C416.086 87.1344 415.596 87.1297 415.121 87.0258C414.674 86.9597 414.244 86.8041 413.857 86.5684C413.471 86.3327 413.136 86.0216 412.872 85.6537ZM440.932 103.266C440.041 103.876 438.956 104.136 437.885 103.997C437.319 103.916 436.779 103.71 436.304 103.393C435.829 103.075 435.431 102.655 435.14 102.164C434.826 101.718 434.608 101.212 434.499 100.678C434.391 100.143 434.395 99.5924 434.511 99.0596C434.62 98.5186 434.836 98.005 435.147 97.5491C435.458 97.0932 435.857 96.7043 436.321 96.4054C436.767 96.095 437.27 95.8782 437.802 95.768C438.334 95.6578 438.882 95.6566 439.414 95.7644C439.949 95.863 440.457 96.0707 440.908 96.3745C441.359 96.6783 441.742 97.0716 442.035 97.5301C442.374 97.9851 442.609 98.5089 442.723 99.0647C442.838 99.6204 442.829 100.195 442.698 100.747C442.446 101.778 441.816 102.677 440.932 103.266Z" fill="#008037"/>
</g>
<path d="M208.949 398.824L200.447 396.62L205.519 377.175L214.021 379.379L208.949 398.824Z" fill="#FFC3BD"/>
<path d="M200.357 394.371L209.849 397.374C209.928 397.394 210.002 397.429 210.067 397.478C210.132 397.527 210.187 397.588 210.228 397.658C210.269 397.728 210.295 397.806 210.305 397.887C210.316 397.968 210.31 398.049 210.288 398.128L208.286 405.494C208.145 405.881 207.861 406.198 207.492 406.381C207.124 406.563 206.699 406.596 206.306 406.473C203.022 405.348 201.504 404.696 197.309 403.369C194.734 402.559 188.526 400.726 184.938 399.601C181.35 398.476 182.689 395.102 184.252 395.316C191.472 396.07 195.667 395.462 198.67 394.416C199.212 394.216 199.805 394.2 200.357 394.371Z" fill="#263238"/>
<path opacity="0.2" d="M214.022 379.389L205.519 377.185L202.91 387.205L211.412 389.41L214.022 379.389Z" fill="black"/>
<path d="M235.446 180.539C235.446 180.539 219.881 254.508 215.742 278.721C211.244 305.241 201.358 381.166 201.358 381.166L215.81 386.418C215.81 386.418 238.426 305.904 241.857 280.408C249.043 255.486 267.251 180.539 267.251 180.539H235.446Z" fill="#11AE55"/>
<path opacity="0.3" d="M255.432 204.685C250.382 216.809 248.549 238.886 249.426 252.089C253.43 236.501 257.872 218.698 261.314 204.752C260.2 200.917 258.671 196.891 255.432 204.685Z" fill="black"/>
<path d="M215.517 388.129L200.02 383.653L200.604 377.096L219.049 382.281L215.517 388.129Z" fill="#263238"/>
<path d="M196.871 394.841C197.638 395.06 198.425 395.2 199.221 395.257C199.261 395.264 199.303 395.258 199.339 395.24C199.376 395.221 199.405 395.192 199.424 395.156C199.445 395.124 199.456 395.087 199.456 395.049C199.456 395.011 199.445 394.974 199.424 394.942C199.21 394.672 197.354 392.344 196.196 392.412C196.063 392.417 195.933 392.455 195.819 392.524C195.705 392.593 195.61 392.69 195.544 392.805C195.429 392.967 195.359 393.156 195.342 393.354C195.324 393.551 195.359 393.75 195.442 393.93C195.791 394.398 196.299 394.722 196.871 394.841ZM198.783 394.841C197.163 394.65 196.072 394.256 195.802 393.716C195.75 393.599 195.731 393.471 195.746 393.344C195.762 393.217 195.813 393.097 195.892 392.996C195.924 392.939 195.969 392.891 196.024 392.855C196.079 392.82 196.142 392.799 196.207 392.794C196.815 392.771 198.007 393.907 198.783 394.818V394.841Z" fill="#008037"/>
<path d="M199.176 395.258H199.277C199.311 395.253 199.342 395.24 199.37 395.22C199.397 395.201 199.419 395.175 199.435 395.145C199.435 395.044 200.469 392.761 199.885 391.704C199.805 391.569 199.697 391.452 199.569 391.361C199.442 391.27 199.296 391.207 199.142 391.175C198.973 391.127 198.793 391.134 198.629 391.197C198.464 391.26 198.325 391.375 198.231 391.524C197.725 392.356 198.411 394.448 199.086 395.19C199.108 395.222 199.14 395.245 199.176 395.258ZM199.176 391.591C199.254 391.615 199.325 391.654 199.387 391.706C199.449 391.758 199.5 391.823 199.536 391.895C199.739 392.824 199.625 393.795 199.21 394.65C198.681 393.818 198.276 392.266 198.614 391.726C198.614 391.625 198.783 391.513 199.075 391.569L199.176 391.591Z" fill="#008037"/>
<path d="M247.492 117.188C246.738 119.01 246.018 120.629 245.242 122.294C244.466 123.958 243.634 125.589 242.791 127.22C241.081 130.47 239.282 133.675 237.302 136.802C233.364 143.3 228.601 149.262 223.132 154.537L222.929 154.74C222.642 154.998 222.325 155.221 221.985 155.403C221.048 155.908 220.019 156.218 218.959 156.314C218.353 156.358 217.744 156.358 217.137 156.314C216.23 156.256 215.328 156.132 214.438 155.943C212.841 155.606 211.424 155.19 210.029 154.751C207.263 153.874 204.687 152.805 202.157 151.726C199.626 150.646 197.13 149.476 194.678 148.206C192.226 146.935 189.819 145.664 187.435 144.224C186.882 143.887 186.468 143.363 186.267 142.747C186.065 142.132 186.09 141.464 186.337 140.865C186.583 140.266 187.036 139.775 187.612 139.479C188.189 139.184 188.852 139.104 189.482 139.253C194.7 140.513 199.908 141.919 205.036 143.167C207.589 143.808 210.142 144.371 212.594 144.843C213.749 145.077 214.917 145.246 216.091 145.349C216.533 145.375 216.976 145.375 217.418 145.349C217.587 145.349 217.655 145.349 217.61 145.349C217.21 145.36 216.821 145.481 216.485 145.698L215.36 146.564C217.536 144.155 219.554 141.608 221.4 138.938C223.289 136.206 225.077 133.315 226.798 130.414C228.519 127.512 230.172 124.464 231.735 121.416C233.299 118.368 234.851 115.231 236.234 112.295L236.301 112.149C236.965 110.658 238.194 109.491 239.718 108.906C241.242 108.321 242.936 108.365 244.427 109.028C245.918 109.692 247.085 110.921 247.67 112.445C248.256 113.969 248.212 115.662 247.548 117.154L247.492 117.188Z" fill="#FFC3BD"/>
<path d="M245.759 105.287C238.517 105.489 233.546 113.351 228.8 123.146C232.438 129.435 237.651 134.668 243.926 138.329C243.926 138.329 262.955 104.803 245.759 105.287Z" fill="#E0E0E0"/>
<path d="M187.075 144.269L180.552 142.605L185.635 136.07C185.635 136.07 191.259 136.959 193.396 141.694L191.079 143.347C190.517 143.779 189.868 144.085 189.177 144.244C188.487 144.403 187.769 144.412 187.075 144.269Z" fill="#FFC3BD"/>
<path d="M178.966 135.923L180.226 134.799C180.741 134.347 181.399 134.092 182.084 134.077C182.769 134.063 183.437 134.29 183.971 134.72L185.635 136.058L180.552 142.592L178.471 139.353C178.127 138.818 177.987 138.176 178.078 137.546C178.169 136.916 178.484 136.339 178.966 135.923Z" fill="#FFC3BD"/>
<path d="M285.055 397.813H276.159L274.034 377.997H282.93L285.055 397.813Z" fill="#FFC3BD"/>
<path d="M275.383 396.821H285.381C285.547 396.812 285.709 396.868 285.833 396.977C285.957 397.087 286.033 397.241 286.045 397.406L286.528 405.008C286.52 405.417 286.351 405.806 286.059 406.092C285.767 406.378 285.374 406.538 284.965 406.538C281.49 406.47 279.825 406.279 275.428 406.279C272.729 406.279 265.306 406.549 261.539 406.549C257.771 406.549 257.906 402.995 259.492 402.68C266.588 401.229 271.334 399.239 273.854 397.349C274.291 397.01 274.829 396.824 275.383 396.821Z" fill="#263238"/>
<path opacity="0.2" d="M282.93 377.997H274.034L275.136 388.22H284.032L282.93 377.997Z" fill="black"/>
<path d="M252.834 180.542C252.834 180.542 254.802 254.904 256.208 279.41C257.782 306.245 271.109 385.747 271.109 385.747H287.417C287.417 385.747 283.84 305.233 281.141 278.904C282.266 250.068 283.008 180.52 283.008 180.52L252.834 180.542Z" fill="#11AE55"/>
<path d="M288.069 385.743H269.58L268.703 379.794L288.564 380.131L288.069 385.743Z" fill="#263238"/>
<path d="M272.234 398.307C273.033 398.29 273.829 398.188 274.607 398.004C274.645 397.997 274.68 397.978 274.706 397.949C274.732 397.921 274.749 397.885 274.753 397.846C274.764 397.809 274.762 397.768 274.748 397.732C274.734 397.695 274.708 397.664 274.674 397.644C274.393 397.464 271.874 395.799 270.783 396.215C270.661 396.26 270.553 396.336 270.469 396.434C270.384 396.532 270.326 396.651 270.3 396.778C270.229 396.97 270.216 397.179 270.262 397.379C270.308 397.578 270.411 397.76 270.558 397.902C271.051 398.233 271.645 398.377 272.234 398.307ZM274.033 397.723C272.436 398.026 271.267 397.97 270.851 397.576C270.765 397.482 270.706 397.367 270.68 397.242C270.655 397.117 270.663 396.988 270.704 396.868C270.715 396.806 270.741 396.747 270.781 396.698C270.82 396.649 270.871 396.611 270.929 396.587C271.514 396.362 272.999 397.081 274.033 397.723Z" fill="#008037"/>
<path d="M274.55 398.011H274.651C274.682 397.993 274.707 397.969 274.727 397.94C274.746 397.91 274.759 397.877 274.764 397.843C274.764 397.741 274.966 395.278 274.067 394.469C273.951 394.358 273.812 394.277 273.66 394.23C273.508 394.183 273.347 394.172 273.189 394.199C273.016 394.201 272.847 394.261 272.711 394.368C272.575 394.476 272.478 394.626 272.436 394.795C272.233 395.728 273.561 397.516 274.449 398.023L274.55 398.011ZM273.291 394.536C273.374 394.534 273.457 394.548 273.534 394.579C273.612 394.61 273.682 394.657 273.74 394.716C274.233 395.533 274.439 396.491 274.325 397.438C273.549 396.808 272.661 395.447 272.796 394.84C272.796 394.716 272.897 394.581 273.201 394.547L273.291 394.536Z" fill="#008037"/>
<path d="M239.192 111.013C239.672 109.557 240.535 108.257 241.69 107.249C242.846 106.242 244.252 105.565 245.76 105.288C247.957 104.776 250.185 104.4 252.429 104.163C259.172 103.791 265.93 103.791 272.673 104.163C276.204 104.321 279.803 104.737 282.671 105.142H282.772C283.509 105.228 284.221 105.462 284.864 105.832C285.507 106.202 286.068 106.698 286.513 107.292C286.958 107.885 287.278 108.563 287.453 109.284C287.627 110.005 287.653 110.754 287.529 111.485C285.284 122.946 283.815 134.545 283.132 146.203C282.435 163.14 283.379 176.434 283.042 180.516H235.447C232.556 139.208 236.29 120.426 239.192 111.013Z" fill="#E0E0E0"/>
<path d="M275.9 78.9608C276.731 79.5604 277.391 80.3652 277.817 81.2965C278.243 82.2279 278.42 83.2538 278.33 84.274C278.24 85.2942 277.888 86.2737 277.306 87.1166C276.724 87.9595 275.934 88.637 275.012 89.0827C276.935 92.2655 271.818 97.8888 266.667 94.3573C261.516 90.8259 268.792 75.958 275.9 78.9608Z" fill="#263238"/>
<path d="M254.599 75.5429C253.892 75.5638 253.192 75.4008 252.568 75.0699C251.943 74.7391 251.415 74.2516 251.035 73.6553C250.655 73.0589 250.437 72.3742 250.401 71.6681C250.365 70.962 250.514 70.2588 250.832 69.6272C248.436 68.6938 248.863 63.4641 253.182 63.2392C257.501 63.0142 259.728 74.2271 254.599 75.5429Z" fill="#263238"/>
<path d="M253.193 108.585C252.871 108.289 252.632 107.915 252.498 107.499C252.365 107.083 252.341 106.64 252.431 106.212C252.521 105.784 252.72 105.387 253.009 105.06C253.299 104.733 253.668 104.486 254.082 104.345C258.423 102.748 259.21 99.5988 258.862 96.1686C258.762 95.204 258.604 94.2463 258.389 93.3007L265.756 87.4188L271.177 83.1001C269.827 88.7234 268.32 98.5191 271.177 103.479C271.497 103.998 271.621 104.614 271.526 105.217C271.431 105.819 271.123 106.367 270.659 106.763C268.792 108.416 264.969 110.553 258.67 110.216C255.78 110.069 254.172 109.406 253.193 108.585Z" fill="#FFC3BD"/>
<path d="M236.751 111.217C237.287 109.597 238.233 108.144 239.496 106.997C240.759 105.85 242.296 105.049 243.96 104.671C246.095 104.332 248.246 104.107 250.404 103.996C250.63 103.964 250.859 103.988 251.073 104.067C251.287 104.145 251.477 104.276 251.628 104.447C251.779 104.617 251.884 104.823 251.936 105.045C251.987 105.266 251.983 105.498 251.922 105.717C248.155 119.708 242.779 147.7 244.444 182.374C244.451 182.589 244.415 182.804 244.336 183.006C244.258 183.207 244.139 183.39 243.988 183.544C243.836 183.697 243.655 183.819 243.455 183.9C243.254 183.981 243.04 184.02 242.824 184.016H233.377C232.967 184.023 232.57 183.873 232.267 183.597C231.964 183.321 231.778 182.94 231.746 182.531C228.901 140.165 233.928 119.055 236.751 111.217Z" fill="#263238"/>
<path d="M282.412 104.297C279.388 103.864 276.344 103.586 273.291 103.465C272.739 103.424 272.19 103.581 271.741 103.906C271.293 104.231 270.973 104.704 270.839 105.242C267.342 120.649 264.227 154.884 264.092 182.427C264.096 182.637 264.142 182.843 264.226 183.035C264.31 183.227 264.432 183.401 264.583 183.546C264.734 183.691 264.913 183.805 265.109 183.881C265.304 183.958 265.513 183.995 265.722 183.99H282.592C283.01 183.999 283.415 183.844 283.72 183.558C284.025 183.272 284.205 182.878 284.223 182.461C284.335 176.916 283.571 163.926 284.223 147.799C284.846 136.306 286.29 124.873 288.542 113.587C289.126 110.426 285.752 104.769 282.412 104.297Z" fill="#263238"/>
<path d="M288.339 109.193C291.949 114.636 295.233 120.091 298.337 125.815C299.867 128.683 301.374 131.596 302.735 134.655C303.409 136.185 304.073 137.748 304.692 139.401C305.373 141.189 305.9 143.033 306.266 144.912C306.543 146.281 306.604 147.685 306.446 149.073C306.262 150.196 305.972 151.3 305.58 152.368C304.938 154.11 304.152 155.796 303.23 157.407C301.574 160.328 299.729 163.138 297.707 165.819C293.817 171.011 289.563 175.919 284.976 180.507C284.446 181.038 283.74 181.356 282.991 181.4C282.242 181.445 281.503 181.212 280.914 180.747C280.326 180.282 279.928 179.617 279.798 178.878C279.668 178.139 279.814 177.378 280.208 176.74V176.672C283.481 171.397 286.787 166.022 289.779 160.691C291.263 158.037 292.68 155.337 293.816 152.728C294.952 150.119 295.784 147.262 295.199 147.184C294.841 145.987 294.405 144.815 293.895 143.675C293.333 142.393 292.691 141.066 292.017 139.75C290.645 137.107 289.171 134.419 287.631 131.776C284.549 126.467 281.265 121.114 278.015 115.929V115.862C277.13 114.493 276.826 112.829 277.169 111.235C277.512 109.642 278.473 108.25 279.842 107.365C281.211 106.481 282.876 106.177 284.469 106.519C286.063 106.862 287.455 107.824 288.339 109.193Z" fill="#FFC3BD"/>
<path d="M281.344 104.152C288.586 104.017 292.421 110.146 297.167 119.897C291.792 129.85 281.535 134.157 281.535 134.157C281.535 134.157 267.105 104.399 281.344 104.152Z" fill="#E0E0E0"/>
<path d="M277.632 176.446L273.46 177.773L281.186 183.644C281.186 183.644 287.507 180.36 285.527 177.38L284.245 176.806C282.158 175.885 279.807 175.757 277.632 176.446Z" fill="#FFC3BD"/>
<path d="M271.121 182.924L275.81 187.636C275.962 187.784 276.143 187.899 276.341 187.973C276.539 188.048 276.751 188.08 276.962 188.068C277.174 188.057 277.38 188.001 277.569 187.906C277.758 187.81 277.925 187.676 278.06 187.512L281.175 183.644L273.449 177.773L271.042 181.068C270.82 181.331 270.705 181.668 270.719 182.011C270.734 182.355 270.877 182.681 271.121 182.924Z" fill="#FFC3BD"/>
<path opacity="0.2" d="M258.389 93.3458C258.604 94.2914 258.761 95.2491 258.861 96.2137C261.65 96.9222 265.609 93.7282 265.98 91.0178C266.028 89.8285 265.953 88.6376 265.755 87.4639L258.389 93.3458Z" fill="black"/>
<path d="M275.799 75.1125C273.898 83.4125 273.224 88.3609 268.118 92.0611C266.447 93.2827 264.483 94.0398 262.425 94.2553C260.367 94.4707 258.289 94.1368 256.401 93.2876C254.514 92.4383 252.886 91.1041 251.683 89.4208C250.479 87.7374 249.743 85.7652 249.55 83.7049C248.897 75.9222 252.114 63.6523 261.201 61.4704C270.288 59.2886 277.7 66.8013 275.799 75.1125Z" fill="#FFC3BD"/>
<path d="M271.953 82.3794C269.546 82.5031 266.982 74.012 272.29 69.9182C271.447 70.3793 269.141 69.5359 269.546 67.9501C267.983 68.6024 261.145 68.3212 262.798 65.5433C259.323 66.443 251.743 64.936 250.933 61.6183C250.123 58.3005 254.037 58.1881 254.644 58.6267C252.924 56.2199 252.957 52.6885 257.524 51.4064C262.09 50.1243 268.973 56.726 268.973 56.726C268.253 54.9828 270.783 53.577 273.404 55.0728C276.024 56.5686 277.25 60.8198 277.25 60.8198C277.25 59.5377 283.368 61.2584 280.467 66.6342C283.469 67.7589 284.841 69.3559 284.65 72.1338C284.459 74.9117 282.558 75.0692 282.558 75.0692C282.961 76.0693 283.016 77.1753 282.717 78.2108C282.417 79.2463 281.779 80.1517 280.905 80.7824C277.79 83.2904 275.068 80.3438 271.953 82.3794Z" fill="#263238"/>
<path d="M276.721 83.0196C275.663 84.5675 274.101 85.7003 272.301 86.2249C269.984 86.8434 269.197 84.7741 270.142 82.6147C270.997 80.6691 273.223 77.9924 275.405 78.3298C277.587 78.6672 278.026 81.0852 276.721 83.0196Z" fill="#FFC3BD"/>
<path d="M262.044 74.7759C261.932 75.4506 261.459 75.9567 260.998 75.9005C260.537 75.8443 260.245 75.237 260.357 74.5509C260.47 73.8649 260.942 73.4263 261.403 73.4263C261.864 73.4263 262.1 74.0898 262.044 74.7759Z" fill="#263238"/>
<path d="M253.812 73.2832C253.7 73.9692 253.239 74.4753 252.777 74.4078C252.316 74.3404 252.024 73.7443 252.136 73.0582C252.249 72.3722 252.71 71.9336 253.171 71.9336C253.632 71.9336 253.925 72.6084 253.812 73.2832Z" fill="#263238"/>
<path d="M257.062 74.811C255.864 76.7902 254.399 78.5953 252.71 80.1756C253.147 80.5869 253.668 80.9 254.236 81.0939C254.804 81.2879 255.407 81.3582 256.005 81.3003L257.062 74.811Z" fill="#ED847E"/>
<path d="M257.467 84.652C258.285 84.7445 259.114 84.6727 259.903 84.441C260.693 84.2092 261.429 83.8222 262.067 83.3025C262.104 83.2629 262.125 83.2106 262.125 83.1563C262.125 83.1019 262.104 83.0497 262.067 83.01C262.027 82.9752 261.975 82.9561 261.921 82.9561C261.868 82.9561 261.816 82.9752 261.775 83.01C261.073 83.567 260.254 83.9576 259.379 84.1524C258.505 84.3472 257.597 84.3412 256.725 84.1347C256.699 84.1281 256.671 84.127 256.644 84.1314C256.617 84.1358 256.591 84.1457 256.568 84.1604C256.545 84.1751 256.525 84.1944 256.509 84.217C256.494 84.2397 256.483 84.2652 256.478 84.2921C256.471 84.3181 256.47 84.3451 256.475 84.3715C256.479 84.3979 256.489 84.423 256.504 84.4452C256.519 84.4675 256.538 84.4864 256.561 84.5007C256.583 84.515 256.609 84.5244 256.635 84.5283C256.909 84.5899 257.187 84.6312 257.467 84.652Z" fill="#263238"/>
<path d="M262.382 70.0962C262.314 70.1142 262.252 70.1491 262.202 70.1974C262.163 70.2342 262.132 70.2786 262.11 70.3279C262.089 70.3773 262.078 70.4304 262.078 70.4842C262.078 70.5379 262.089 70.5911 262.11 70.6404C262.132 70.6897 262.163 70.7341 262.202 70.7709C262.64 71.2607 263.19 71.6371 263.805 71.8682C264.42 72.0993 265.081 72.1782 265.733 72.098C265.787 72.0927 265.84 72.0762 265.887 72.0497C265.934 72.0231 265.976 71.987 266.008 71.9437C266.041 71.9004 266.065 71.8508 266.077 71.798C266.09 71.7452 266.092 71.6904 266.082 71.6369C266.072 71.583 266.052 71.5314 266.023 71.4852C265.993 71.439 265.955 71.3991 265.91 71.3678C265.865 71.3364 265.815 71.3143 265.761 71.3026C265.708 71.2909 265.652 71.2898 265.598 71.2995C265.083 71.345 264.564 71.2667 264.084 71.0711C263.605 70.8755 263.179 70.5682 262.843 70.1749C262.781 70.1207 262.705 70.0848 262.623 70.0709C262.542 70.057 262.459 70.0657 262.382 70.0962Z" fill="#263238"/>
<path d="M251.484 68.0633C251.546 68.0909 251.613 68.1051 251.681 68.1051C251.749 68.1051 251.816 68.0909 251.878 68.0633C252.358 67.8238 252.884 67.6927 253.421 67.6791C253.957 67.6655 254.49 67.7697 254.982 67.9845C255.078 68.0389 255.191 68.0541 255.298 68.0268C255.405 67.9996 255.497 67.932 255.555 67.8383C255.604 67.7408 255.614 67.6282 255.583 67.5236C255.551 67.4191 255.481 67.3305 255.386 67.276C254.779 66.9847 254.114 66.8335 253.441 66.8335C252.767 66.8335 252.102 66.9847 251.495 67.276C251.446 67.2974 251.402 67.3289 251.365 67.3685C251.329 67.4081 251.302 67.4549 251.285 67.5058C251.268 67.5567 251.262 67.6106 251.267 67.6641C251.272 67.7175 251.289 67.7692 251.315 67.8158C251.341 67.9156 251.4 68.0031 251.484 68.0633Z" fill="#263238"/>
</svg>
