<svg width="14" height="14" viewBox="0 0 14 14" fill="none" xmlns="http://www.w3.org/2000/svg">
<path d="M9.72387 0.733788C10.1936 0.264017 10.8306 6.56471e-05 11.495 1.22436e-08C12.1593 -6.56227e-05 12.7964 0.26376 13.2662 0.733438C13.736 1.20312 13.9999 1.84017 14 2.50446C14.0001 3.16876 13.7362 3.80586 13.2665 4.27564L12.6421 4.90001L9.10017 1.35816L9.72387 0.733788ZM8.35818 2.10013L1.35824 9.09913C1.07378 9.38367 0.873867 9.74157 0.780742 10.133L0.0142488 13.3535C-0.00650491 13.4408 -0.0045591 13.5319 0.0199007 13.6182C0.0443606 13.7045 0.0905188 13.7831 0.153973 13.8464C0.217428 13.9098 0.296062 13.9559 0.382378 13.9803C0.468694 14.0046 0.559812 14.0065 0.647044 13.9856L3.86772 13.2192C4.25923 13.1259 4.61716 12.9257 4.90161 12.641L11.9001 5.64338L8.35748 2.10013H8.35818Z" fill="black"/>
</svg>
