<svg width="14" height="14" viewBox="0 0 14 14" fill="none" xmlns="http://www.w3.org/2000/svg">
<path d="M0.15373 0.153727C0.0649407 0.242542 0.0109266 0.360241 0.00148627 0.485471C-0.00795409 0.610701 0.0278046 0.735167 0.102275 0.83629L0.15373 0.896145L2.97846 3.7209C1.60139 4.68586 0.618275 6.11487 0.209384 7.74592C0.179276 7.87972 0.202715 8.01999 0.274689 8.13673C0.346663 8.25348 0.461458 8.33742 0.594525 8.37062C0.727591 8.40382 0.868365 8.38363 0.986742 8.31438C1.10512 8.24513 1.1917 8.13231 1.22797 8.00004C1.59106 6.55242 2.48547 5.29439 3.73348 4.47592L5.00093 5.74339C4.49251 6.27191 4.21168 6.97877 4.21878 7.71211C4.22588 8.44545 4.52035 9.14674 5.03892 9.66531C5.55749 10.1839 6.25877 10.4784 6.99211 10.4855C7.72544 10.4926 8.4323 10.2117 8.96081 9.7033L13.1045 13.847C13.1981 13.9403 13.3236 13.9948 13.4557 13.9996C13.5879 14.0045 13.717 13.9593 13.8173 13.8731C13.9175 13.7869 13.9816 13.666 13.9966 13.5346C14.0116 13.4033 13.9765 13.271 13.8983 13.1644L13.8469 13.1046L9.56776 8.82437V8.82332L8.72769 7.98429L6.71888 5.97546H6.71993L4.70376 3.96033V3.95928L3.91094 3.1675L0.896142 0.153727C0.797681 0.0552957 0.664158 0 0.524936 0C0.385713 0 0.25219 0.0552957 0.15373 0.153727ZM5.74334 6.48581L8.21735 8.96088C7.8869 9.27808 7.44527 9.45311 6.98724 9.44842C6.52921 9.44374 6.09127 9.2597 5.76737 8.9358C5.44348 8.61191 5.25945 8.17396 5.25476 7.71592C5.25007 7.25789 5.4251 6.81627 5.74229 6.48581H5.74334ZM7.0003 2.45029C6.29989 2.45029 5.62048 2.5532 4.97783 2.74746L5.84415 3.61274C7.34201 3.31604 8.89661 3.60627 10.1865 4.42342C11.4764 5.24057 12.403 6.52215 12.7747 8.00319C12.811 8.13546 12.8976 8.24828 13.016 8.31753C13.1343 8.38679 13.2751 8.40697 13.4082 8.37377C13.5412 8.34057 13.656 8.25663 13.728 8.13988C13.8 8.02314 13.8234 7.88287 13.7933 7.74907C13.4135 6.23514 12.5387 4.8915 11.308 3.9315C10.0773 2.9715 8.56115 2.45017 7.0003 2.45029ZM7.13681 4.90751L9.79773 7.5674C9.76363 6.87269 9.47234 6.21551 8.98052 5.72368C8.4887 5.23185 7.83152 4.94056 7.13681 4.90646V4.90751Z" fill="black"/>
</svg>
